<svg width="299" height="450" viewBox="0 0 299 450" fill="none" xmlns="http://www.w3.org/2000/svg">
<g filter="url(#filter0_n_503_2947)">
<path d="M10.0882 9.47851C8.95487 6.72053 7.01726 2.5806 9.55005 0.126042C9.97339 0.0171603 10.6653 -0.170883 10.9536 0.3357C13.7894 5.32156 16.3472 12.1584 18.9214 17.3788C19.5645 18.6832 22.1322 21.2739 22.9738 22.7391C29.1272 33.4487 35.1655 45.0568 41.9918 55.1566C46.4521 61.1129 51.1247 65.8651 55.2519 72.1694C57.5753 75.7182 60.0901 88.188 61.149 89.0498C69.473 95.8251 74.7932 100.96 80.1692 111.478C89.8231 115.089 97.0083 118.06 102.518 128.953C102.85 129.61 103.291 130.84 103.455 131.541C104.168 132.26 103.782 132.103 104.574 132.273L106.176 131.541C106.421 130.688 106.791 129.942 107.091 129.11C107.161 128.319 106.329 127.648 106.516 126.881C107.134 123.159 107.429 119.555 107.778 115.791C107.852 115.386 107.984 114.849 108.041 114.489C108.389 112.299 110.405 111.199 110.522 108.836C110.558 108.117 110.843 107.08 111.032 106.369L111.358 105.742L112.223 104.446C112.859 103.512 114.405 101.42 115.215 100.777C116.355 96.0863 116.066 95.7435 118.983 91.7929L119.336 91.7557C121.913 91.4636 122.978 90.3586 125.282 90.0765C128.499 89.6826 129.202 90.0573 131.7 91.8378C131.89 91.9726 134.538 92.8461 135.05 93.0328C137.07 93.7685 138.547 95.3112 140.215 96.6291C143.303 99.0677 147.363 105.889 147.69 110.055C148.087 115.06 146.059 122.063 143.226 126.071C140.961 129.275 136.817 131.456 135.012 133.676C134.735 135.005 134.17 136.545 134.511 137.689C135.077 138.215 135.228 138.169 135.95 138.323C136.612 138.555 138.555 139.211 138.964 139.657C141.11 141.99 145.221 146.45 146.612 149.069C148.525 152.674 148.164 159.524 147.811 163.658L147.801 165.777C147.71 167.408 147.726 170.377 147.589 171.719C147.7 175.873 147.279 181.76 146.049 185.686C145.101 190.974 144.112 192.386 142.511 197.262C141.82 199.373 141.057 204.171 140.376 206.822C142.172 209.412 143.19 210.923 141.344 214.141C142.023 218.849 151.276 217.023 145.493 227.977C140.249 228.129 141.029 229.071 136.576 230.701C132.148 232.319 131.633 230.617 127.27 234.67C125.445 236.536 124.353 237.671 122.091 238.795L121.751 238.968C121.683 239.001 121.614 239.033 121.546 239.065C120.246 237.914 119.427 237.963 117.758 237.609C116.575 239.665 115.292 238.76 115.541 241.586L114.406 242.283L112.96 243.326C112.058 244.02 110.929 244.944 109.995 245.525C110.009 248.038 109.877 249.867 109.357 252.347C109.191 253.331 108.641 255.584 108.697 256.357C105.294 258.361 101.868 260.317 98.4195 262.22C98.5721 259.323 97.5469 257.413 96.4694 254.803L94.4122 253.352C93.5244 252.928 92.8527 252.015 92.2267 251.226C92.367 244.69 91.6577 243.839 90.1663 237.714C88.324 230.152 85.295 223.158 83.2339 215.865C81.6395 212.165 81.1083 206.884 81.1341 202.812C80.3824 194.395 80.8491 182.951 81.1721 174.432L81.1208 170.099C75.8682 167.638 70.2852 165.822 65.2278 162.833C62.0876 160.977 59.2136 158.2 56.3092 155.877C52.7726 153.049 49.0092 150.321 45.5436 147.385C41.5182 143.974 37.6694 140.625 33.5398 137.316C30.7572 135.087 27.971 135.724 25.3205 134.128C21.8573 132.043 19.6078 128.487 16.4801 125.532C12.0896 121.383 5.68444 123.644 1.67684 119.738C1.22462 119.297 1.22125 118.548 1.2588 117.947C3.07199 115.9 11.2927 118.83 14.5437 117.904C14.135 116.318 11.5753 115.012 10.1794 114.104C7.39222 112.432 3.99568 110.704 1.49273 108.599C0.622236 107.867 0.574825 107.405 0.512492 106.356C2.10547 102.784 14.2421 110.843 17.0916 112.044L17.4095 112.175C15.4823 109.236 3.69075 99.3503 4.03443 97.4988C5.22453 91.0883 18.5397 105.571 20.4822 107.879C19.1813 104.14 12.5163 94.4618 12.5334 94.0719C12.9461 84.6381 26.1436 106.232 27.5691 107.974C27.9005 105.072 28.2432 102.842 30.9115 101.847C31.9955 103.071 31.6708 106.758 32.2193 107.693C33.5985 110.044 37.107 123.172 38.2641 123.913C45.6173 128.625 52.7528 133.21 60.8381 135.902C65.9879 137.537 72.0825 137.561 76.5366 139.703C76.5522 139.326 76.6018 138.59 76.3698 138.268C73.6707 134.534 69.0797 132.692 65.7874 129.776C58.6059 123.416 54.6182 114.247 49.7758 105.819C48.3197 103.285 45.9525 101.3 44.0248 99.2177C42.0611 97.0965 40.2066 94.8159 38.7238 92.2266C31.5199 78.862 28.8131 63.1774 23.4159 48.9088C22.7865 47.2447 21.8 45.2549 20.7599 43.8662C19.7609 42.6428 17.1193 41.6318 15.9573 40.5692C14.135 38.9025 12.9574 36.5984 10.7503 35.4153C8.85067 34.397 7.09235 34.2357 5.08518 33.3838L4.83176 33.2733C3.39978 32.9153 1.14641 31.7249 0.16424 30.307C-0.392665 28.134 0.487941 26.8952 2.48308 26.6426C6.61029 26.1204 9.26799 30.059 13.2559 28.7576L13.5745 28.6498C12.852 24.9616 4.04116 24.3091 3.82673 19.4262C3.8005 18.8283 3.84574 19.0106 4.20121 18.5624C5.67626 18.376 10.434 21.2199 12.253 22.0772C9.93464 17.5049 3.28113 11.38 3.46236 7.2844C3.92372 6.42956 3.60796 6.71973 4.43706 6.37606C5.85027 6.73134 9.40179 11.4108 11.1587 12.9741L11.4602 13.2391C10.9962 11.9887 10.5389 10.7351 10.0882 9.47851Z" fill="#C6714B"/>
<path d="M81.5428 169.796C82.4841 169.773 84.2222 169.811 85.0722 169.6C92.9262 167.65 100.612 171.067 108.494 171.036C111.281 171.025 114.297 170.243 117.116 169.805C117.948 172.08 118.895 174.521 120.056 176.614C123.176 182.298 128.928 187.788 134.803 189.467C139.777 190.888 142.348 187.759 146.049 185.686C145.101 190.974 144.112 192.386 142.511 197.262C141.821 199.373 141.058 204.171 140.377 206.822C142.172 209.412 143.19 210.923 141.344 214.141C142.023 218.849 151.276 217.023 145.493 227.977C140.249 228.129 141.029 229.072 136.576 230.701C132.148 232.319 131.633 230.617 127.27 234.67C125.445 236.537 124.354 237.671 122.091 238.795L121.751 238.968C121.683 239.001 121.614 239.033 121.546 239.065C120.246 237.914 119.427 237.963 117.758 237.609C116.575 239.665 115.292 238.76 115.541 241.586L114.406 242.283L112.96 243.326C112.058 244.02 110.929 244.944 109.996 245.525C110.009 248.038 109.877 249.867 109.358 252.347C109.191 253.331 108.641 255.584 108.697 256.357C105.294 258.361 101.868 260.318 98.4197 262.22C98.5723 259.323 97.547 257.413 96.4695 254.803L94.4123 253.352C93.5245 252.928 92.8528 252.015 92.2268 251.226C92.3671 244.69 91.6579 243.839 90.1665 237.714C88.3241 230.152 85.2951 223.158 83.234 215.865C81.6396 212.165 81.1084 206.884 81.1342 202.812C80.3826 194.395 80.8492 182.951 81.1722 174.432C81.3826 172.983 81.4478 171.278 81.5428 169.796Z" fill="#C6241E"/>
<path d="M81.1341 202.812C82.7779 209.022 85.5035 217.193 87.5826 223.288C90.7859 229.317 98.3248 244.15 103.063 247.927C103.889 247.527 103.934 247.552 104.636 246.86C104.687 246.63 104.739 246.401 104.79 246.171C103.838 242.907 92.6689 226.047 92.4202 224.363C93.0898 224.486 95.6895 229.358 96.9734 229.95C97.8649 230.36 97.9111 231.527 98.7958 232.26C102.653 235.456 108.091 241.962 112.625 243.237L112.96 243.326C112.058 244.02 110.929 244.944 109.995 245.525C110.009 248.038 109.877 249.867 109.357 252.347C109.191 253.331 108.641 255.584 108.697 256.357C105.294 258.361 101.868 260.317 98.4196 262.219C98.5722 259.323 97.547 257.413 96.4695 254.803L94.4123 253.352C93.5244 252.928 92.8527 252.015 92.2267 251.226C92.3671 244.69 91.6578 243.839 90.1664 237.714C88.3241 230.152 85.295 223.158 83.234 215.865C81.6395 212.165 81.1084 206.884 81.1341 202.812Z" fill="#9D1D19"/>
<path d="M104.282 249.159C106.18 247.935 108.084 246.722 109.996 245.525C110.009 248.038 109.877 249.867 109.358 252.347C109.191 253.331 108.641 255.584 108.697 256.357C105.294 258.361 101.868 260.318 98.4197 262.22C98.5722 259.323 97.547 257.413 96.4695 254.803L94.4123 253.352C95.2197 252.996 96.3872 253.86 97.1757 254.268C99.5222 252.528 101.891 250.823 104.282 249.159Z" fill="#34797D"/>
<path d="M107.415 221.613C107.648 222.234 108.253 222.28 108.756 222.431C109.117 222.866 109.323 223.199 109.722 223.589L110.419 223.53L109.962 223.959L110.086 224.479L109.379 223.801C109.917 223.561 110.03 224.014 110.419 223.53C115.768 226.435 123.647 228.264 129.556 228.037C131.029 227.98 133.482 230.308 135.008 229.281C136.36 229.629 136.81 229.473 138.059 229.795C138.468 229.43 134.847 231.194 135.16 230.721V230.822L140.5 228.425C139.255 230.31 136.596 229.543 134.245 231.164C134.495 231.672 130.822 230.777 131.346 230.993C131.797 230.704 131.78 231.219 132.262 230.822C132.25 231.724 133.049 229.554 133.482 230.308C136.738 231.257 140.531 226.729 143.89 227.523C144.307 227.621 144.314 227.488 144.759 227.213C144.949 226.826 146.928 222.256 146.903 222.173C146.037 219.024 140.432 217.732 141.099 214.059L141.344 214.141C142.023 218.849 151.276 217.023 145.493 227.977C140.249 228.129 141.029 229.071 136.576 230.701C132.148 232.319 131.633 230.617 127.27 234.67C126.822 234.208 126.565 233.681 126.439 233.097C126.264 232.265 123.308 231.789 122.409 231.5C116.167 229.498 111.815 225.563 106.623 221.975L107.415 221.613Z" fill="#9D1D19"/>
<path d="M106.923 233.351L107.543 232.203L108.169 232.605L109.026 232.324C111.385 233.818 114.531 235.964 116.927 237.177L117.758 237.609C116.575 239.665 115.292 238.76 115.541 241.586L114.406 242.283L114.831 241.343C114.447 239.06 108.83 234.983 106.923 233.351Z" fill="#9D1D19"/>
<path d="M105.288 229.293L105.599 229.561C106.323 230.198 105.685 229.617 106.21 230.163C107.019 231.006 108.147 231.508 109.026 232.324L108.169 232.605L107.543 232.203L106.923 233.351C106.135 232.681 105.518 232.073 104.775 231.341C105.509 230.222 105.361 230.603 105.288 229.293Z" fill="#9D1D19"/>
<path d="M106.623 221.975C105.054 220.322 104.368 220.086 102.759 217.987L102.856 218.087L103.907 218.417L103.277 218.493L103.183 218.503L103.907 218.417L103.356 218.734V218.712L103.907 218.417C104.909 219.344 106.821 220.766 107.415 221.725L106.623 221.975Z" fill="#9D1D19"/>
<path d="M131.806 210.424C133.164 210.896 136.858 217.982 136.921 219.158C135.595 221.266 130.355 217.224 128.921 216.506L128.488 216.296L128.456 216.067C128.663 215.878 128.918 215.644 129.224 215.364C131.896 215.544 133.044 219.29 135.327 219.242C136.013 218.848 135.833 219.138 136.102 218.511C134.521 215.432 133.852 213.491 131.806 210.424Z" fill="#9D1D19"/>
<path d="M118.983 91.7929L119.335 91.7556C121.913 91.4635 122.978 90.3585 125.282 90.0764C128.499 89.6825 129.202 90.0572 131.7 91.8377C131.89 91.9725 134.538 92.846 135.05 93.0327C137.07 93.7684 138.547 95.3111 140.215 96.629C143.303 99.0677 147.363 105.889 147.69 110.055C148.087 115.06 146.058 122.063 143.226 126.071C140.961 129.275 136.817 131.455 135.012 133.676C134.735 135.005 134.17 136.545 134.511 137.689C135.077 138.214 135.228 138.169 135.95 138.323C133.556 138.305 130.983 137.717 128.904 137.982L125.684 138.801C125.98 137.994 125.965 137.707 126.049 136.817L125.789 136.478L125.031 136.426C124.283 136.653 123.122 137.06 122.359 136.979C121.962 137.045 120.308 137.262 120.103 137.349C118.428 137.709 115.552 137.763 113.997 138.496L112.324 137.392C111.316 137.38 110.241 137.292 109.228 137.232C105.869 136.362 105.621 134.911 106.279 131.466L106.208 131.221C106.454 130.367 106.513 129.794 106.328 128.938C106.398 128.148 106.329 127.648 106.516 126.881C107.134 123.159 107.429 119.555 107.778 115.791C107.852 115.386 107.984 114.849 108.041 114.489C108.389 112.299 110.405 111.199 110.522 108.836C110.558 108.117 110.843 107.08 111.032 106.369L111.358 105.742L112.223 104.446C112.859 103.512 114.405 101.42 115.215 100.777C116.355 96.0863 116.066 95.7434 118.983 91.7929Z" fill="#D37C42"/>
<path d="M118.983 91.7929L119.335 91.7556C121.913 91.4635 122.978 90.3585 125.281 90.0764C128.499 89.6825 129.202 90.0572 131.7 91.8377C131.89 91.9725 134.538 92.846 135.05 93.0327C137.069 93.7684 138.547 95.3111 140.215 96.629C143.303 99.0677 147.363 105.889 147.69 110.055C148.087 115.06 146.058 122.063 143.226 126.071C140.961 129.275 136.817 131.455 135.012 133.676C134.819 132.784 134.665 130.936 134.554 129.956C136.884 128.994 141.914 124.391 139.854 121.08C138.181 118.389 135.163 121.669 133.695 121.479C132.569 120.593 132.295 119.836 132.03 118.336C132.838 116.089 133.079 114.544 133.31 112.19L132.02 109.3C134.745 103.547 134.364 103.092 128.547 100.606C125.556 99.3286 121.96 98.7026 118.802 98.135C117.622 99.0428 116.426 99.9239 115.214 100.777C116.354 96.0863 116.066 95.7434 118.983 91.7929Z" fill="#1A3750"/>
<path d="M132.03 118.336C132.295 119.837 132.569 120.593 133.696 121.479C135.164 121.669 138.182 118.389 139.854 121.08C141.914 124.391 136.885 128.994 134.555 129.956C134.666 130.937 134.82 132.784 135.012 133.676C134.735 135.005 134.17 136.545 134.512 137.689C135.077 138.215 135.229 138.169 135.951 138.323C133.556 138.305 130.983 137.717 128.904 137.982L125.684 138.801C125.98 137.994 125.965 137.707 126.05 136.817L125.79 136.478L125.032 136.426C124.283 136.653 123.123 137.06 122.359 136.979C121.962 137.045 120.309 137.262 120.103 137.349C118.428 137.709 115.552 137.763 113.997 138.496L112.324 137.392C119.667 135.252 119.042 127.663 123.397 122.239C125.672 121.251 131.109 120.686 132.03 118.336Z" fill="#B25A59"/>
<path d="M132.514 129.652C133.209 129.745 133.388 129.83 134.069 129.63L134.555 129.956C134.665 130.937 134.819 132.784 135.012 133.676C134.735 135.005 134.17 136.545 134.511 137.689C135.077 138.215 135.229 138.169 135.951 138.323C133.556 138.305 130.983 137.717 128.904 137.982L125.684 138.801C125.98 137.994 125.965 137.707 126.05 136.817L125.79 136.478L125.032 136.426C125.556 135.93 125.383 136.606 126.088 135.755C127.409 135.08 127.34 135.152 128.319 133.879C129.352 133.049 128.642 132.719 130.025 131.731C130.817 130.691 131.286 129.97 132.514 129.652Z" fill="#894A4D"/>
<path d="M111.271 120.505C113.272 121.172 114.281 122.021 115.334 124.094C115.664 125.699 116.068 126.879 115.415 128.384L114.935 128.719C113.074 127.919 109.478 127.615 108.692 126.715L108.94 125.262C109 124.053 108.983 123.543 109.278 122.399C109.422 121.184 109.195 121.673 109.906 120.84L109.964 120.203L111.271 120.505Z" fill="#894A4D"/>
<path d="M115.334 124.094C115.664 125.699 116.068 126.879 115.415 128.384L114.935 128.719C113.074 127.919 109.478 127.615 108.692 126.715L108.94 125.262L109.807 126.107C112.859 125.643 113.744 127.215 115.334 124.094Z" fill="#86494E"/>
<path d="M109.906 120.84C111.908 121.177 112.027 121.144 113.582 122.562L113.784 123.092L113.482 123.376C113.137 123.306 112.767 123.24 112.426 123.157L109.278 122.399C109.422 121.184 109.195 121.673 109.906 120.84Z" fill="#C6C6C2"/>
<path d="M107.779 115.792C108.425 116.095 109.058 116.217 109.291 117.073C109.681 117.363 110.213 117.69 110.487 118.071C110.363 119.511 110.339 119.389 111.272 120.505L109.964 120.204L109.907 120.84C109.195 121.673 109.422 121.184 109.278 122.399C108.983 123.543 109 124.053 108.941 125.262L108.692 126.715C108.041 126.953 107.476 127.104 106.815 127.291L106.516 126.881C107.134 123.159 107.429 119.555 107.779 115.792Z" fill="#D37C42"/>
<path d="M109.964 120.203C109.339 120.192 109.2 120.358 108.682 120.734C107.995 120.004 108.039 118.825 108.107 117.85C108.597 117.032 108.259 117.348 109.291 117.073C109.68 117.363 110.213 117.69 110.486 118.071C110.363 119.51 110.339 119.389 111.271 120.505L109.964 120.203Z" fill="#C6714B"/>
<path d="M107.778 115.792C107.852 115.386 107.984 114.849 108.041 114.489C108.389 112.299 110.405 111.199 110.522 108.836C110.558 108.117 110.843 107.08 111.033 106.369L111.722 107.712L112.668 107.2C113.098 108.119 113.459 108.591 113.325 109.586L111.833 110.331C111.019 110.981 110.867 111.075 110.233 111.914C110.089 112.904 110.393 113.289 110.919 114.117L110.893 115.254C110.175 114.477 110.417 114.487 109.671 114.474C109.189 115.291 109.375 114.842 109.296 115.986C109.83 116.62 110.069 116.714 110.737 117.121L110.841 118.027L110.486 118.071C110.213 117.69 109.68 117.363 109.291 117.074C109.058 116.217 108.425 116.095 107.778 115.792Z" fill="#B56254"/>
<path d="M111.722 107.712L112.668 107.2C113.098 108.119 113.459 108.591 113.325 109.586L111.833 110.331C111.212 108.897 111.34 108.987 111.722 107.712Z" fill="#9C534F"/>
<path d="M111.358 105.743L112.223 104.447C115.655 104.635 116.138 107.912 113.325 109.586C113.46 108.591 113.098 108.119 112.668 107.2L111.722 107.712L111.033 106.369L111.358 105.743Z" fill="#B25A59"/>
<path d="M111.358 105.742C113.186 105.741 113.131 105.303 114.648 106.753L114.584 107.241C113.728 107.639 113.688 107.591 112.668 107.2L111.722 107.712L111.033 106.369L111.358 105.742Z" fill="#BE664B"/>
<path d="M110.841 118.027L110.737 117.121C110.069 116.714 109.83 116.62 109.296 115.986C109.375 114.842 109.189 115.291 109.671 114.474C110.417 114.486 110.175 114.477 110.893 115.253L112.364 115.589L111.52 115.972L111.372 116.4C111.989 116.869 112.103 116.832 112.825 116.987L112.529 118.46C111.753 118.671 111.772 118.318 110.841 118.027Z" fill="#9C534F"/>
<path d="M112.364 115.589C113.862 115.153 114.437 115.331 115.232 117.087L115.098 117.648C113.914 118.151 113.803 117.395 112.825 116.987C112.103 116.832 111.989 116.869 111.372 116.4L111.52 115.972L112.364 115.589Z" fill="#894A4D"/>
<path d="M109.762 130.918C110.689 130.175 112.55 129.918 113.452 130.932C113.051 131.625 111.72 132.025 111.016 131.973C110.504 131.303 110.551 131.337 109.789 131.116L109.762 130.918Z" fill="#BE664B"/>
<path d="M117.698 106.376C120.595 104.208 125.162 104.815 127.123 108.173C127.575 108.945 127.77 109.102 127.778 109.992C127.186 109.595 127.109 109.372 126.697 108.749C126.103 109.16 126.115 109.104 125.845 109.819L125.407 109.697C125.458 109.031 125.484 109.048 125.746 108.435C123.944 107.461 122.633 107.111 120.757 107.809L120.784 108.597C121.373 108.782 121.514 108.761 121.846 108.82C123.394 109.092 125.66 112.827 126.514 114.231C125.761 113.608 123.893 112.188 123.482 111.357C122.732 111.309 121.78 111.458 121.01 111.547C120.407 111.884 119.855 112.134 119.328 112.589C118.83 113.016 118.85 112.966 118.213 112.996C116.432 111.968 115.51 108.412 117.282 107.102C117.562 106.819 117.516 106.787 117.698 106.376Z" fill="#BE664B"/>
<path d="M117.698 106.376C120.594 104.208 125.161 104.815 127.123 108.173C127.575 108.945 127.77 109.102 127.777 109.992C127.185 109.595 127.108 109.372 126.697 108.749C124.498 105.747 121.563 107.59 118.693 107.512C118.075 107.495 117.948 106.89 117.698 106.376Z" fill="#493D41"/>
<path d="M119.328 112.589C118.83 113.016 118.85 112.966 118.213 112.996C116.432 111.968 115.51 108.412 117.282 107.102C116.935 108.036 116.948 107.593 117.068 108.457C119.132 108.677 118.136 109.327 119.656 109.612C120.257 110.838 120.107 111.029 121.01 111.547C120.407 111.884 119.855 112.134 119.328 112.589Z" fill="#B56254"/>
<path d="M119.328 112.589C118.83 113.016 118.85 112.966 118.213 112.996C116.432 111.968 115.51 108.412 117.282 107.102C116.935 108.036 116.948 107.593 117.068 108.457C117.059 110.488 118.014 110.988 119.328 112.589Z" fill="#C6714B"/>
<path d="M119.655 109.612C121.476 109.182 122.835 108.895 123.482 111.357C122.732 111.309 121.78 111.458 121.01 111.547C120.107 111.029 120.257 110.838 119.655 109.612Z" fill="#894A4D"/>
<path d="M120.302 168.8C121.483 168.406 122.256 167.948 123.521 167.717C125.585 167.341 127.84 167.608 129.871 167.228L130.454 166.198L130.834 166.248C131.674 167.076 132.548 167.622 132.783 168.642C132.196 169.482 127.185 171.144 126.707 173.964C127.417 174.161 127.25 173.947 127.563 174.42L127.21 174.825C126.632 174.81 126.658 174.774 126.17 175.11C125.652 176.072 125.525 175.96 125.539 176.899C126.704 179.029 133.486 184.95 135.525 183.992L135.602 183.641C135.306 182.802 134.906 182.445 134.36 181.734L134.461 181.371C135.428 182.551 135.744 182.615 136.206 184.179C136.829 184.603 139.009 184.462 139.421 184.327C142.242 183.393 144.721 175.075 145.5 172.25C146.222 169.638 146.384 165.976 147.584 164.017L147.811 163.658L147.801 165.777C147.71 167.408 147.726 170.377 147.589 171.719C147.7 175.873 147.279 181.76 146.049 185.686C142.348 187.759 139.777 190.888 134.803 189.467C128.928 187.788 123.176 182.298 120.056 176.614C118.895 174.521 117.948 172.08 117.116 169.805C118.304 169.49 119.141 169.276 120.302 168.8Z" fill="#86494E"/>
<path d="M140.239 184.794C146.838 181.99 146.537 177.256 147.059 170.377H147.669V170.504L147.589 171.719C147.7 175.873 147.279 181.76 146.049 185.686C142.347 187.759 139.777 190.888 134.802 189.467C128.928 187.788 123.176 182.298 120.056 176.614L120.294 175.959C121.228 175.682 123.254 176.184 124.393 176.359C128.129 181.112 134.119 186.917 140.239 184.794Z" fill="#4D9693"/>
<path d="M120.302 168.8C121.564 171.344 122.834 174.042 124.393 176.359C123.254 176.184 121.228 175.682 120.294 175.959L120.056 176.614C118.895 174.521 117.948 172.08 117.116 169.805C118.304 169.49 119.141 169.276 120.302 168.8Z" fill="#34797D"/>
<path d="M140.239 184.794C145.565 178.955 146.188 167.76 147.801 165.777C147.709 167.408 147.807 169.035 147.669 170.377L147.243 170.179L147.606 170.347L147.517 170.719C146.995 177.598 146.838 181.99 140.239 184.794Z" fill="#894A4D"/>
<path d="M105.932 131.481L106.208 131.221L106.279 131.466C105.621 134.911 105.87 136.363 109.228 137.233C110.241 137.293 111.316 137.38 112.324 137.392L113.997 138.496C115.552 137.763 118.428 137.709 120.103 137.349C120.309 137.262 121.962 137.045 122.359 136.979C123.123 137.06 124.283 136.654 125.032 136.426L125.79 136.478L126.05 136.817C125.965 137.707 125.98 137.994 125.684 138.801C124.786 139.198 123.312 139.788 122.488 140.247C119.797 141.613 116.611 143.311 114.063 145.009L112.938 145.819C112.569 146.191 112.713 146.059 112.184 146.221L111.961 145.835C110.586 145.972 109.097 145.509 107.716 145.194C106.339 144.668 101.991 144.606 100.336 144.567C101.65 142.697 105.765 135.97 104.923 133.616C105.572 132.679 105.588 132.62 105.932 131.481Z" fill="#86494E"/>
<path d="M107.715 145.194C108.328 143.96 108.281 141.531 109.397 140.693C110.337 141.303 110.624 142.542 111.07 143.749L111.961 145.835C110.586 145.972 109.097 145.509 107.715 145.194Z" fill="#9C534F"/>
<path d="M114.063 145.009C114.392 144.004 114.998 143.935 115.656 143.11C115.335 142.243 115.204 142.184 115.23 141.297C115.921 141.028 115.563 141.076 116.347 141.254L116.725 142.138C117.764 141.906 120.454 140.616 121.58 140.109L121.481 140.039C122.045 139.827 121.742 139.876 122.488 140.247C119.797 141.613 116.611 143.311 114.063 145.009Z" fill="#894A4D"/>
<path d="M109.228 137.232C110.241 137.292 111.316 137.38 112.324 137.392L113.997 138.496C110.739 138.642 112.459 140.281 109.228 137.232Z" fill="#894A4D"/>
<path d="M111.071 143.749C111.711 143.437 111.718 143.361 112.398 143.396C113.109 144.232 112.627 144.669 112.938 145.818C112.569 146.19 112.714 146.059 112.184 146.221L111.961 145.835L111.071 143.749Z" fill="#894A4D"/>
<path d="M12.2531 22.0772C9.93475 17.505 3.28124 11.3801 3.46246 7.28444C3.92382 6.42959 3.60807 6.71976 4.43717 6.3761C5.85037 6.73138 9.4019 11.4109 11.1588 12.9741L11.4603 13.2391C10.9963 11.9888 10.5391 10.7351 10.0883 9.47854C12.4326 10.104 14.8518 19.5618 15.3962 22.1588C15.7377 23.7866 15.9223 28.7065 13.5746 28.6498C12.8521 24.9616 4.04127 24.3091 3.82684 19.4262C3.8006 18.8283 3.84585 19.0107 4.20131 18.5625C5.67637 18.376 10.4341 21.2199 12.2531 22.0772Z" fill="#B25A59"/>
<path d="M104.923 133.616C105.765 135.97 101.649 142.697 100.336 144.567C98.7166 144.971 93.0951 146.477 91.7531 146.483C95.9092 140.531 99.4162 137.66 104.923 133.616Z" fill="#AD231D"/>
<path d="M105.253 131.544L105.932 131.481C105.588 132.62 105.572 132.679 104.923 133.616C99.416 137.66 95.909 140.531 91.7529 146.483C90.8331 147.222 90.5496 147.412 89.4536 147.193C89.2173 146.852 89.0185 146.736 89.121 146.402C89.9308 143.768 95.1851 138.752 97.0084 137.203L100.605 134.329C101.656 133.573 102.814 132.728 103.455 131.541C104.168 132.26 103.782 132.103 104.574 132.273L105.253 131.544Z" fill="#708B88"/>
<path d="M97.0087 137.202C95.7895 135.881 93.4866 132.702 92.2623 131.121L92.4173 130.852C94.4127 131.118 98.8239 133.023 100.605 134.329L97.0087 137.202Z" fill="#B25A59"/>
<path d="M27.5691 107.974C27.9005 105.072 28.2432 102.842 30.9115 101.847C28.3582 106.605 30.2737 108.878 32.187 113.598C31.1663 112.576 27.6954 109.287 27.5691 107.974Z" fill="#B56254"/>
<path d="M10.1795 114.104C12.8449 111.42 16.9456 116.3 19.0351 118.271C18.2597 118.205 15.131 117.855 14.5437 117.904C14.1351 116.318 11.5753 115.012 10.1795 114.104Z" fill="#B25A59"/>
<path d="M82.9878 123.973C83.8137 126.223 85.5882 136.352 85.1292 138.509C84.4481 138.504 83.9711 137.997 83.3788 137.543C83.8289 136.496 83.582 127.523 82.9878 126.269V123.973Z" fill="#B25A59"/>
<path d="M26.4745 129.771C32.3023 130.542 43.9047 140.989 50.2099 142.707C50.1526 142.691 50.5514 142.172 50.9293 142.095C57.4271 148.531 62.1945 153.396 70.5399 156.798C71.1281 157.037 73.3167 158.12 73.6288 158.6L72.818 158.781L72.8989 159.109C74.6538 160.505 79.6552 163.565 81.7324 164.119C84.9951 164.864 88.2648 163.41 91.4616 162.897C100.246 161.489 108.954 163.586 117.729 163.901C117.982 163.91 119.621 163.487 120.047 163.419L120.323 163.677L120.094 163.93C119.058 164.291 118.268 164.194 117.182 164.181L116.733 165.128L116.442 165.063L116.43 164.164C116.11 164.757 116.273 164.483 115.947 164.99L115.739 164.778L115.932 164.278C115.617 163.95 114.449 164.091 113.881 164.094C113.654 164.527 113.611 164.574 113.334 164.965C113.109 164.602 112.946 164.237 112.794 163.829C111.148 163.735 108.448 163.68 106.932 163.278C104.576 163.269 100.306 162.506 97.8376 162.763C97.608 162.963 97.3782 163.162 97.1486 163.362C96.4976 162.925 96.4439 162.917 95.7147 162.653L95.4591 162.803C96.0629 162.984 96.4971 163.041 96.9698 163.495L96.7633 163.75C95.8456 164.025 95.7106 163.207 94.2861 162.78C93.6639 163.321 93.5359 163.604 93.0938 164.313L92.4914 164.278C91.8987 163.646 91.8399 163.482 91.0604 163.188C90.2758 163.352 89.8544 163.381 89.1469 163.82L89.0032 164.426C89.5856 165.009 89.2309 164.806 90.2003 164.807C90.7278 164.43 90.8951 164.252 91.5011 164.076L91.895 164.35L91.9357 164.634C91.5547 165.545 91.826 165.163 91.0315 165.76C89.7492 165.59 89.5074 165.362 88.5531 164.443L88.2111 164.111C87.1178 164.219 86.8723 164.31 85.804 164.667L86.1768 165.116L86.0526 165.362C84.5819 164.977 82.9172 164.671 81.419 164.361C81.2655 164.815 81.1148 165.27 80.9673 165.726C80.305 165.877 80.651 165.872 79.886 165.403C79.7437 164.664 79.7832 164.771 79.9473 164.037C79.1642 163.052 78.3091 162.973 77.1912 162.945C76.4247 162.926 77.1936 162.82 76.655 162.168L76.3351 163.041L76.0382 163.077C75.4132 158.458 69.6662 159.763 67.8935 158.096C68.2733 157.523 69.1902 158.04 70.4872 157.677L70.407 157.296C68.9091 156.11 66.893 155.585 65.212 154.629C61.509 152.523 58.0959 149.649 54.903 146.697C53.8847 145.756 51.6337 143.036 50.6402 142.606L49.8417 143.036C48.5327 142.96 36.2767 135.303 34.4431 133.968C31.8713 132.096 29.2552 131.191 26.4745 129.771Z" fill="#B25A59"/>
<path d="M45.2151 70.5349C47.0834 75.6064 55.6071 84.766 56.539 89.5433C54.0471 89.0637 51.7547 87.4313 50.0725 85.372C47.9866 82.8185 44.9732 73.5571 45.2151 70.5349Z" fill="#B25A59"/>
<path d="M78.6844 151.65C79.9472 150.242 79.9686 149.847 81.661 150.134C85.1425 151.647 89.1221 153.243 92.4092 155.17C86.1494 157.967 83.453 157.014 78.6844 151.65Z" fill="#B25A59"/>
<path d="M71.6462 144.713C73.4055 145.756 74.4307 146.698 76.3866 147.394C77.3394 147.841 78.2848 148.308 79.2222 148.794L81.6611 150.134C79.9687 149.847 79.9473 150.242 78.6845 151.65L77.9808 151.037C77.1503 150.184 76.4908 149.433 75.713 148.518C74.3294 147.288 72.9733 146.019 71.6462 144.713Z" fill="#B56254"/>
<path d="M23.5059 109.432C24.0873 109.886 25.1932 110.814 25.4341 111.535L25.1434 111.985C24.2647 111.193 23.7947 110.776 23.0243 109.869L23.5059 109.432Z" fill="#BE664B"/>
<path d="M127.269 234.67C131.633 230.617 132.148 232.319 136.576 230.701C141.028 229.071 140.249 228.129 145.493 227.977C146.205 229.774 146.918 231.055 148.058 232.576C150.607 233.475 155.485 234.948 156.831 237.587C159.237 245.671 159.656 241.77 164.506 247.036C165.885 248.532 165.555 253.768 167.114 255.857C168.647 257.908 170.775 258.061 172.354 259.861C173.836 261.552 174.647 264.635 175.896 266.337C179.639 271.441 184.279 277.152 187.528 282.631C188.938 284.42 189.771 286.009 190.89 288.035C188.953 288.127 187.898 288.157 186.041 287.624L186.933 289.34C184.604 290.34 183.509 290.426 181.978 292.677C181.516 291.377 181.205 290.337 180.832 289.018C180.876 290.096 181.02 291.115 180.63 292.077C179.468 293.247 177.145 294.595 175.701 295.476C172.606 297.364 166.965 301.771 165.076 305.148C163.991 306.329 163.425 307.215 162.573 308.598C161.24 308.142 159.365 305.143 158.655 303.759C156.797 307.169 155.418 311.154 154.051 314.861C152.506 312.421 151.245 310.298 149.447 308.077C149.813 310.462 150.328 313.345 150.576 315.712C150.973 317.538 151.43 319.775 151.553 321.648L151.584 322.815C151.274 323.304 150.884 323.963 150.537 324.395C149.49 327.7 150.532 329.205 150.47 332.39C146.999 330.561 137.989 328.594 134.011 328.586C133.861 329.124 133.729 329.675 133.522 330.183C132.766 330.323 132.367 330.396 131.611 330.318C128.02 329.953 116.915 333.411 116.174 337.742L116.097 337.58C114.279 337.561 113.491 337.48 112.213 336.094L112.01 335.448C111.33 333.525 110.991 332.385 110.502 330.391C106.85 318.603 104.967 307.58 102.856 295.387C102.221 291.717 100.759 288.181 99.9565 284.579C99.4068 282.423 100.427 278.174 99.7999 276.177C98.0613 270.636 92.5743 268.015 98.4194 262.22C101.868 260.317 105.294 258.361 108.697 256.357C108.641 255.584 109.19 253.331 109.357 252.347C109.877 249.867 110.009 248.038 109.995 245.525C110.929 244.944 112.058 244.02 112.96 243.326L114.406 242.283L115.541 241.586C115.292 238.76 116.575 239.665 117.758 237.609C119.427 237.963 120.246 237.914 121.545 239.065C121.614 239.033 121.683 239 121.751 238.968L122.091 238.795C124.353 237.671 125.445 236.536 127.269 234.67Z" fill="#C6241E"/>
<path d="M127.27 234.67C131.633 230.617 132.148 232.319 136.576 230.701C141.029 229.071 140.249 228.129 145.493 227.977C146.205 229.774 146.918 231.055 148.058 232.576C150.607 233.475 155.485 234.948 156.831 237.587C159.237 245.671 159.656 241.77 164.506 247.036C165.885 248.532 165.555 253.768 167.115 255.857C168.648 257.908 170.775 258.061 172.354 259.861C173.836 261.552 174.647 264.635 175.896 266.337C179.639 271.441 184.279 277.152 187.528 282.631C188.938 284.42 189.771 286.009 190.89 288.035C188.953 288.127 187.899 288.157 186.041 287.624L186.934 289.34C184.604 290.34 183.509 290.426 181.978 292.677C181.516 291.377 181.206 290.337 180.833 289.018C180.876 290.096 181.02 291.115 180.63 292.077C179.468 293.247 177.146 294.595 175.702 295.476C172.607 297.364 166.965 301.771 165.076 305.148C163.991 306.329 163.425 307.215 162.573 308.598C161.24 308.142 159.365 305.143 158.655 303.759L158.763 303.503C163.081 297.286 168.508 293.625 174.101 289.154C174.785 288.61 175.451 287.908 175.331 286.857C174.955 284.517 175.326 280.197 174.467 278.109C171.743 271.495 166.186 263.881 161.938 258.61L161.021 255.981C160.922 255.622 160.816 255.268 160.701 254.917C158.573 248.357 155.931 248.857 153.437 244.42C150.15 238.574 152.768 238.433 145.967 234.856C141.784 236.688 133.934 241.229 129.811 243.877C128.807 244.434 127.845 244.955 126.87 245.579C125.862 246.017 122.325 247.454 121.606 247.965C118.488 250.605 115.935 252.785 112.253 254.479L112.059 254.425L111.735 254.328C110.273 253.898 109.768 254.03 109.357 252.347C109.877 249.867 110.009 248.038 109.995 245.525C110.929 244.944 112.058 244.02 112.96 243.326L114.406 242.283L115.541 241.586C115.292 238.76 116.575 239.665 117.758 237.609C119.427 237.963 120.246 237.914 121.546 239.065C121.614 239.033 121.683 239 121.751 238.968L122.091 238.795C124.353 237.671 125.445 236.536 127.27 234.67Z" fill="#4D9693"/>
<path d="M156.831 237.587C159.238 245.671 159.656 241.77 164.506 247.036C165.885 248.532 165.555 253.768 167.115 255.857C168.648 257.908 170.775 258.061 172.354 259.861C173.837 261.552 174.648 264.635 175.897 266.337C179.639 271.441 184.279 277.152 187.528 282.631C186.082 282.707 184.905 282.234 183.62 281.567C175.853 277.533 173.247 269.466 168.501 262.187C167.348 260.417 164.862 258.686 163.731 256.424C162.771 254.501 161.909 250.713 160.8 249.159C157.113 244.001 156.03 246.182 153.902 239.519L154.018 239.136C153.88 238.547 153.888 238.59 154.039 238.001C155.334 237.963 155.534 238.052 156.831 237.587Z" fill="#C6241E"/>
<path d="M180.219 283.923C182.142 285.193 184.082 286.428 186.041 287.624L186.934 289.34C184.604 290.34 183.509 290.426 181.978 292.677C181.516 291.377 181.206 290.337 180.833 289.019L180.219 283.923Z" fill="#9C534F"/>
<path d="M85.7337 144.007V145.548L84.6658 144.863L83.9031 144.349L82.8352 143.836L81.4623 142.979L80.547 142.295L79.7842 141.781L78.8689 141.267L77.6485 140.753C77.3434 140.639 76.7027 140.411 76.5806 140.411C76.4586 140.411 76.5298 139.84 76.5806 139.555V138.87L76.4281 138.185L76.123 137.671L75.6653 137.158L74.4449 136.301L73.2245 135.445L72.1566 134.589L71.0888 133.733L70.0209 133.048L69.1056 132.534L68.0378 131.849L66.8174 130.993L65.4444 129.623L64.0714 128.425L62.6985 126.712L61.3255 125.171L59.6475 123.116L58.122 120.89L56.9015 118.836L55.5286 116.61L54.7658 114.897L53.3929 112.5L52.325 110.445L51.2572 108.39L49.274 105.308L47.4434 102.911L43.9347 99.6576L41.0362 96.2329L38.2903 91.9521L36.7648 88.3562L34.9342 84.4179L33.1036 79.7946L31.4255 74.1439L29.4424 67.9795L26.849 58.9042L26.3913 57.5343L25.9337 56.1644L25.476 54.7946L25.0184 53.4247L24.7133 52.0548L24.1031 50.685L23.4929 49.1439L22.7301 47.2603L22.2725 46.2329L21.6623 45.0343L21.2046 44.3494L20.1367 43.322L19.2214 42.8083L18.7638 42.637L18.1536 42.2946L17.2383 41.7809L15.8653 40.5822L14.7975 39.5548L13.8822 38.5274L12.8143 37.3288L12.0515 36.4726L10.8311 35.6165L9.76327 35.1028L8.69542 34.7603L7.62756 34.4179L6.40715 34.0754L5.18674 33.5617L4.11889 33.2192L2.74593 32.5343L1.83062 32.0206L0.915314 31.1644H1.52552H1.83062H2.89848L3.66123 31.3357L4.57654 31.5069L5.49185 31.6781H6.10205L6.8648 31.8494L7.62756 32.1918L8.69542 32.3631H9.61072H10.8311L11.4413 32.5343L12.3566 32.8768L13.2719 33.2192L13.8822 33.5617L14.4924 34.0754L15.2551 34.5891L16.1704 35.4453L16.9332 35.9589L17.8485 36.6439L18.4587 36.9863L19.0689 37.3288L20.1367 37.8425L20.7469 38.3562C20.9503 38.4704 21.3877 38.6987 21.5097 38.6987H21.9674H22.425L23.4929 38.8699L23.9505 39.0411L24.7133 39.5548L25.3235 40.2398L25.9337 41.0959L26.5439 42.1233L27.1541 43.322L28.0694 45.3768L30.2051 49.1439L30.6628 50.1713L31.1204 51.0274L31.5781 52.0548V52.5685H31.273L30.8153 52.0548L30.3577 51.5411L30.0526 51.1987L29.5949 50.5137L29.2898 50L28.6796 49.1439L28.0694 48.2877L27.6117 47.6028L27.1541 46.7466L26.6964 46.0617L26.0862 45.3768L25.6286 44.6918L25.3235 44.1781L24.8658 44.0069L24.5607 43.8357L24.2556 44.0069V44.3494L24.7133 45.0343L25.0184 45.8905L25.6286 46.9179L26.2388 47.774L26.6964 48.6302L27.3066 49.6576L27.9168 50.8562L28.6796 52.2261L29.2898 53.4247L29.7475 54.4521L30.3577 55.6507L30.9679 57.0206L31.7306 58.9042L32.1883 59.9316L32.6459 61.1302L33.1036 62.5L33.7138 63.8699L34.324 65.2398L35.2393 67.1233L35.8495 68.8357L36.4597 70.548L37.0699 71.9179L37.6801 73.2877L38.2903 74.8288L38.5954 76.1987L39.0531 77.911L39.5107 79.2809L40.1209 80.6507L40.426 81.8494L40.8837 83.3905L41.3413 84.7603L41.9515 85.959L42.5617 87.1576L43.172 88.0137L43.6296 88.8699L44.2398 89.3836L44.85 89.8973L45.7653 90.7535L46.5281 91.6096L47.1383 92.2946L47.901 93.1507L48.6638 93.8357L49.4265 94.6918L50.0367 95.3768L50.7995 96.2329L51.5623 97.4316L52.325 98.2877L52.9352 98.9726L53.698 100L54.7658 101.712L55.6811 102.911L56.2913 103.596L56.5964 103.767L56.749 103.082V101.884V101.027L56.5964 100.171V98.8014L57.0541 99.4864L57.5117 100.685L58.122 101.712L58.7322 102.911L59.6475 104.11L60.4102 105.651L61.173 106.849L62.3934 108.904L63.3087 110.445L64.5291 112.158L65.7495 113.699L66.6648 114.897L67.7327 115.925L68.4954 116.781L70.0209 118.493L71.3939 119.692L72.7669 121.062L74.1398 122.26L75.0551 123.288L75.9704 123.973L77.0383 124.829L77.801 125.514L78.8689 126.027L79.7842 126.541L80.6995 127.397L81.4623 128.082L82.5301 129.11L83.2929 130.308L83.7505 132.192L84.3607 133.733L84.8184 135.788V136.986L85.1235 138.356V140.24L85.4286 142.295L85.7337 144.007Z" fill="#B25A59"/>
<path d="M148.058 232.576C150.607 233.475 155.485 234.948 156.831 237.587C155.533 238.052 155.334 237.963 154.039 238.001C153.887 238.59 153.88 238.547 154.017 239.136L153.902 239.519C153.895 239.511 153.521 239.014 153.512 238.998C152.426 236.809 148.619 234.707 148.058 232.576Z" fill="#932D29"/>
<path d="M117.758 237.609C119.427 237.963 120.246 237.914 121.546 239.065C119.345 239.895 117.678 240.565 115.541 241.586C115.292 238.76 116.575 239.665 117.758 237.609Z" fill="#9D1D19"/>
<path d="M138.713 284.844C139.238 285.112 149.31 268.349 149.591 268.836C150.619 269.076 140.976 285.755 141.556 286.849C140.971 288.281 139.842 290.248 140.424 291.75C142.843 292.779 145.803 289 151.144 291.718C153.447 294.738 155.647 301.968 158.763 303.503L158.655 303.759C156.797 307.169 155.418 311.154 154.051 314.861C152.506 312.421 151.245 310.298 149.447 308.077C149.813 310.462 150.328 313.345 150.576 315.712C150.321 316.379 150.234 317.036 149.591 317.114C147.517 317.371 145.799 316.93 143.635 317.041C142.314 317.044 141.31 317.012 139.994 317.247L138.569 317.33C138.552 312.948 137.469 311.611 135.399 307.944C134.956 308.69 133 310.303 132.037 311.511C131.315 312.759 128.612 316.468 127.185 316.274L127.029 315.704C127.609 313.083 129.712 311.457 131.277 309.401L131.464 309.152C133.496 307.266 135.857 302.344 132.263 301.203C132.064 301.244 128.547 303.141 128.319 303.354L128.141 302.622L127.604 302.592C128.644 301.13 129.546 301.522 130.68 300.66C130.892 299.831 131.074 299.474 131.525 298.783L131.229 298.277C131.022 297.48 131.043 297.488 130.644 296.802C129.924 296.727 129.777 297.005 129.005 297.448C129.063 296.613 129.32 296.489 129.782 295.673C129.691 295.084 128.745 293.668 128.367 293.001L128.071 294.092C124.894 293.079 111.527 293.441 109.921 292.107C112.443 292.025 117.26 291.28 120.282 291.031L120.751 291.645C122.038 291.296 122.692 291.355 124.015 291.509C124.99 291.947 133.267 293.844 134.482 293.279C136.165 292.496 137.842 287.043 138.713 284.844Z" fill="#9D1D19"/>
<path d="M143.635 317.041C145.799 316.931 147.517 317.371 149.591 317.114C150.234 317.036 150.321 316.379 150.576 315.712C150.973 317.538 151.43 319.776 151.553 321.648L151.584 322.815C151.274 323.304 150.884 323.963 150.537 324.396C149.49 327.7 150.533 329.205 150.47 332.39C146.999 330.561 137.989 328.594 134.011 328.586C133.861 329.124 133.729 329.675 133.522 330.183C132.766 330.323 132.367 330.396 131.611 330.318C128.02 329.953 116.916 333.411 116.174 337.742L116.097 337.58C114.279 337.561 113.492 337.48 112.213 336.094L112.01 335.449C111.33 333.525 110.991 332.385 110.502 330.391C120.942 322.494 124.498 319.635 137.431 317.544L138.569 317.33L139.994 317.247C141.31 317.012 142.314 317.044 143.635 317.041Z" fill="#86494E"/>
<path d="M110.502 330.391C120.942 322.493 124.498 319.635 137.431 317.544L137.64 318.546C138.867 319.084 138.222 317.509 138.846 318.76C138.696 319.692 138.559 319.449 138.867 319.954C134.74 320.292 128.215 322.113 124.543 324.179C124.066 324.717 123.764 325.06 123.227 325.544C123.628 326.419 123.629 326.514 123.612 327.503C120.88 329.256 115.76 332.698 113.858 335.311C113.179 335.805 113.029 335.983 112.213 336.094L112.01 335.448C111.33 333.525 110.991 332.385 110.502 330.391Z" fill="#4D9693"/>
<path d="M112.01 335.448L112.042 335.23C112.084 334.967 112.223 333.811 112.314 333.671C114.867 329.686 120.667 325.973 124.543 324.179C124.066 324.717 123.764 325.06 123.227 325.544C123.628 326.419 123.629 326.514 123.612 327.502C120.88 329.256 115.76 332.698 113.858 335.311C113.179 335.805 113.03 335.983 112.214 336.094L112.01 335.448Z" fill="#9D1D19"/>
<path d="M143.635 317.041C145.799 316.931 147.517 317.371 149.592 317.114C150.234 317.036 150.321 316.379 150.576 315.712C150.973 317.538 151.43 319.776 151.553 321.648L151.584 322.815C149.88 323.223 146.422 322.583 144.506 322.472C136.078 321.986 131.065 323.593 123.612 327.503C123.629 326.514 123.628 326.419 123.227 325.544C123.764 325.06 124.066 324.717 124.543 324.179C128.215 322.113 134.74 320.292 138.867 319.954C138.559 319.449 138.697 319.692 138.846 318.76C138.222 317.509 138.867 319.084 137.64 318.546L137.431 317.544L138.569 317.33L139.994 317.247C141.31 317.012 142.314 317.044 143.635 317.041Z" fill="#9D1D19"/>
<path d="M139.994 317.247C141.31 317.012 142.314 317.044 143.635 317.041C144.285 317.355 150.421 316.824 150.873 317.295L151.178 318.836V319.178L151.284 319.481L151.331 319.863L146.833 319.77L143.842 319.759C142.927 317.128 142.292 317.363 139.994 317.247Z" fill="#34797D"/>
<path d="M138.569 317.33L139.994 317.247C142.292 317.363 142.928 317.128 143.842 319.759L138.867 319.954C138.559 319.449 138.697 319.692 138.846 318.76C138.222 317.509 138.867 319.084 137.64 318.546L137.431 317.544L138.569 317.33Z" fill="#438482"/>
<path d="M120.515 330.822L115.984 334.011L115.367 334.37C114.817 334.743 114.45 335.022 113.858 335.311C113.179 335.805 113.029 335.983 112.213 336.094C113.491 337.48 114.279 337.561 116.097 337.58L116.174 337.742C116.915 333.411 128.02 329.953 131.611 330.318C132.367 330.396 132.766 330.323 133.522 330.183C133.729 329.675 133.861 329.124 134.011 328.586C131.561 328.073 127.091 327.892 124.706 329.218C124.062 329.577 123.566 329.794 122.547 330.515C122.041 330.822 120.893 330.427 120.515 330.822Z" fill="#B25A59"/>
<path d="M115.367 334.37C115.838 335.513 116.003 336.305 116.097 337.58C114.279 337.561 113.491 337.48 112.213 336.094C113.029 335.983 113.179 335.805 113.858 335.311C114.45 335.022 114.817 334.743 115.367 334.37Z" fill="#5E5050"/>
<path d="M123.612 327.503C131.065 323.593 136.078 321.986 144.506 322.472C146.422 322.583 149.88 323.223 151.584 322.815C151.274 323.304 150.884 323.963 150.537 324.396C148.896 322.785 149.589 323.677 147.897 323.423C139.407 322.15 131.838 323.828 124.153 328.281C122.056 329.494 118.022 333.014 115.984 334.011L115.367 334.37C114.817 334.743 114.451 335.022 113.858 335.311C115.76 332.698 120.88 329.256 123.612 327.503Z" fill="#84746C"/>
<path d="M138.713 284.844C139.24 282.872 143.279 276.925 144.538 275.094L144.838 275.664L145.695 275.396C145.854 275.569 146.299 276.074 146.458 276.199C145.334 277.903 143.252 282.961 142.304 284.928L142.275 285.347C142.138 285.649 141.717 286.649 141.556 286.849C140.976 285.755 140.372 285.622 139.344 285.382C139.062 284.896 139.238 285.112 138.713 284.844Z" fill="#9D1D19"/>
<path d="M140.181 268.323C140.6 266.788 142.145 263.884 143.272 262.938C143.163 264.205 142.959 264.276 143.404 265.175C144.003 265.319 143.96 265.308 144.535 265.065C145.741 264.702 146.095 264.67 147.113 263.927C147.765 264.478 147.512 264.132 147.83 265.056C147.173 265.356 145.917 266.159 145.633 266.829C143.977 267.574 143.183 268.858 142.049 270.398C141.05 269.539 141.695 269.214 140.181 268.323Z" fill="#9D1D19"/>
<path d="M128.071 294.092L128.367 293.001C128.745 293.668 129.691 295.084 129.782 295.673C129.32 296.489 129.062 296.613 129.005 297.448C129.777 297.005 129.924 296.727 130.644 296.802C131.043 297.488 131.021 297.48 131.228 298.277C127.527 297.256 124.237 298.218 120.764 299.858C118.854 300.76 117.872 301.738 115.686 302.365L115.561 302.214C117.746 300.782 117.663 300.496 119.506 298.448C121.171 299.139 123.903 297.018 125.696 296.751C126.949 296.564 129.05 297.145 129.488 295.668C129.099 294.789 128.786 294.649 128.071 294.092Z" fill="#9D1D19"/>
<path d="M142.059 270.533C137.984 275.469 137.633 277.401 134.514 282.688C134.701 281.416 139.262 269.504 140.181 268.323C141.695 269.214 141.05 269.539 142.049 270.398L142.059 270.533Z" fill="#9D1D19"/>
<path d="M126.87 245.579C127.845 244.955 128.808 244.434 129.811 243.877C129.445 244.347 129.229 244.599 128.767 244.944L128.906 245.371C130.885 246.301 133.922 246.239 136.122 246.317C132.952 247.849 131.407 248.095 128.03 248.703L127.258 248.108C128.141 247.922 128.865 247.946 129.291 247.011C128.709 246.306 127.871 246.187 127.053 245.69L126.87 245.579Z" fill="#9D1D19"/>
<path d="M121.606 247.965C122.325 247.454 125.862 246.017 126.87 245.579L127.053 245.69C127.871 246.187 128.709 246.306 129.291 247.011C128.865 247.946 128.141 247.922 127.258 248.108C125.262 248.043 124.068 248.792 122.172 248.7L121.606 247.965Z" fill="#9D1D19"/>
<path d="M161.021 255.981L161.938 258.61C158.373 259.25 158.443 259.526 155.329 260.801C154.491 260.744 153.656 260.663 152.821 260.555C154.855 258.929 159.89 258.251 161.021 255.981Z" fill="#9D1D19"/>
<path d="M147.113 263.927C148.451 262.579 151.062 261.02 152.821 260.555C153.656 260.663 154.492 260.744 155.329 260.801C154.345 261.396 154.662 261.15 153.926 261.439C152.434 262.025 149.741 264.124 148.4 265.148L147.83 265.056C147.512 264.132 147.765 264.478 147.113 263.927Z" fill="#9D1D19"/>
<path d="M144.538 275.093C146.16 272.632 147.787 270.884 149.969 269.023L150.379 269.252L150.458 268.925L150.549 269.039C150.251 269.558 149.953 270.044 149.64 270.552C148.677 271.919 148.533 272.186 147.914 273.786C147.464 274.526 146.862 275.456 146.458 276.199C146.299 276.074 145.854 275.569 145.695 275.396L144.838 275.664L144.538 275.093Z" fill="#9D1D19"/>
<path d="M144.266 261.314C144.947 260.353 147.917 256.851 148.677 256.562L148.889 256.794C148.518 258.434 146.09 260.255 144.932 261.893C145.339 262.084 145.277 261.998 145.796 261.936C145.818 262.546 145.893 262.282 145.626 262.741C144.892 263.762 144.783 263.827 144.535 265.064C143.96 265.308 144.003 265.318 143.404 265.175C142.959 264.276 143.164 264.205 143.272 262.938C143.599 262.392 143.929 261.852 144.266 261.314Z" fill="#9D1D19"/>
<path d="M142.049 270.398C143.183 268.858 143.977 267.574 145.633 266.829C145.195 269.296 144.708 268.085 144.615 269.495L145.589 269.893L145.546 270.363L145.144 270.587L144.042 270.122C143.669 270.565 143.77 270.376 143.585 270.968L143.289 271.184C142.841 270.854 142.593 270.63 142.059 270.533L142.049 270.398Z" fill="#C6241E"/>
<path d="M108.697 256.357C108.641 255.584 109.191 253.331 109.358 252.347C109.768 254.03 110.274 253.898 111.736 254.328L112.059 254.425L112.254 254.479C111.405 254.936 109.497 256.024 108.697 256.357Z" fill="#438482"/>
<path d="M120.282 291.031C120.487 290.28 120.524 289.789 121.087 289.354C121.624 289.729 121.755 289.98 122.165 290.521L122.677 290.694L123.34 290.291C123.922 290.85 123.711 290.607 124.015 291.51C122.693 291.356 122.038 291.296 120.751 291.645L120.282 291.031Z" fill="#C6241E"/>
<path d="M147.914 273.786C148.533 272.186 148.677 271.919 149.64 270.552C149.972 271.873 149.905 272.983 149.026 274.107C148.42 274.175 148.453 274.132 147.914 273.786Z" fill="#C6241E"/>
<path d="M126.687 266.099C127.13 266.696 127.053 266.359 127.101 266.94C127.325 269.639 127.852 267.026 128.232 270.347C125.453 272.548 122.739 273.991 119.269 273.837C115.453 273.667 111.039 273.74 108.231 270.46C107.719 270.657 107.826 270.627 107.312 270.711C106.439 270.063 105.326 269.325 104.623 268.493C105.767 268.107 109.914 268.28 111.371 268.236C116.94 268.069 120.929 268.123 126.3 266.237L126.687 266.099Z" fill="#9D1D19"/>
<path d="M126.687 266.099C128.709 264.967 131.19 263.027 132.969 261.504C133.599 262.168 133.503 261.801 133.527 262.544L133.067 263.368L133.111 263.543C134.021 263.041 133.527 263.157 134.673 263.408C132.882 265.916 130.711 268.674 128.232 270.346C127.852 267.026 127.325 269.639 127.101 266.94C127.053 266.359 127.13 266.696 126.687 266.099Z" fill="#9D1D19"/>
<path d="M137.467 256.141L139.291 255.997L138.699 257.324C139.233 257.783 139.674 258.021 139.828 258.729C138.964 259.361 138.677 259.377 138.3 260.307C138.444 261.206 138.711 261.447 139.219 262.155C138.836 262.633 138.937 262.444 138.819 262.749L138.535 262.363L137.609 263.03L137.31 262.809C137.359 262.055 137.301 262.295 137.537 261.59C137.106 261.358 137.014 261.298 136.562 261.133C136.148 261.647 135.089 263.038 134.673 263.408C133.527 263.157 134.021 263.041 133.111 263.543L133.067 263.368L133.527 262.544C133.503 261.801 133.599 262.168 132.969 261.504C134.345 260.631 136.48 257.605 137.467 256.141Z" fill="#9D1D19"/>
<path d="M138.699 257.324C139.233 257.783 139.673 258.021 139.827 258.729C138.963 259.361 138.677 259.377 138.299 260.307C138.444 261.206 138.711 261.447 139.219 262.155C138.836 262.633 138.937 262.444 138.819 262.749L138.535 262.363L137.608 263.03L137.31 262.809C137.358 262.055 137.3 262.295 137.536 261.59C137.105 261.358 137.014 261.298 136.562 261.133C136.879 260.196 138.124 258.259 138.699 257.324Z" fill="#C6241E"/>
<path d="M103.216 275.169C108.509 275.048 111.919 277.136 116.639 279.406L116.121 279.816C113.994 278.971 112.453 279.424 110.381 278.995C110.1 278.935 107.775 277.836 107.132 277.585L106.296 278.071C105.238 276.623 104.998 276.285 103.537 275.369L103.216 275.169Z" fill="#9D1D19"/>
<path d="M137.467 256.141C138.352 255.303 144.913 247.065 145.315 246.163L145.669 245.914C145.75 248.208 140.634 252.839 139.825 255.335C139.741 255.6 139.493 255.83 139.291 255.997L137.467 256.141Z" fill="#9D1D19"/>
<path d="M116.639 279.406C117.449 279.705 117.91 279.7 118.403 280.308C117.211 280.454 117.142 280.054 116.122 279.816L116.639 279.406Z" fill="#C6241E"/>
<path d="M186.041 287.624C187.899 288.157 188.953 288.127 190.89 288.035C190.97 290.299 190.902 291.131 190.262 293.376C197.591 304.813 203.109 318.419 211.626 329.159C213.01 330.901 221.713 334.008 223.761 335.954C236.304 342.511 241.426 353.053 248.198 365.66C249.717 368.397 252.181 371.188 253.134 372.957C253.926 376.926 252.422 380.576 250.061 383.502C248.865 384.542 248.405 384.753 247.072 385.445C244.699 385.828 243.881 385.953 241.546 385.899C239.823 384.107 237.315 382.005 235.424 380.509C229.9 376.605 223.527 373.862 218.247 369.329C213.504 365.254 211.388 359.575 207.265 355.371C205.85 353.929 201.119 351.481 199.227 350.443C196.178 348.549 194.127 344.926 191.466 343.13C188.277 341.047 184.542 339.906 181.466 337.577C174.506 332.312 169.589 324.125 163.996 317.401C162.913 318.676 159.25 319.67 157.623 319.751C156.552 318.546 154.87 316.285 154.051 314.861C155.418 311.154 156.797 307.169 158.655 303.759C159.365 305.143 161.24 308.142 162.573 308.598C163.425 307.215 163.991 306.329 165.076 305.148C166.966 301.771 172.607 297.364 175.702 295.476C177.146 294.595 179.468 293.247 180.631 292.077C181.021 291.115 180.876 290.096 180.833 289.018C181.206 290.337 181.516 291.377 181.979 292.677C183.509 290.426 184.604 290.34 186.934 289.34L186.041 287.624Z" fill="#D37C42"/>
<path d="M180.833 289.018C181.206 290.337 181.516 291.377 181.979 292.677C180.599 294.433 178.679 295.549 177.584 297.002C175.245 299.026 172.968 302.779 171.29 305.556L170.713 306.969C169.815 308.736 169.719 309.379 169.04 310.895C168.689 315.542 170.703 317.963 173.225 321.418C176.527 325.946 184.703 335.346 189.844 335.994C191.771 335.221 190.739 331.123 190.452 329.14C193.227 333.009 193.87 339.161 197.444 343.324C198.767 342.673 201.826 341.046 203.092 340.774C204.969 342.73 205.694 343.762 207.971 345.053C209.72 346.045 214.019 347.35 215.015 348.236C217.809 350.716 219.742 355.142 222.584 357.938C227.328 362.601 232.249 366.84 237.13 371.26C241.503 375.219 245.517 379.655 250.061 383.502C248.865 384.542 248.405 384.753 247.072 385.445C244.699 385.828 243.881 385.953 241.546 385.899C239.823 384.107 237.315 382.005 235.424 380.509C229.9 376.605 223.527 373.862 218.247 369.329C213.504 365.254 211.388 359.575 207.265 355.371C205.85 353.929 201.119 351.481 199.227 350.443C196.178 348.549 194.127 344.926 191.466 343.13C188.277 341.047 184.542 339.906 181.466 337.577C174.506 332.312 169.589 324.125 163.996 317.401C162.913 318.676 159.25 319.67 157.623 319.751C156.552 318.546 154.87 316.285 154.051 314.861C155.418 311.154 156.797 307.169 158.655 303.759C159.365 305.143 161.24 308.142 162.573 308.598C163.425 307.215 163.991 306.329 165.076 305.148C166.966 301.771 172.607 297.364 175.702 295.476C177.146 294.595 179.468 293.247 180.631 292.077C181.021 291.115 180.876 290.096 180.833 289.018Z" fill="#A65857"/>
<path d="M199.227 350.443C199.971 350.211 200.154 349.811 200.623 349.179C201.256 348.847 202.255 349.017 202.861 349.336C207.26 351.648 213.089 354.072 216.935 357.457C222.189 362.083 227.082 367.737 231.845 372.99C232.913 374.168 232.793 373.63 233.861 373.973C234.318 375.342 234.388 374.541 234.624 375.514C235.18 376.17 235.493 377.094 235.611 377.718C235.086 377.393 236.114 379.245 235.611 379.11C235.31 380.015 235.711 378.709 235.386 379.623L235.411 379.979L235.423 380.509C229.9 376.605 223.527 373.862 218.247 369.329C213.503 365.254 211.388 359.575 207.265 355.371C205.85 353.929 201.119 351.481 199.227 350.443Z" fill="#86494E"/>
<path d="M154.051 314.861C155.418 311.154 156.797 307.169 158.655 303.759C159.365 305.143 161.24 308.142 162.573 308.598C161.216 311.276 158.494 317.001 157.623 319.751C156.552 318.546 154.87 316.285 154.051 314.861Z" fill="#34797D"/>
<path d="M165.076 305.148C164.563 307.42 160.775 311.592 160.718 314.002L161.094 314.384L161.399 314.726C161.178 315.18 161.764 314.439 161.493 314.861C161.714 315.971 162.443 316.471 163.273 317.363C163.687 317.228 163.461 317.276 163.995 317.401C162.912 318.676 159.25 319.67 157.623 319.751C158.494 317.001 161.216 311.276 162.573 308.598C163.425 307.215 163.991 306.329 165.076 305.148Z" fill="#894A4D"/>
<path d="M186.041 287.624C187.899 288.157 188.953 288.127 190.89 288.035C190.97 290.299 190.902 291.131 190.262 293.376C189.463 292.669 187.701 290.315 186.934 289.34L186.041 287.624Z" fill="#894A4D"/>
<path d="M192.866 322.747C195.843 323.728 197.581 325.063 198.82 320.937C199.285 319.392 198.965 316.498 199.35 315.604C200.081 316.004 200.724 318.1 201.034 319.011C203.975 327.643 195.665 328.47 190.693 325.074C191.107 324.123 191.124 323.531 191.713 322.658L192.866 322.747Z" fill="#B25A59"/>
<path d="M182.079 316.09C184.813 317.311 189.528 320.929 192.866 322.747L191.713 322.658C191.124 323.531 191.107 324.123 190.693 325.074C186.885 322.764 184.799 319.808 182.079 316.09Z" fill="#B56254"/>
<path d="M206.42 332.395C209.203 333.895 214.437 342.071 214.245 345.502C212.659 344.151 206.791 334.808 206.42 332.395Z" fill="#B56254"/>
<path d="M134.011 328.586C137.989 328.594 147 330.561 150.47 332.39C151.411 337.437 152.436 343.643 153.601 348.52C153.945 350.133 154.655 354.461 155.649 355.315L156.176 355.477C165.3 357.114 171.796 358.795 177.61 367.113C180.383 371.082 184.707 374.16 188.799 376.197L191.562 377.396L190.077 380.409C190.325 383.467 189.966 385.953 188.864 388.76C187.295 391.789 186.799 392.918 183.579 393.507C177.102 391.424 170.508 390.035 164.051 388.047C157.493 386.028 151.185 382.932 144.446 381.441C141.589 380.809 138.646 379.833 136.545 377.467C134.03 373.779 132.584 369.107 130.343 365.468C124.745 356.371 120.696 347.531 116.174 337.742C116.916 333.411 128.02 329.953 131.611 330.318C132.367 330.396 132.766 330.323 133.522 330.183C133.729 329.675 133.861 329.124 134.011 328.586Z" fill="#B25A59"/>
<path d="M116.174 337.742C116.916 333.411 128.02 329.953 131.611 330.318C132.367 330.396 132.766 330.323 133.522 330.183C137.931 332.647 140.239 338.196 141.724 343.262C142.473 345.821 144.29 359.265 143.474 361.313C142.992 362.52 141.503 362.944 140.47 363.271C136.41 362.077 135.096 361.034 132.273 357.527C139.272 372.014 146.078 364.122 148.092 368.14C148.2 369.353 147.185 372.938 146.176 373.263C143.426 374.143 139.125 377.245 136.545 377.467C134.03 373.779 132.584 369.107 130.343 365.468C124.745 356.371 120.696 347.531 116.174 337.742Z" fill="#D37C42"/>
<path d="M153.601 348.52C153.945 350.133 154.655 354.461 155.649 355.315L156.176 355.477C155.933 355.69 155.676 355.871 155.632 356.077C155.396 357.165 156.655 361.91 156.905 363.101C155.014 358.954 152.395 353.334 153.601 348.52Z" fill="#9C534F"/>
<path d="M169.75 374.846C171.398 373.938 177.427 376.464 179.369 377.212C179.706 377.342 180.043 377.477 180.378 377.615L180.515 378.012C179.179 378.342 179.603 377.38 178.115 377.869C175.179 378.834 170.623 377.882 167.942 376.518C168.585 375.186 168.52 375.189 169.75 374.846Z" fill="#894A4D"/>
<path d="M167.943 376.518C166.256 375.286 164.624 374.708 163.897 372.747L164.068 372.62C166.188 374.689 166.749 373.811 169.75 374.846C168.52 375.189 168.585 375.186 167.943 376.518Z" fill="#894A4D"/>
<path d="M208.89 376.78C216.338 373.711 218.242 377.337 220.945 384.823C222.86 390.124 222.981 396.22 224.978 401.496C225.828 403.847 227.927 407.229 229.395 409.164C233.392 414.432 234.403 420.579 234.781 427.387C235.118 433.426 234.841 439.416 228.398 440.818C226.22 441.445 224.136 440.402 222.305 439.21C220.574 437.886 216.129 429.33 214.666 426.75L214.17 425.726C210.834 419.066 207.28 409.764 201.59 405.273C199.496 403.62 194.219 404.484 193.511 400.502L194.495 397.67C192.13 396.422 186.245 394.472 183.579 393.507C186.799 392.918 187.295 391.789 188.864 388.76C189.966 385.953 190.325 383.467 190.077 380.409L191.562 377.396C194.568 378.915 197.61 380.339 200.685 381.665C201.807 380.565 202.336 380.266 203.602 379.471C204.671 378.528 207.508 377.377 208.89 376.78Z" fill="#1A3750"/>
<path d="M201.701 393.915C203.388 393.102 204.274 392.542 206.124 392.967C206.625 393.95 206.622 394.118 206.837 395.25C208.266 395.317 208.82 394.68 210.213 393.928C210.165 396.128 209.826 398.381 211.166 400.018C212.822 401.504 215.498 403.296 216.832 404.611C217.965 407.767 219.683 416.126 223.861 414.049C225.318 413.325 225.885 412.811 226.617 411.209C230.521 417.682 233.101 426.439 231.941 434.369C231.245 439.132 229.736 438.632 228.398 440.818C226.22 441.445 224.136 440.402 222.304 439.21C220.574 437.886 216.129 429.33 214.666 426.75L214.17 425.726C210.834 419.066 207.279 409.764 201.59 405.273C199.496 403.62 194.218 404.484 193.511 400.502C195.694 399.775 196.153 400.061 198.406 398.775C199.205 397.427 199.898 396.306 200.769 395.012L201.701 393.915Z" fill="#F09600"/>
<path d="M206.124 392.967C204.274 392.542 203.388 393.102 201.701 393.915L200.769 395.012C199.898 396.306 199.205 397.427 198.406 398.775C196.153 400.061 195.694 399.775 193.511 400.502C194.218 404.484 199.496 403.62 201.59 405.273C207.279 409.764 210.834 419.066 214.17 425.726C216.497 423.64 217.337 421.768 220.444 419.414C217.609 414.224 214.37 405.927 210.531 402.585L208.995 400.856C207.774 399.829 208.266 395.317 206.837 395.25C206.622 394.118 206.625 393.95 206.124 392.967Z" fill="#1A3750"/>
<path d="M214.666 426.75C217.474 424.38 222.05 420.716 225.681 421.1C226.43 421.719 227.171 425.334 227.272 426.469C227.835 432.937 228.432 436.846 222.305 439.21C220.574 437.886 216.129 429.33 214.666 426.75Z" fill="#1A3750"/>
<path d="M203.542 379.403C204.611 378.46 207.448 377.309 208.83 376.712C211.966 377.766 212.984 378.52 215.02 381.527L215.232 382.602C213.971 384.658 210.163 383.326 208.17 384.783L208.998 385.758C209.677 387.101 210.144 388.057 210.072 389.651L210.43 389.802C210.365 390.899 210.519 392.991 210.368 394.007C208.974 394.758 208.136 395.444 206.707 395.377C206.492 394.245 206.565 393.882 206.065 392.899C204.214 392.474 203.328 393.034 201.641 393.847L200.71 394.944C199.839 396.238 199.145 397.359 198.346 398.707C196.094 399.994 195.634 399.707 193.451 400.434L194.436 397.602C192.07 396.354 186.185 394.404 183.519 393.439C186.739 392.85 187.235 391.721 188.804 388.692C189.906 385.885 190.265 383.399 190.017 380.341L189.773 376.541C192.779 378.059 197.55 380.271 200.626 381.597C201.747 380.498 202.277 380.198 203.542 379.403Z" fill="white"/>
<path d="M188.864 388.76C192.423 390.394 196 391.921 199.602 393.429C200.368 393.747 201.046 393.664 201.701 393.915L200.77 395.012C199.898 396.306 199.205 397.427 198.406 398.775C196.154 400.061 195.694 399.775 193.511 400.502L194.495 397.67C192.13 396.422 186.245 394.471 183.579 393.507C186.799 392.918 187.295 391.789 188.864 388.76Z" fill="#CDCDCD"/>
<path d="M203.602 379.471C204.671 378.528 207.508 377.377 208.889 376.78C212.025 377.834 213.043 378.588 215.079 381.595L215.291 382.67C214.03 384.726 210.223 383.394 208.23 384.85L209.058 385.826C207.886 386.053 207.631 386.123 206.735 387.004C205.888 387.09 206.105 387.028 205.217 386.542C203.932 384.988 202.124 383.289 200.685 381.665C201.807 380.565 202.336 380.265 203.602 379.471Z" fill="#1A3750"/>
<path d="M203.602 379.471C203.535 380.198 203.344 380.655 203.782 381.098C205.188 382.53 206.743 383.421 208.23 384.85L209.605 386.301L210.52 388.527C211.131 403.425 208.537 404.452 206.096 393.493C205.249 393.58 206.105 387.028 205.217 386.542C203.932 384.988 202.124 383.289 200.685 381.665C201.807 380.565 202.336 380.265 203.602 379.471Z" fill="#BF7800"/>
<path d="M208.89 376.78C216.338 373.711 218.242 377.337 220.945 384.823C222.86 390.124 222.981 396.22 224.978 401.496C225.828 403.847 227.927 407.229 229.395 409.164C233.392 414.432 234.403 420.579 234.781 427.387C235.118 433.426 234.841 439.416 228.398 440.818C229.736 438.632 231.245 439.132 231.941 434.369C233.101 426.439 230.521 417.682 226.617 411.209C223.994 407.164 222.593 404.976 221.041 400.307C219.354 393.237 219.198 387.52 215.08 381.595C213.044 378.588 212.026 377.834 208.89 376.78Z" fill="#C6C6C2"/>
<path d="M221.041 400.307C219.354 393.237 219.198 387.52 215.08 381.595L215.292 382.67C214.03 384.726 210.223 383.394 208.23 384.85L209.058 385.826L210.673 386.986L211.631 387.782C214.029 388.527 218.264 398.311 221.041 400.307Z" fill="#BF7800"/>
<path d="M267.415 389.941C270.705 390.289 277.896 398.446 280.094 401.415C281.737 403.62 283.237 405.954 284.582 408.399L284.816 408.737C290.132 416.369 294.618 416.969 297.809 426.92C298.868 430.216 299.227 433.744 298.861 437.224C298.149 444.238 292.904 450.76 286.171 449.928C281.872 449.396 279.201 446.508 276.621 442.93C275.076 440.893 269.54 427.325 268.094 424.258C264.766 417.201 262.648 414.724 258.311 408.64C256.263 406.713 254.614 404.938 254.749 401.726C256.385 400.113 257.68 400.14 259.692 399.024C262.677 397.068 262.494 394.088 264.703 391.718C266.147 391.424 266.474 391.227 267.415 389.941Z" fill="#1A3750"/>
<path d="M284.582 408.399L284.816 408.737C290.132 416.369 294.618 416.969 297.809 426.92C298.868 430.216 299.227 433.744 298.861 437.224C298.149 444.238 292.905 450.76 286.171 449.928C281.872 449.396 279.201 446.508 276.621 442.93L277.042 442.393L276.125 440.961C275.343 439.751 275.158 439.645 274.922 438.154C274.854 437.03 275.3 436.295 275.779 435.336L275.952 434.998L275.656 434.844L275.114 434.777C274.424 434.034 274.611 434.104 274.282 432.929C274.279 431.918 273.894 432.048 274.294 430.908C274.943 430.47 275.458 430.578 276.229 430.589C276.845 430.691 279.868 426.817 281.266 425.742L282.171 425.042C283.037 424.504 284.459 423.869 284.864 423.013C284.871 422.162 284.666 421.978 284.231 421.295L282.977 419.306C282.948 418.18 282.967 418.544 282.349 417.464L282.435 417.318C283.155 418.074 282.772 417.963 283.552 418.05C284.303 417.539 284.842 416.15 285.42 415.178L285.316 414.878C284.751 413.192 283.906 410.058 284.582 408.399Z" fill="#1A3750"/>
<path d="M284.582 408.399L284.816 408.737C290.132 416.369 294.618 416.969 297.809 426.92C298.868 430.216 299.227 433.744 298.861 437.224C298.149 444.238 292.904 450.76 286.171 449.928C281.872 449.396 279.201 446.508 276.621 442.93L277.042 442.393C278.012 443.598 280.394 445.592 281.663 446.34C286.582 449.239 292.741 446.143 295.027 440.691C297.029 435.919 296.031 429.676 294.563 424.885C293.52 421.913 293.107 420.649 291.333 418.201C287.834 418.693 287.239 418.779 285.42 415.178L285.316 414.878C284.751 413.192 283.906 410.058 284.582 408.399Z" fill="#C6C6C2"/>
<path d="M285.419 415.178C287.239 418.779 287.833 418.693 291.333 418.201C293.106 420.649 293.52 421.913 294.562 424.885C289.224 424.515 287.504 424.496 282.924 427.795C282.955 426.196 283.333 426.028 282.17 425.042C283.037 424.504 284.459 423.869 284.863 423.013C284.871 422.162 284.666 421.978 284.231 421.295L282.977 419.306C282.948 418.18 282.967 418.544 282.349 417.464L282.435 417.318C283.155 418.074 282.772 417.963 283.552 418.05C284.303 417.539 284.842 416.15 285.419 415.178Z" fill="#F09600"/>
<path d="M282.171 425.042C283.333 426.028 282.955 426.196 282.924 427.795C281.945 428.627 280.375 430.019 279.499 430.989L278.359 430.643C277.006 431.578 276.255 433.223 275.656 434.844L275.114 434.776C274.424 434.034 274.611 434.104 274.282 432.928C274.279 431.918 273.894 432.048 274.294 430.908C274.943 430.47 275.458 430.578 276.229 430.589C276.845 430.691 279.868 426.817 281.266 425.742L282.171 425.042Z" fill="#F09600"/>
<path d="M275.656 434.844C276.255 433.223 277.006 431.578 278.359 430.643L279.499 430.989C277.355 433.182 276.226 435.257 274.922 438.154C274.854 437.03 275.3 436.295 275.779 435.336L275.952 434.998L275.656 434.844Z" fill="#438482"/>
<path d="M267.416 389.941C270.705 390.289 277.897 398.446 280.094 401.415C281.738 403.62 283.237 405.954 284.582 408.399C283.906 410.058 284.751 413.192 285.316 414.878L285.42 415.178C284.842 416.15 284.303 417.539 283.552 418.05C282.773 417.963 283.155 418.074 282.436 417.318L282.349 417.464C282.967 418.544 282.948 418.18 282.977 419.306C281.596 417.485 279.675 414.338 278.303 412.311C276.137 409.11 273.346 405.365 271.569 401.977C270.494 399.924 270.92 395.36 269.071 393.202C267.832 391.748 266.431 391.883 264.703 391.718C266.147 391.424 266.475 391.227 267.416 389.941Z" fill="#F09600"/>
<path d="M258.311 408.64C259.329 408.353 260.126 408.534 261.177 408.645L261.045 409.277C261.974 410.458 265.31 414.251 265.668 415.324C266.251 415.713 266.017 415.634 266.693 415.651C267.918 417.912 267.565 417.004 269.033 418.769C269.273 418.523 269.565 418.055 269.774 417.75C272.462 421.77 273.24 424.969 275.256 428.573L276.229 430.589C275.458 430.578 274.943 430.47 274.294 430.908C273.894 432.048 274.279 431.918 274.282 432.929C274.611 434.104 274.424 434.034 275.114 434.777L275.656 434.844L275.952 434.998L275.779 435.336C275.3 436.295 274.854 437.03 274.922 438.154C275.158 439.645 275.343 439.751 276.125 440.961L277.042 442.393L276.621 442.93C275.076 440.893 269.54 427.325 268.094 424.259C264.766 417.201 262.648 414.724 258.311 408.64Z" fill="#BF7800"/>
<path d="M269.774 417.75C272.462 421.77 273.24 424.969 275.256 428.573L276.229 430.589C275.458 430.578 274.943 430.47 274.294 430.908C273.894 432.048 274.279 431.918 274.282 432.929C271.824 431.389 275.138 430.189 275.336 429.449C274.638 429.33 273.579 429.454 272.838 429.508C271.362 427.676 270.852 423.383 270.563 421.035L269.473 420.419C269.013 419.66 269.062 419.698 269.033 418.769C269.273 418.523 269.565 418.055 269.774 417.75Z" fill="#F09600"/>
<path d="M261.177 408.645C263.719 409.523 265.512 411.895 267.256 414.057C266.559 414.929 266.758 414.427 266.693 415.651C266.017 415.634 266.25 415.713 265.668 415.324C265.309 414.251 261.974 410.458 261.045 409.277L261.177 408.645Z" fill="#F09600"/>
<path d="M275.256 428.573C278.298 428.676 276.919 427.706 279.495 425.769C280.183 425.25 280.279 425.501 281.266 425.742C279.868 426.817 276.845 430.691 276.229 430.589L275.256 428.573Z" fill="#224E67"/>
<path d="M266.693 415.651C266.758 414.427 266.559 414.929 267.257 414.057C268.171 415.291 269.021 416.38 269.774 417.75C269.565 418.055 269.273 418.523 269.033 418.768C267.565 417.004 267.918 417.912 266.693 415.651Z" fill="#F09600"/>
<path d="M253.134 372.957C256.419 376.656 264.397 387.647 267.415 389.941C266.474 391.227 266.147 391.424 264.703 391.718C262.494 394.088 262.677 397.068 259.692 399.024C257.68 400.14 256.386 400.113 254.749 401.726C253.517 398.473 244.331 389.171 241.546 385.899C243.88 385.953 244.699 385.828 247.072 385.445C248.405 384.753 248.865 384.542 250.061 383.502C252.422 380.576 253.926 376.926 253.134 372.957Z" fill="white"/>
<path d="M241.546 385.899C243.88 385.953 244.699 385.828 247.072 385.445C247.965 386.588 251.192 389.554 251.334 390.249C252.906 391.64 253.63 392.383 254.896 394.207C256.325 395.73 258.109 397.9 259.692 399.024C257.68 400.14 256.386 400.113 254.749 401.726C253.517 398.473 244.331 389.171 241.546 385.899Z" fill="#C7C7C7"/>
<path d="M251.334 390.249C252.906 391.64 253.63 392.383 254.896 394.207C253.579 393.331 252.942 393.315 251.758 392.245C251.365 391.262 251.361 391.313 251.334 390.249Z" fill="#D1D1D1"/>
<path d="M147.822 153.253L147.212 150.171L146.296 148.459L145.381 147.089L144.008 145.377L143.703 147.089L143.856 148.116V148.801V150L143.703 151.37V152.569L143.245 153.596C143.093 153.881 142.788 154.486 142.788 154.623C142.788 154.76 142.279 155.365 142.025 155.651L141.11 156.507L139.889 156.849L138.669 157.021L137.906 156.849H137.296H136.381H135.16L133.94 156.678L132.872 156.507L131.804 156.336L130.279 155.822L128.906 155.651L127.075 155.308L125.855 154.966L125.092 154.795L123.871 154.452L122.956 154.281L121.583 154.11L120.363 153.938H118.685L118.99 154.281L119.753 154.795L120.82 155.479L122.041 156.336L123.566 157.363L124.634 158.048L125.855 158.904L126.922 159.589L128.906 160.616L129.973 161.815H128.906L127.533 162.158H125.855L124.024 162.5H121.888L120.058 162.842L118.532 163.185H117.007H114.413H112.278L109.837 162.842H107.548H105.718H104.955H104.04L100.379 162.5H98.3954H95.802H94.2765H92.4459H90.9204L89.5474 162.842L88.327 163.185L87.4117 163.87H86.1913H84.8184H83.5979H82.0724H80.6995L79.174 163.185L78.2587 162.5L76.5806 161.815L75.0551 160.616L73.377 159.76L72.4617 159.418L72.1566 158.562H73.377V157.877L72.1566 157.363L70.9362 156.678L69.1056 155.993L68.0377 155.651L66.6648 154.966L64.8342 153.767L63.0036 152.911L61.0204 151.199L57.3592 148.801L52.325 143.836L50.6469 141.781L48.3587 139.212L48.9689 140.753L49.4265 141.267L49.274 142.295L48.3587 141.952L47.4433 141.096L45.6127 140.069L44.3923 139.555L42.5617 138.527L41.4939 138.014L40.1209 136.986L38.1377 135.959L36.7648 135.274L35.6969 134.418L33.8663 133.219L32.3408 132.192L30.5102 130.993L28.3745 130.308L27.1541 129.966L25.9337 129.452L24.8658 128.253L23.1877 127.055L21.3571 126.027L19.8316 124.486L18.6112 123.288L16.9331 122.26L15.7127 121.575L13.7296 120.89H11.5939L9.76325 120.206H8.08518L6.71222 119.863H5.03416L2.7459 120.206L2.4408 120.377L2.89845 120.719L3.50865 121.062L5.03416 121.747L6.25457 122.089L7.78008 122.432L9.00049 122.603L11.2888 123.116L12.8143 123.459L14.0347 123.973L15.5602 124.829L16.7806 126.027L18.001 127.055L18.6112 127.911L19.8316 129.452L20.7469 130.651L22.5775 132.192L24.2556 133.39L25.6286 134.418L27.1541 134.932L28.3745 135.274L29.5949 135.616L30.8153 135.959L31.7306 136.301L33.1036 136.986L34.6291 138.527L37.8326 141.096L41.4939 144.178L43.477 145.719L45.0025 146.918L47.4433 149.144L49.4265 150.685L51.4097 152.055L53.2403 153.596L55.6811 155.651L57.9694 157.363L60.1051 158.904L61.9357 160.788L64.224 162.5L66.2071 163.356L68.0377 164.384L70.4786 165.582L72.6143 166.438L75.6653 167.808L78.8689 169.178L81.0046 170.034L83.5979 169.863L85.276 169.521L87.4117 169.178L89.3949 169.007H91.0729L92.5984 169.178L95.3444 169.349L98.3954 169.863L101.599 170.377L105.108 171.062H110.599L113.498 170.377L116.702 170.034L118.532 169.521L120.058 168.836L122.651 167.979L126.922 167.808H131.652L130.584 168.836L128.906 169.692L127.533 171.233L125.855 172.774L124.939 175.342L124.482 176.541L125.855 179.11L127.533 180.822L129.668 182.363L131.652 183.904L134.245 184.589L137.143 185.445L139.432 184.589L141.567 182.877L143.245 179.623L144.313 176.541L145.686 172.774L147.059 164.897L147.822 164.212L147.974 161.815L148.127 158.562V155.822L147.822 153.253Z" fill="#B25A59"/>
</g>
<defs>
<filter id="filter0_n_503_2947" x="0" y="0" width="299" height="450" filterUnits="userSpaceOnUse" color-interpolation-filters="sRGB">
<feFlood flood-opacity="0" result="BackgroundImageFix"/>
<feBlend mode="normal" in="SourceGraphic" in2="BackgroundImageFix" result="shape"/>
<feTurbulence type="fractalNoise" baseFrequency="2 2" stitchTiles="stitch" numOctaves="3" result="noise" seed="2264" />
<feColorMatrix in="noise" type="luminanceToAlpha" result="alphaNoise" />
<feComponentTransfer in="alphaNoise" result="coloredNoise1">
<feFuncA type="discrete" tableValues="1 1 1 1 1 1 1 1 1 1 1 1 1 1 1 1 1 1 1 1 1 1 1 1 1 1 1 1 1 1 1 1 1 1 1 1 1 1 1 1 1 1 1 1 1 1 1 1 1 1 1 0 0 0 0 0 0 0 0 0 0 0 0 0 0 0 0 0 0 0 0 0 0 0 0 0 0 0 0 0 0 0 0 0 0 0 0 0 0 0 0 0 0 0 0 0 0 0 0 0 "/>
</feComponentTransfer>
<feComposite operator="in" in2="shape" in="coloredNoise1" result="noise1Clipped" />
<feFlood flood-color="rgba(0, 0, 0, 0.15)" result="color1Flood" />
<feComposite operator="in" in2="noise1Clipped" in="color1Flood" result="color1" />
<feMerge result="effect1_noise_503_2947">
<feMergeNode in="shape" />
<feMergeNode in="color1" />
</feMerge>
</filter>
</defs>
</svg>
