<svg width="222" height="458" viewBox="0 0 222 458" fill="none" xmlns="http://www.w3.org/2000/svg">
<g filter="url(#filter0_n_503_2785)">
<g clip-path="url(#clip0_503_2785)">
<path d="M136.275 147.682C131.814 137.787 131.912 134.516 134.952 123.772C138.394 111.609 149.583 107.223 158.338 115.309C159.693 116.56 161.548 119.128 162.219 120.935C162.796 122.61 163.12 123.34 163.904 124.901C164.741 126.212 165.38 127.192 166.08 128.61C167.256 132.132 168.487 137.938 168.775 141.682C169.016 144.816 168.795 146.862 169.344 150.062L169.373 150.222L170.001 152.564L170.504 152.671L171.654 151.203C174.007 152.366 175.573 153.322 177.717 154.933C181.005 158.22 183.735 160.734 186.605 164.571L187.963 166.432C188.902 168.008 192.16 172.588 193.389 173.754C195.925 176.779 200.919 183.247 203.686 185.189L204.1 185.192L204.277 184.988C204.72 186.929 205.477 189.9 205.736 191.803C207.767 208.498 208.55 224.19 206.108 240.828C205.889 242.329 205.281 247.566 204.945 248.66C204.72 251.719 204.797 253.982 204.753 256.929C204.71 259.77 202.403 264.461 201.241 267.194C198.093 265.68 195.012 264.245 192.035 262.308L190.615 261.458C189.138 260.754 187.646 260.092 186.139 259.477L181.643 257.884C180.859 257.56 179.479 257.14 178.642 256.856C174.98 255.682 171.388 254.389 167.909 252.609C166.021 251.292 165.155 250.777 163.002 250.194C162.443 250.223 161.152 250.256 160.664 250.364C156.295 251.312 154.809 251.352 150.525 249.916C148.016 248.586 147.318 248.503 144.582 248.011C143.137 244.82 142.501 243.847 142.729 240.251C142.924 239.73 143.165 239.287 143.414 238.797C143.99 237.561 144.818 236.228 145.56 235.101C148.526 230.594 143.717 228.385 141.575 225.697C139.571 223.18 137.617 220.293 135.744 217.639C133.328 215.42 132.573 211.416 131.993 208.18C133.389 208.427 134.495 211.998 135.873 212.834C139.372 214.958 143.782 208.252 145.3 205.315C146.477 203.496 147.335 199.978 147.86 197.85L148.121 196.702C147.986 195.948 148.447 191.96 148.426 190.865C148.333 186.048 147.66 180.337 146.208 175.823C144.666 171.027 143.656 168.643 139.66 166.441C140.88 165.854 141.956 165.419 143.203 164.925C143.611 164.812 144.935 164.158 145.396 163.943C145.963 163.62 146.834 162.969 147.402 162.57C147.237 160.52 144.867 155.241 143.414 153.573C139.313 154.129 137.777 151.806 136.275 147.682Z" fill="#EFE8DE"/>
<path d="M136.275 147.682C131.814 137.787 131.912 134.516 134.952 123.772C138.394 111.609 149.583 107.223 158.338 115.309C159.693 116.56 161.548 119.128 162.219 120.935C162.796 122.61 163.12 123.34 163.904 124.901C164.741 126.212 165.38 127.192 166.08 128.61C167.256 132.132 168.487 137.938 168.775 141.682C169.016 144.816 168.795 146.862 169.344 150.062L169.373 150.222L170.001 152.564L170.504 152.671L171.654 151.203C174.007 152.366 175.573 153.322 177.717 154.933C177.506 155.977 177.324 157.029 177.171 158.087L177.366 158.336C176.744 159.317 176.429 160.691 175.953 161.327L175.917 161.422C175.184 162.083 175.131 163.109 175.011 164.138C175.594 166.015 175.828 166.994 175.054 168.87C171.814 176.714 163.385 174.776 157.942 171.661C156.369 170.761 154.057 169.291 152.695 168.084C149.814 166.313 148.986 165.862 147.402 162.57C147.237 160.52 144.867 155.241 143.414 153.573C139.313 154.129 137.777 151.806 136.275 147.682Z" fill="#D37F4D"/>
<path d="M140.596 132.102L140.686 132.331C141.97 135.643 141.851 138.886 145.44 140.45C146.677 140.988 147.892 141.238 149.185 141.556L149.319 141.747C153.938 148.45 153.437 153.411 162.444 154.181C165.408 153.238 166.777 153.026 168.073 149.57L168.503 149.539L168.978 150.173L169.373 150.222L170.001 152.564L170.504 152.671L171.654 151.203C174.007 152.366 175.573 153.322 177.717 154.933C177.506 155.977 177.324 157.029 177.171 158.087L177.366 158.336C176.744 159.317 176.429 160.691 175.953 161.327L175.917 161.422C175.184 162.083 175.131 163.11 175.011 164.138C175.594 166.015 175.828 166.994 175.054 168.87C171.814 176.714 163.385 174.776 157.942 171.661C156.369 170.761 154.057 169.291 152.695 168.084C149.814 166.313 148.986 165.862 147.402 162.57C147.237 160.52 144.867 155.241 143.414 153.573C139.313 154.129 137.777 151.806 136.275 147.682C137.331 144.011 139.28 145.447 141.757 144.74C141.889 144.787 142.217 144.237 142.211 144.223C140.29 139.752 139.201 137.071 140.596 132.102Z" fill="#B7695A"/>
<path d="M168.978 150.173L169.373 150.222L170.001 152.564L170.504 152.671L171.654 151.203C174.007 152.366 175.573 153.322 177.717 154.933C177.506 155.977 177.324 157.029 177.171 158.087L177.366 158.336C176.744 159.317 176.429 160.691 175.953 161.327L175.917 161.422C175.184 162.083 175.131 163.109 175.011 164.138C175.594 166.015 175.828 166.994 175.054 168.87C171.814 176.714 163.385 174.776 157.942 171.661C156.369 170.761 154.057 169.291 152.695 168.084C154.538 168.529 156.897 169.712 158.671 170.561C160.479 172.086 165.425 171.866 167.601 171.877L168.329 172.454C168.944 172.524 168.7 172.595 169.241 172.146C170.074 170.41 169.418 162.723 169.102 160.558C168.745 162.403 168.47 164.99 168.219 166.908C166.698 161.598 168.107 158.633 168.241 153.149C168.474 151.979 168.614 151.29 168.978 150.173Z" fill="#D37F4D"/>
<path d="M171.654 151.203C174.007 152.366 175.573 153.322 177.717 154.933C177.506 155.977 177.324 157.029 177.171 158.087L177.366 158.336C176.744 159.317 176.429 160.691 175.953 161.327L175.917 161.422C175.184 162.083 175.131 163.11 175.011 164.138L174.412 163.257C174.391 162.766 171.908 158.055 171.503 157.257C170.895 155.622 170.333 154.315 170.001 152.564L170.504 152.671L171.654 151.203Z" fill="#AC1F1A"/>
<path d="M171.654 151.203C174.007 152.366 175.573 153.322 177.717 154.933C177.506 155.977 177.324 157.029 177.171 158.087C175.139 156.189 173.165 154.745 170.959 153.174C170.829 152.865 170.773 152.883 170.504 152.671L171.654 151.203Z" fill="#AC1F1A"/>
<path d="M175.953 161.327C175.781 161.121 174.827 159.665 174.717 159.445C174.017 158.048 170.758 154.568 170.959 153.174C173.165 154.745 175.139 156.189 177.171 158.087L177.366 158.336C176.744 159.317 176.429 160.691 175.953 161.327Z" fill="#EFE8DE"/>
<path d="M171.503 157.257C171.908 158.055 174.391 162.766 174.412 163.257C173.204 164.6 172.595 165.597 171.592 167.161C172.037 162.749 171.791 161.699 171.503 157.257Z" fill="#B7695A"/>
<path d="M168.073 149.57L168.503 149.539L168.978 150.173C168.614 151.29 168.474 151.98 168.241 153.149C166.479 156.163 166.169 157.269 162.743 158.131C159.791 158.874 157.289 157.909 154.438 157.733C150.102 157.466 147.873 154.922 144.031 153.233C144.668 151.831 144.74 151.869 144.656 150.305C148.212 154.432 149.638 155.7 155.039 155.819C157.547 155.874 160.09 155.184 162.444 154.181C165.408 153.238 166.777 153.026 168.073 149.57Z" fill="#864B4D"/>
<path d="M158.671 170.561C158.776 168.442 153.332 162.946 154.239 161.184C155.468 160.826 158.761 162.777 159.519 163.72C160.88 165.415 167.088 170.289 167.601 171.877C165.425 171.866 160.479 172.086 158.671 170.561Z" fill="#C57556"/>
<path d="M138.369 146.49C142.657 145.882 144.938 151.189 140.789 151.782C140.5 150.755 140.92 147.646 138.801 148.514C138.616 148.949 138.531 149.163 138.406 149.627L138.377 149.736L137.947 149.608C137.296 148.431 137.627 147.441 138.369 146.49Z" fill="#864B4D"/>
<path d="M136.275 147.682C131.814 137.787 131.912 134.516 134.952 123.772C138.394 111.609 149.583 107.223 158.338 115.309C159.693 116.56 161.548 119.128 162.219 120.935L160.656 120.137L160.028 119.886C157.707 120.089 157.117 121.542 155.387 121.688C155.358 121.412 155.358 121.047 155.35 120.761C155.888 119.536 157.914 119.046 159.116 118.532C152.208 114.089 143.532 117.973 139.798 125.704C139.612 126.087 139.448 126.484 139.308 126.893C139.607 128.082 140.536 131.148 140.596 132.102C139.201 137.071 140.29 139.752 142.212 144.223C142.217 144.237 141.889 144.787 141.757 144.74C139.28 145.447 137.331 144.011 136.275 147.682Z" fill="#1E3544"/>
<path d="M159.116 118.532L159.651 119.165C158.898 119.254 158.412 119.067 157.824 119.549L157.795 119.881C158.183 119.999 158.778 119.797 159.151 119.637L160.028 119.886C157.707 120.089 157.117 121.542 155.387 121.688C155.358 121.412 155.358 121.047 155.35 120.761C155.888 119.536 157.914 119.046 159.116 118.532Z" fill="#30333A"/>
<path d="M166.08 128.61C167.256 132.132 168.487 137.939 168.775 141.682C169.016 144.816 168.795 146.862 169.344 150.062L169.373 150.222L168.978 150.173L168.503 149.539L168.073 149.57C168.029 145.286 166.55 141.725 165.954 137.544C165.538 134.628 165.72 131.522 166.08 128.61Z" fill="#B7695A"/>
<path d="M160.028 119.886L160.656 120.137L162.219 120.935C162.796 122.61 163.12 123.34 163.904 124.901L162.95 124.806C162.824 124.507 162.794 124.157 162.744 123.825C161.856 124.293 161.012 124.328 160.119 124.609C159.578 124.654 158.201 124.733 157.738 124.848L157.134 124.982C156.422 124.625 155.744 123.529 155.037 122.78C155.154 122.482 155.287 122.01 155.387 121.688C157.117 121.542 157.707 120.089 160.028 119.886Z" fill="#B7695A"/>
<path d="M160.028 119.886L160.656 120.137C160.107 120.569 159.772 120.723 159.563 121.431C159.63 121.839 159.628 121.977 159.834 122.329C158.994 122.62 157.951 122.956 157.508 123.902C157.496 124.488 157.412 124.252 157.713 124.657L157.738 124.848L157.134 124.982C156.422 124.625 155.744 123.529 155.037 122.78C155.154 122.482 155.287 122.01 155.387 121.688C157.117 121.542 157.707 120.089 160.028 119.886Z" fill="#A05754"/>
<path d="M160.656 120.137L162.219 120.935C162.796 122.61 163.12 123.34 163.904 124.901L162.951 124.806C162.824 124.507 162.794 124.157 162.744 123.825C162.062 123.178 161.946 123.036 161.095 122.775L159.834 122.329C159.628 121.977 159.63 121.838 159.563 121.431C159.772 120.723 160.107 120.569 160.656 120.137Z" fill="#C57556"/>
<path d="M159.834 122.329L161.096 122.775C160.289 124.091 158.947 123.828 157.713 124.657C157.412 124.252 157.497 124.488 157.508 123.902C157.951 122.957 158.994 122.62 159.834 122.329Z" fill="#864B4D"/>
<path d="M155.037 122.781C155.744 123.529 156.422 124.625 157.134 124.982L157.738 124.848C158.202 124.733 159.578 124.654 160.119 124.609C159.729 124.854 159.023 125.246 158.727 125.568L159.323 125.718C159.14 125.979 158.85 126.362 158.713 126.637L159.616 127.923C159.44 127.96 158.866 128.058 158.749 128.143C158.506 128.784 158.075 129.835 157.888 130.461C157.678 130.595 157.79 130.543 157.481 130.491C157.312 129.816 157.153 129.322 156.936 128.67C156.419 128.176 156.487 128.321 155.718 128.215L154.497 129.249C154.593 127.161 153.613 126.017 154.792 124.339C154.833 123.879 154.958 123.248 155.037 122.781Z" fill="#D37F4D"/>
<path d="M155.037 122.781C155.744 123.529 156.422 124.625 157.134 124.982L157.738 124.848C158.202 124.733 159.578 124.654 160.119 124.609C159.729 124.854 159.023 125.246 158.727 125.568C158.461 125.945 158.267 126.103 157.939 126.411C156.463 126.598 156.169 125.507 154.876 124.408L154.792 124.339C154.833 123.879 154.958 123.248 155.037 122.781Z" fill="#B26352"/>
<path d="M155.718 128.215C157.327 127.496 156.958 129.149 158.713 126.637L159.616 127.923C159.44 127.96 158.866 128.058 158.749 128.143C158.506 128.784 158.075 129.835 157.888 130.461C157.678 130.595 157.79 130.543 157.481 130.491C157.312 129.816 157.153 129.322 156.936 128.67C156.419 128.176 156.487 128.321 155.718 128.215Z" fill="#B26352"/>
<path d="M155.718 128.215C156.487 128.321 156.419 128.176 156.936 128.67C157.153 129.322 157.312 129.816 157.481 130.491C157.79 130.543 157.678 130.595 157.888 130.461L158.746 130.891L158.676 131.331C157.22 131.151 156.148 132.364 154.898 133.372L154.237 133.531C153.715 132.441 153.784 132.121 154.062 130.999L154.441 129.499L154.497 129.249L155.718 128.215Z" fill="#B7695A"/>
<path d="M154.062 130.999C154.804 130.052 155.226 129.256 156.401 129.209L156.605 129.49C156.432 131.1 155.26 131.879 154.898 133.372L154.237 133.531C153.715 132.441 153.784 132.121 154.062 130.999Z" fill="#864B4D"/>
<path d="M152.081 141.476C151.448 139.569 151.05 133.55 152.18 131.99L152.674 132.518C152.717 133.404 152.804 133.569 153.114 134.367C152.859 136.833 152.485 139.046 152.081 141.476Z" fill="#B26352"/>
<path d="M159.616 127.923C160.348 129.169 161.042 130.013 161.943 131.092C160.936 131.224 159.659 131.454 158.676 131.331L158.746 130.891L157.888 130.461C158.074 129.835 158.506 128.784 158.749 128.142C158.866 128.058 159.44 127.96 159.616 127.923Z" fill="#A05754"/>
<path d="M158.749 128.143C159.271 128.73 159.466 128.888 159.688 129.717C159.541 130.505 159.465 130.605 158.746 130.891L157.888 130.461C158.074 129.835 158.506 128.784 158.749 128.143Z" fill="#864B4D"/>
<path d="M152.674 132.518C153.3 131.602 153.482 130.766 154.441 129.499L154.062 130.999C153.784 132.121 153.715 132.441 154.237 133.531C153.885 133.797 153.472 134.13 153.114 134.367C152.804 133.569 152.717 133.404 152.674 132.518Z" fill="#B7695A"/>
<path d="M162.744 123.825C162.794 124.157 162.824 124.507 162.951 124.806C161.688 125.17 160.615 125.487 159.323 125.718L158.727 125.568C159.023 125.246 159.729 124.854 160.119 124.609C161.012 124.328 161.856 124.293 162.744 123.825Z" fill="#B26352"/>
<path d="M158.624 133.483C160.284 132.852 161.589 132.569 162.567 134.608C163.205 136.791 164.538 140.269 164.198 142.455C160.962 144.577 158.915 145.167 155.359 144.156C155.07 143.081 154.631 141.719 154.628 140.625C154.566 138.17 154.587 137.247 155.901 135.329C156.827 134.348 157.411 133.868 158.624 133.483Z" fill="#864B4D"/>
<path d="M158.624 133.483C160.284 132.852 161.589 132.569 162.567 134.608L161.886 134.832C161.954 135.624 162.121 136.575 161.831 137.267C161.254 137.142 160.958 136.322 160.638 135.728C158.646 136.405 156.506 137.109 155.502 139.413L155.279 138.941C155.174 139.481 155.142 140.493 154.628 140.625C154.566 138.17 154.587 137.247 155.901 135.329C156.827 134.348 157.411 133.868 158.624 133.483Z" fill="#CFD1D0"/>
<path d="M158.624 133.483C160.284 132.852 161.589 132.569 162.567 134.608L161.886 134.832C160.109 133.451 158.003 135.273 156.497 136.443L156.267 135.605L155.901 135.329C156.827 134.348 157.411 133.868 158.624 133.483Z" fill="#B7695A"/>
<path d="M155.901 135.329C156.827 134.348 157.411 133.868 158.624 133.483C158.314 134.737 156.983 134.631 156.267 135.605L155.901 135.329Z" fill="#B26352"/>
<path d="M155.901 135.329L156.267 135.605L156.497 136.443C155.801 137.305 155.494 137.744 155.279 138.941C155.174 139.481 155.142 140.493 154.628 140.625C154.566 138.17 154.587 137.247 155.901 135.329Z" fill="#B26352"/>
<path d="M154.628 140.625C155.142 140.493 155.174 139.481 155.279 138.941L155.502 139.413C155.521 140.476 155.445 142.027 155.849 142.922C157.597 144.726 159.308 139.724 164.198 142.455C160.962 144.577 158.915 145.167 155.359 144.156C155.07 143.081 154.631 141.719 154.628 140.625Z" fill="#B7695A"/>
<path d="M145.82 125.026C143.633 125.769 144.067 126.181 142.776 126.94C142.314 123.652 148.596 122.08 150.57 122.609C150.745 122.657 150.822 122.914 150.915 123.087L150.889 123.715C152.116 124.652 152.563 125.056 153.328 126.508C153.029 126.902 152.269 127.87 151.938 128.128C150.719 129.08 145.972 131.937 144.704 132.186C143.893 131.413 144.259 129.521 144.661 128.539C145.206 127.376 145.524 126.302 145.82 125.026Z" fill="#A05754"/>
<path d="M150.889 123.715C152.116 124.652 152.563 125.056 153.328 126.508C153.029 126.902 152.269 127.87 151.938 128.128C150.719 129.08 145.972 131.937 144.704 132.186C143.893 131.413 144.259 129.521 144.661 128.539C144.807 129.343 144.737 130.787 144.969 131.184C145.661 130.66 145.837 129.694 146.354 129.186C147.775 127.789 151.279 127.835 152.724 126.452C152.157 125.455 151.54 124.636 150.889 123.715Z" fill="#B7695A"/>
<path d="M145.82 125.026C143.633 125.769 144.067 126.181 142.776 126.94C142.314 123.652 148.596 122.08 150.57 122.609C150.745 122.657 150.822 122.914 150.916 123.087C150.227 125.066 147.517 124.797 145.82 125.026Z" fill="#30333A"/>
<path d="M159.134 147.97C159.528 147.09 159.665 146.731 160.459 146.3C161.521 145.724 163.497 144.462 164.622 144.952L164.737 145.771L164.827 146.417C163.276 147.787 161.63 146.124 157.961 150.228C158.173 149.787 158.878 148.221 159.134 147.97Z" fill="#A05754"/>
<path d="M164.737 145.771L164.827 146.417C163.276 147.787 161.63 146.124 157.961 150.228C158.173 149.787 158.878 148.221 159.134 147.97C159.945 147.456 160.146 147.071 161.088 146.832C162.33 146.518 163.528 146.238 164.737 145.771Z" fill="#B26352"/>
<path d="M151.263 247.266C154.402 250.498 157.171 249.091 160.822 248.443C162.573 248.132 164.653 248.456 166.424 248.114C174.48 245.969 182.074 240.103 188.071 233.701C190.422 231.192 192.534 227.797 194.845 225.31C192.213 233.663 186.395 242.179 182.751 250.133C181.776 252.262 179.7 254.662 178.642 256.856C174.98 255.682 171.388 254.389 167.909 252.609C166.021 251.292 165.155 250.777 163.002 250.194C162.443 250.223 161.152 250.256 160.664 250.364C156.295 251.312 154.809 251.352 150.525 249.916C148.016 248.586 147.318 248.503 144.582 248.011C143.137 244.82 142.501 243.847 142.729 240.251C142.924 239.73 143.165 239.287 143.414 238.797C144.825 238.636 147.151 237.107 148.401 236.322C148.25 236.988 147.869 238.498 147.797 239.115L147.78 239.314C148.989 238.706 149.966 237.981 151.282 237.442C151.329 240.857 150.98 243.655 151.115 247.228L151.263 247.266Z" fill="#C3BBAF"/>
<path d="M147.78 239.314C148.989 238.706 149.966 237.981 151.282 237.442C151.329 240.857 150.98 243.655 151.115 247.228C150.047 246.83 148.561 245.495 147.152 244.905L147.141 244.603C147.183 242.686 147.17 241.134 147.78 239.314Z" fill="#C13526"/>
<path d="M143.414 238.797C144.825 238.636 147.151 237.107 148.401 236.322C148.25 236.988 147.869 238.498 147.797 239.115L147.78 239.314C147.17 241.134 147.182 242.686 147.141 244.603C145.443 243.811 143.68 240.821 142.729 240.251C142.924 239.73 143.165 239.287 143.414 238.797Z" fill="#C13526"/>
<path d="M147.152 244.905C148.561 245.495 150.047 246.83 151.115 247.228L151.263 247.266L151.442 248.463C151.125 248.785 151.252 248.689 150.697 248.669C148.857 247.935 147.8 247.038 147.152 244.905Z" fill="#98281C"/>
<path d="M148.121 196.702C148.904 197.608 150.309 200.394 150.771 200.793C149.93 205.501 147.14 210.381 144.115 213.637C145.252 216.487 146.067 218.405 147.726 220.922C148.334 221.845 149.658 223.518 150.136 224.335L151.063 225.9L151.102 226.037C149.989 226.893 149.08 227.414 147.894 228.11C149.011 230.525 149.678 232.6 148.949 235.327C148.911 235.47 148.871 235.613 148.83 235.754L148.401 236.322C147.151 237.107 144.825 238.636 143.414 238.797C143.99 237.561 144.818 236.228 145.56 235.101C148.526 230.594 143.717 228.385 141.575 225.697C139.571 223.18 137.617 220.293 135.744 217.639C133.328 215.42 132.573 211.416 131.993 208.18C133.389 208.427 134.495 211.998 135.873 212.834C139.372 214.958 143.782 208.252 145.3 205.315C146.477 203.496 147.335 199.978 147.86 197.85L148.121 196.702Z" fill="#AC1F1A"/>
<path d="M135.744 217.639C137.061 217.094 138.815 216.599 139.991 215.966C141.072 217.421 141.786 219.048 142.696 220.659C144.136 223.206 145.511 225.23 147.332 227.41L147.894 228.11C149.011 230.525 149.678 232.601 148.949 235.327C148.911 235.47 148.871 235.613 148.83 235.754L148.401 236.322C147.151 237.107 144.825 238.636 143.414 238.797C143.99 237.561 144.818 236.228 145.56 235.101C148.526 230.595 143.717 228.385 141.575 225.697C139.571 223.18 137.616 220.293 135.744 217.639Z" fill="#98281C"/>
<path d="M150.136 224.335L151.063 225.9L151.102 226.037C149.989 226.893 149.08 227.414 147.894 228.11L147.332 227.41C148.215 225.695 148.634 225.35 150.136 224.335Z" fill="#98281C"/>
<path d="M190.615 261.458C193.696 258.189 196.238 251.489 198.143 247.32C200.066 243.113 202.018 238.996 203.826 234.716C202.849 240.548 201.002 246.356 199.227 251.922C198.67 253.664 195.797 260.141 195.832 260.962L196.182 261.196C198.889 261.237 202.412 249.245 204.945 248.66C204.72 251.719 204.797 253.982 204.753 256.93C204.71 259.77 202.403 264.461 201.241 267.194C198.093 265.68 195.012 264.245 192.035 262.308L190.615 261.458Z" fill="#C3BBAF"/>
<path d="M175.011 164.138C175.131 163.109 175.184 162.083 175.917 161.422C178.861 167.398 179.595 172.53 173.481 176.3C169.764 178.592 165.293 178.65 161.318 177.289C156.557 175.629 153.675 172.413 150.142 168.622C149.487 167.919 147.948 166.062 147.233 165.625C146.8 165.036 145.964 164.409 145.396 163.943C145.963 163.62 146.834 162.969 147.402 162.57C148.986 165.861 149.814 166.313 152.695 168.084C154.057 169.291 156.369 170.761 157.942 171.661C163.385 174.776 171.814 176.714 175.054 168.87C175.828 166.994 175.594 166.015 175.011 164.138Z" fill="#AC1F1A"/>
<path d="M162.889 212.024C159.908 220.381 157.661 224.237 152.174 230.729C156.943 228.224 159.493 225.916 163.445 221.962C159.446 230.548 156.709 230.217 151.463 235.836C155.322 233.801 159.005 231.733 162.492 228.949C162.863 228.651 163.741 227.96 164.145 227.871C162.854 229.886 153.781 236.241 151.349 237.333L151.282 237.442C149.966 237.981 148.989 238.706 147.78 239.314L147.797 239.115C147.869 238.498 148.25 236.988 148.401 236.322L148.83 235.754C148.871 235.613 148.911 235.47 148.949 235.327C149.678 232.6 149.011 230.525 147.894 228.11C149.08 227.414 149.988 226.893 151.102 226.037L151.063 225.9C154.777 222.942 159.86 216.291 162.889 212.024Z" fill="#C3BBAF"/>
<path d="M147.894 228.11C149.08 227.414 149.988 226.893 151.102 226.037C151.806 228.224 153.716 232.214 152.437 234.054C152.237 234.479 151.56 235.977 151.347 236.27L151.349 237.333L151.282 237.442C149.966 237.981 148.989 238.706 147.78 239.314L147.797 239.115C147.869 238.498 148.25 236.988 148.401 236.322L148.83 235.754C148.871 235.613 148.911 235.47 148.949 235.327C149.678 232.6 149.011 230.525 147.894 228.11Z" fill="#98281C"/>
<path d="M152.437 234.054C152.237 234.479 151.56 235.977 151.347 236.27L151.349 237.333L151.282 237.442C149.966 237.981 148.989 238.706 147.78 239.314L147.797 239.115C147.869 238.498 148.25 236.988 148.401 236.322L148.83 235.754L152.437 234.054Z" fill="#C13526"/>
<path d="M151.347 236.27L151.349 237.333L151.282 237.442C149.966 237.981 148.989 238.706 147.78 239.314L147.797 239.115C148.943 238.386 149.525 237.259 151.347 236.27Z" fill="#98281C"/>
<path d="M143.203 164.925C144.12 166.085 145.052 167.229 145.998 168.357C150.981 175.666 152.971 185.344 152.024 194.494C151.791 196.637 151.371 198.748 150.771 200.793C150.309 200.394 148.904 197.608 148.121 196.702C147.986 195.948 148.447 191.96 148.426 190.865C148.333 186.048 147.66 180.337 146.208 175.823C144.666 171.027 143.656 168.643 139.66 166.441C140.88 165.854 141.956 165.419 143.203 164.925Z" fill="#AC1F1A"/>
<path d="M181.643 257.884C190.386 250.489 195.368 241.101 200.068 229.937C201.391 226.795 203.098 221.252 204.469 218.511C202.671 230.438 195.053 252.182 186.337 259.316C186.271 259.369 186.205 259.423 186.139 259.477L181.643 257.884Z" fill="#C3BBAF"/>
<path d="M177.717 154.933C181.005 158.22 183.735 160.734 186.605 164.571L187.963 166.432C188.902 168.008 192.16 172.588 193.389 173.754C195.925 176.779 200.919 183.247 203.686 185.189L204.1 185.192L204.277 184.988C204.72 186.929 205.477 189.9 205.736 191.803C199.771 186.571 195.535 180.385 190.657 173.902C186.197 167.973 182.507 163.491 177.366 158.336L177.171 158.087C177.324 157.029 177.506 155.977 177.717 154.933Z" fill="#AC1F1A"/>
<path d="M145.396 163.943C145.964 164.409 146.8 165.036 147.233 165.625L147.095 165.582C146.229 165.297 145.906 164.825 145.26 164.93L145.5 165.02C145.29 166.111 145.8 167.174 145.998 168.357C145.052 167.229 144.12 166.085 143.203 164.925C143.611 164.812 144.935 164.158 145.396 163.943Z" fill="#98281C"/>
<path d="M179.728 225.368C181.183 225.194 182.397 223.648 183.706 222.708C180.863 229.472 176.249 234.296 170.055 236.829C165.925 238.518 158.889 239.403 154.579 238.652C161.389 236.959 165.929 235.027 172.064 231.225C173.639 230.25 175.632 229.268 176.926 227.871L176.65 227.332C178.372 226.871 178.62 226.889 179.728 225.368Z" fill="#C3BBAF"/>
<path d="M144.582 248.011C147.318 248.503 148.016 248.586 150.525 249.916C154.809 251.352 156.295 251.312 160.664 250.364C161.152 250.256 162.443 250.223 163.002 250.194C165.155 250.777 166.021 251.292 167.909 252.609C171.388 254.389 174.98 255.682 178.642 256.856C179.479 257.14 180.859 257.56 181.643 257.884L186.139 259.477C187.646 260.092 189.138 260.754 190.615 261.458L192.035 262.308C195.012 264.244 198.093 265.68 201.241 267.194C200.255 270.412 200.167 270.967 200.018 274.297L200.072 274.514C201.286 279.268 202.983 278.756 202.354 284.908C201.521 293.042 201.111 301.186 200.134 309.327C199.878 311.979 199.571 314.517 199.171 317.147C197.708 326.745 196.992 336.704 196.252 346.412C196.106 347.297 195.939 348.514 195.71 349.341L194.973 351.307L192.713 350.493C191.574 349.549 185.959 346.682 184.801 346.935C178.264 345.155 175.54 344.115 168.414 343.699C168.157 342.621 167.887 341.697 168.026 340.597L167.736 340.539C167.638 339.705 167.399 338.73 167.216 337.9C160.945 338.09 157.99 338.45 152.34 341.273C152.907 336.502 155.418 329.521 153.456 325.298C152.166 326.808 150.891 328.338 149.632 329.883C149.34 329.572 149.109 329.27 149.021 328.818C148.216 324.679 147.697 319.468 145.714 315.787L143.691 316.689L143.516 316.409C140.491 310.1 134.683 306.117 129.335 302.984C129.378 299.507 129.461 295.622 129.225 292.183C125.304 295.077 118.045 299.994 113.656 301.227C114.199 299.462 114.649 298.512 115.732 297.143C118.225 292.771 126.88 283.383 128.305 279.765C128.396 279.299 128.493 278.834 128.593 278.371C129.123 275.923 129.459 274.959 131.353 273.648C133.34 271.882 133.847 270.703 134.789 268.084C135.16 267.076 135.514 265.649 135.809 264.58C136.58 261.908 137.514 258.922 138.902 256.607C139.989 254.986 141.363 253.984 142.919 253.07C143.693 252.464 144.021 252.077 144.694 251.312C144.742 249.912 144.758 249.393 144.582 248.011Z" fill="#EFE8DE"/>
<path d="M192.795 317.006C189.524 315.899 186.206 314.991 182.852 314.287C179.559 313.627 176.238 313.312 173.003 312.364C172.162 312.118 170.88 312.543 170.053 312.111C170.867 312.044 171.514 311.621 172.287 311.357C180.543 308.542 189.457 306.876 198.021 308.618C198.79 308.774 199.435 308.906 200.134 309.327C199.878 311.979 199.571 314.517 199.171 317.147C197.708 326.745 196.991 336.704 196.251 346.412C196.106 347.297 195.939 348.514 195.71 349.341L194.973 351.307L192.713 350.493C191.574 349.549 185.959 346.682 184.801 346.935C178.264 345.155 175.54 344.115 168.414 343.699C168.157 342.621 167.887 341.698 168.026 340.597L167.736 340.539C167.638 339.705 167.399 338.73 167.216 337.9C167.076 337.645 166.94 337.386 166.807 337.126C165.13 333.808 165.437 332.099 166.246 328.552C169.566 331.216 171.912 334.899 174.845 337.92C172.432 333.678 170.632 330.326 168.045 326.142C168.322 325.343 168.674 324.607 169.02 323.847C172.28 325.375 176.871 329.726 179.451 332.508C181.639 334.866 183.373 337.529 185.754 339.817C182.832 329.981 177.845 325.627 170.686 319.82C177.262 318.498 183.645 322.886 188.888 327.005C185.039 321.635 179.719 318.605 173.994 317.098C172.912 316.814 171.975 315.944 170.718 316.027L171.057 315.955L171.106 316.1L171.351 315.998L171.398 316.145C174.766 316.492 178.219 316.369 181.557 316.821C185.514 317.355 188.835 317.326 192.795 317.006Z" fill="#C3BBAF"/>
<path d="M168.026 340.597C175.918 340.599 189.478 343.674 195.71 349.341L194.973 351.307L192.713 350.493C191.574 349.549 185.959 346.682 184.801 346.935C178.264 345.155 175.54 344.115 168.414 343.699C168.157 342.621 167.887 341.698 168.026 340.597Z" fill="#C13526"/>
<path d="M167.216 337.9C176.195 337.779 182.248 338.544 190.515 343.071C192.387 344.095 194.5 345.13 196.252 346.412C196.106 347.297 195.939 348.514 195.71 349.341C189.478 343.674 175.918 340.599 168.026 340.597L167.736 340.539C167.638 339.705 167.399 338.73 167.216 337.9Z" fill="#C13526"/>
<path d="M134.789 268.084C135.999 268.927 138.185 267.773 139.912 267.319C139.467 269.513 138.985 272.224 138.155 274.216C139.38 274.576 140.235 274.869 141.431 275.352C141.347 276.598 140.717 277.231 139.978 278.152L139.878 278.157C138.539 280.619 137.486 282.502 135.965 284.828C134.611 286.901 132.802 289.383 131.671 291.543C131.718 294.457 131.959 298.881 132.206 301.864C137.462 305.456 142.784 309.438 145.714 315.787L143.691 316.689L143.516 316.409C140.491 310.1 134.683 306.118 129.335 302.984C129.378 299.507 129.461 295.622 129.225 292.183C125.304 295.077 118.045 299.994 113.656 301.227C114.199 299.462 114.649 298.512 115.732 297.143C118.225 292.771 126.88 283.383 128.305 279.765C128.396 279.299 128.493 278.834 128.593 278.371C129.123 275.923 129.459 274.959 131.353 273.648C133.34 271.882 133.847 270.703 134.789 268.084Z" fill="#98281C"/>
<path d="M134.789 268.084C135.999 268.927 138.185 267.773 139.912 267.319C139.467 269.513 138.985 272.224 138.155 274.216L138.027 274.433C137.361 275.538 136.2 276.227 135.254 277.099L134.993 277.593C133.552 282.055 129.5 287.699 126.692 291.163C125.328 292.847 117.512 297.331 115.732 297.143C118.225 292.771 126.88 283.383 128.305 279.765C128.396 279.299 128.493 278.834 128.593 278.371C129.123 275.923 129.459 274.959 131.353 273.648C133.34 271.882 133.847 270.703 134.789 268.084Z" fill="#98281C"/>
<path d="M134.789 268.084C135.999 268.927 138.185 267.773 139.912 267.319C139.467 269.513 138.985 272.224 138.155 274.216L138.027 274.433C136.536 274.344 132.604 274.149 131.353 273.648C133.34 271.882 133.847 270.703 134.789 268.084Z" fill="#98281C"/>
<path d="M131.353 273.648C132.604 274.149 136.536 274.344 138.027 274.433C137.361 275.538 136.2 276.227 135.254 277.099L134.993 277.593C132.751 278.248 130.478 278.861 128.305 279.765C128.396 279.3 128.493 278.834 128.593 278.371C129.123 275.923 129.459 274.959 131.353 273.648Z" fill="#98281C"/>
<path d="M138.155 274.216C139.38 274.576 140.235 274.869 141.431 275.352C141.347 276.598 140.717 277.231 139.979 278.152L139.878 278.157C139.226 277.37 136.265 277.209 135.254 277.099C136.2 276.227 137.361 275.538 138.027 274.433L138.155 274.216Z" fill="#98281C"/>
<path d="M160.664 250.364C161.152 250.256 162.443 250.223 163.002 250.194C165.155 250.777 166.021 251.292 167.909 252.609C171.388 254.389 174.98 255.682 178.642 256.856C179.479 257.14 180.859 257.56 181.643 257.884L186.139 259.477C187.646 260.092 189.138 260.754 190.615 261.458L192.035 262.308C191.519 265.28 190.939 267.961 190.29 270.895L189.565 270.734C188.3 270.126 186.037 269.334 184.702 269.053C178.831 268.033 178.294 266.535 173.12 264.24C171.435 263.551 170.278 262.932 168.729 261.937C165.158 259.6 164.199 264.133 157.922 258.025L157.862 257.911C158.011 255.843 158.329 254.946 159.243 253.186L160.664 250.364Z" fill="#AC1F1A"/>
<path d="M163.002 250.194C165.155 250.777 166.021 251.292 167.909 252.609C166.432 253.076 165.572 253.251 164.053 253.506C163.65 253.465 163.247 253.416 162.845 253.358C161.916 252.358 162.511 251.341 163.002 250.194Z" fill="#AC1F1A"/>
<path d="M160.664 250.364C161.152 250.256 162.443 250.223 163.002 250.194C162.511 251.341 161.916 252.358 162.845 253.358C163.247 253.416 163.65 253.465 164.053 253.506C162.563 253.906 160.744 253.474 159.243 253.186L160.664 250.364Z" fill="#AC1F1A"/>
<path d="M144.582 248.011C147.318 248.503 148.016 248.586 150.525 249.916C154.809 251.352 156.295 251.312 160.664 250.364L159.243 253.186C158.329 254.946 158.011 255.843 157.862 257.911L157.922 258.025C154.536 260.42 150.323 258.665 147.263 258.497L147.266 258.372C145.963 258.048 144.694 258.014 143.375 258.195L143.243 258.285C141.629 257.703 140.318 257.6 138.902 256.607C139.989 254.986 141.363 253.984 142.919 253.07C143.693 252.464 144.021 252.077 144.694 251.312C144.742 249.912 144.758 249.393 144.582 248.011Z" fill="#98281C"/>
<path d="M149.492 255.243C152.134 256.212 155.441 256.818 157.862 257.911L157.922 258.025C154.536 260.42 150.323 258.665 147.263 258.497L147.266 258.372C147.798 257.741 148.964 255.997 149.492 255.243Z" fill="#98281C"/>
<path d="M142.919 253.07C143.983 253.461 145.096 253.752 146.183 254.058C145.22 255.639 144.462 256.719 143.375 258.195L143.243 258.285C141.629 257.703 140.318 257.6 138.902 256.607C139.989 254.986 141.363 253.984 142.919 253.07Z" fill="#98281C"/>
<path d="M168.729 261.937C170.278 262.932 171.435 263.551 173.12 264.24C172.548 268.27 176.997 278.009 179.897 280.769C182.651 283.39 185.743 284.895 188.581 287.022L188.362 287.095C182.165 284.955 174.929 279.333 170.368 274.087C166.831 270.021 164.813 268.062 160.651 264.614C164.966 265.703 170.525 269.659 173.768 273.107C172.822 271.546 172.082 268.74 171.259 266.852C170.433 264.96 169.539 263.672 168.729 261.937Z" fill="#C3BBAF"/>
<path d="M138.902 256.607C140.318 257.6 141.629 257.703 143.243 258.285L143.375 258.195C144.694 258.014 145.963 258.048 147.266 258.372L147.263 258.497C146.631 260.204 146.369 262.055 146.101 263.887L146.016 264.133C144.499 264.075 143.094 264.023 141.576 264.061L141.504 264.258C141.138 265.405 140.823 265.835 140.193 266.836L139.912 267.319C138.185 267.773 135.999 268.927 134.789 268.084C135.16 267.076 135.514 265.649 135.809 264.58C136.58 261.908 137.514 258.922 138.902 256.607Z" fill="#98281C"/>
<path d="M143.375 258.195C144.694 258.014 145.963 258.048 147.266 258.372L147.263 258.497C146.631 260.204 146.369 262.055 146.101 263.887L146.016 264.133C144.499 264.075 143.094 264.023 141.576 264.061C142.005 261.662 142.202 260.463 143.243 258.285L143.375 258.195Z" fill="#98281C"/>
<path d="M135.809 264.58C136.175 265.09 136.281 265.434 136.913 265.443C138.244 265.461 140.185 264.692 141.504 264.258C141.138 265.405 140.823 265.835 140.193 266.836L139.912 267.319C138.185 267.773 135.999 268.927 134.789 268.084C135.16 267.076 135.514 265.649 135.809 264.58Z" fill="#98281C"/>
<path d="M192.035 262.308C195.012 264.245 198.093 265.68 201.241 267.194C200.254 270.412 200.167 270.967 200.018 274.297C198.268 274.129 197.867 274.243 196.166 273.633C195.29 273.044 192.145 271.718 191.082 271.311L190.29 270.895C190.939 267.961 191.519 265.28 192.035 262.308Z" fill="#AC1F1A"/>
<path d="M184.702 269.053C186.037 269.334 188.3 270.126 189.565 270.734C190.095 272.425 191.754 275.697 192.456 277.577C194.568 283.235 196.716 288.913 198.025 294.893C195.115 288.797 192.015 283.311 188.702 277.524C187.186 274.874 186.525 271.814 184.702 269.053Z" fill="#C3BBAF"/>
<path d="M141.576 264.061C143.094 264.023 144.498 264.075 146.016 264.133C145.66 265.197 145.471 265.492 144.901 266.441L144.817 266.517C144.199 269.082 143.631 270.911 142.312 273.127C141.829 273.937 141.635 274.248 141.531 275.234L141.431 275.352C140.235 274.869 139.38 274.576 138.155 274.216C138.985 272.224 139.467 269.513 139.912 267.319L140.193 266.836C140.823 265.835 141.138 265.405 141.504 264.258L141.576 264.061Z" fill="#98281C"/>
<path d="M141.576 264.061C143.094 264.023 144.498 264.075 146.016 264.133C145.66 265.197 145.471 265.492 144.901 266.441L144.817 266.517C143.781 266.17 141.413 266.738 140.193 266.836C140.823 265.835 141.138 265.405 141.504 264.258L141.576 264.061Z" fill="#98281C"/>
<path d="M191.082 271.311C192.145 271.718 195.29 273.044 196.166 273.633C198.569 279.579 198.26 279.443 199.468 285.592C197.974 283.519 196.642 280.498 195.422 278.137C194.167 275.708 192.713 273.422 191.082 271.311Z" fill="#C3BBAF"/>
<path d="M151.009 264.781C151.868 264.81 152.441 264.918 153.199 264.457C153.901 265.148 155.821 268.69 156.515 269.737C160.274 275.402 164.462 280.313 169.704 284.175C171.173 285.257 172.778 286.449 174.157 287.701L173.995 287.871C166.737 283.135 160.03 276.609 155.338 268.57C154.751 268.272 153.443 267.657 152.939 267.32C152.798 266.447 151.739 265.841 151.009 264.781Z" fill="#98281C"/>
<path d="M146.101 263.887C147.231 264.095 149.974 264.703 151.009 264.781C151.739 265.841 152.798 266.447 152.939 267.319C149.621 266.32 148.31 266.092 144.901 266.441C145.471 265.492 145.66 265.197 146.016 264.133L146.101 263.887Z" fill="#98281C"/>
<path d="M141.431 275.352L141.531 275.234L142.269 275.594L142.277 275.829L142.376 275.967C142.978 276.835 143.605 278.345 144.169 278.881C143.39 279.367 141.023 278.313 139.978 278.152C140.717 277.231 141.347 276.598 141.431 275.352Z" fill="#98281C"/>
<path d="M139.915 298.935C140.469 298.807 145.743 299.406 146.439 299.572C146 299.63 145.891 299.664 145.467 299.813C146.063 299.751 146.295 299.923 146.828 300.2C146.34 300.598 146.424 299.827 145.566 300.352C145.824 300.715 147.911 301.113 148.9 301.755C149.514 301.938 150.083 302.043 150.55 302.539C149.36 302.101 140.061 299.053 139.915 298.935Z" fill="#98281C"/>
<path d="M29.5831 138.987C30.0951 137.961 30.6269 136.992 31.6712 136.65C32.0608 136.732 32.3928 136.731 32.5998 137.226C33.9479 140.447 34.249 144.3 35.5476 147.661C37.0309 151.499 39.2798 153.097 40.7344 156.874C41.7449 159.497 41.9314 162.702 42.6947 165.092C44.3483 166.974 46.9723 168.242 49.0692 169.351C52.7568 171.3 56.6659 172.562 60.6039 173.638C66.5435 175.261 72.6068 174.969 78.5577 176.627C82.114 177.617 85.0984 180.69 88.7602 180.918C90.9221 181.001 93.7906 178.305 95.8595 177.363C100.567 175.22 105.028 174.974 110.012 175.229C111.035 175.282 112.984 175.23 113.926 175.369C115.284 175.112 115.812 174.78 116.918 173.87C121.843 169.274 126.961 166.297 133.361 166.376C134.582 166.295 138.442 166.274 139.66 166.441C143.656 168.643 144.666 171.027 146.208 175.823C147.66 180.337 148.333 186.048 148.426 190.865C148.447 191.96 147.986 195.948 148.121 196.702L147.86 197.85C147.335 199.978 146.477 203.496 145.3 205.315C143.782 208.252 139.372 214.958 135.873 212.834C134.495 211.998 133.389 208.427 131.993 208.18C131.161 205.674 129.946 203.262 128.005 201.684C125.303 199.487 121.035 202.412 118.099 203.827C111.749 206.887 107.453 206.135 100.786 204.91C99.5925 204.69 96.4243 204.136 95.286 204.159C92.1308 204.222 88.7924 205.618 85.53 205.792C82.3839 205.959 79.9534 204.735 76.965 203.729C73.7722 202.654 69.5072 201.343 66.5252 199.703C59.5659 195.874 52.9287 190.651 46.1768 186.315C43.263 184.443 40.3512 182.287 37.3716 180.571C35.259 179.354 33.0252 180.223 30.7766 179.369C28.7769 178.608 26.1224 176.653 24.0584 176.57C22.0151 176.487 19.2308 177.916 17.1254 178.364C15.068 178.802 13.0773 179.152 11.2204 177.774C9.18566 173.015 20.4001 174.453 22.0607 170.807C21.5082 167.982 5.29398 168.177 4.98817 163.684C6.53422 159.49 19.2004 164.875 21.325 163.381C20.2117 160.451 3.3725 158.279 4.50433 153.01C5.45313 148.594 20.493 158.254 22.3977 157.134C22.6518 153.93 9.61876 147.2 8.91607 143.557C9.90849 137.388 24.146 151.001 25.7963 152.748C27.1935 153.586 29.6338 154.003 31.1208 153.295C31.4073 152.944 31.7132 152.612 31.6023 152.061C30.5867 147.019 28.7066 144.508 29.5831 138.987Z" fill="#D37F4D"/>
<path d="M11.2204 177.774C11.9238 177.112 11.8657 177.232 12.8198 177.172C16.4223 176.944 19.8135 175.181 23.2622 174.42C24.165 174.214 25.0893 174.16 26.0054 174.262C27.3106 174.412 28.5636 174.96 29.7719 175.516C33.9324 177.433 35.599 176.589 39.5325 174.947C39.8638 175.596 40.1276 176.5 40.7594 176.885C51.0167 183.139 60.6782 190.56 71.1456 196.375C74.0835 198.007 76.3787 198.8 79.4705 199.712C85.5176 201.498 89.2094 199.127 94.1173 195.433C92.9389 197.11 92.1443 198.257 91.1522 200.072C98.1096 199.819 107.147 200.683 113.741 197.462C116.861 195.937 121.171 192.351 124.223 190.491C126.047 189.379 129.832 187.103 131.822 188.341C132.026 188.468 132.254 188.464 132.487 188.478C129.8 184.788 126.947 182.65 123.308 180.416C124.415 180.697 128.217 181.603 128.993 182.149C130.376 183.517 133.578 184.819 135.331 185.846C137.35 187.028 139.76 188.425 141.611 189.911C144.073 191.888 145.569 195.585 147.86 197.85C147.335 199.978 146.477 203.496 145.3 205.315C143.782 208.252 139.372 214.958 135.873 212.834C134.494 211.998 133.389 208.427 131.993 208.18C131.161 205.674 129.946 203.262 128.005 201.684C125.303 199.487 121.035 202.412 118.099 203.827C111.749 206.887 107.453 206.135 100.786 204.91C99.5925 204.69 96.4243 204.136 95.2859 204.159C92.1307 204.222 88.7924 205.618 85.53 205.792C82.3839 205.959 79.9534 204.735 76.965 203.729C73.7721 202.654 69.5071 201.343 66.5252 199.703C59.5659 195.873 52.9286 190.651 46.1768 186.315C43.263 184.443 40.3511 182.287 37.3715 180.571C35.2589 179.354 33.0251 180.223 30.7766 179.369C28.7768 178.608 26.1224 176.653 24.0583 176.57C22.0151 176.487 19.2308 177.916 17.1253 178.364C15.068 178.802 13.0773 179.152 11.2204 177.774Z" fill="#B7695A"/>
<path d="M128.993 182.149C130.376 183.517 133.578 184.819 135.331 185.846C137.35 187.028 139.76 188.425 141.611 189.911C144.073 191.888 145.569 195.585 147.86 197.85C147.335 199.978 146.477 203.496 145.3 205.315C144.541 202.166 141.853 196.398 139.059 195.344C135.121 193.858 129.909 194.752 126.123 196.524C130.227 192.055 133.71 192.357 138.488 191.106C137.62 189.506 130.033 184.877 128.685 182.391L128.993 182.149Z" fill="#864B4D"/>
<path d="M133.361 166.376C134.582 166.295 138.442 166.274 139.66 166.441C143.656 168.643 144.666 171.027 146.208 175.823C147.66 180.337 148.333 186.048 148.426 190.865C148.447 191.96 147.986 195.948 148.121 196.702L147.86 197.85C145.569 195.585 144.073 191.888 141.611 189.911C139.76 188.425 137.35 187.028 135.331 185.846C133.578 184.819 130.376 183.517 128.993 182.149C133.661 182.981 144.713 189.419 147.905 193.335C147.947 185.064 147.191 174.964 142.138 168.509C141.774 170.631 141.383 171.194 140.036 172.635C140.73 171.409 142.287 169.372 141.242 168.107C139.78 167.534 138.369 167.648 136.897 167.685C137.148 167.341 138.205 167.126 138.625 167.023L138.575 166.814C137.411 166.821 134.323 166.875 133.361 166.376Z" fill="#B7695A"/>
<path d="M29.5831 138.987C30.0898 139.665 30.1524 140.477 30.3287 141.331C30.8248 143.73 31.8167 145.711 32.9749 147.755L32.9121 147.991L32.7251 148.073C32.7517 149.797 32.7779 152.142 31.6475 153.407C30.5626 154.62 26.9929 154.046 25.8889 153.202C25.813 152.968 25.772 152.956 25.7963 152.748C27.1935 153.586 29.6338 154.003 31.1208 153.295C31.4073 152.944 31.7132 152.612 31.6023 152.061C30.5867 147.019 28.7066 144.508 29.5831 138.987Z" fill="#B7695A"/>
<path d="M32.9749 147.755C34.822 150.104 34.0088 160.367 33.5799 163.627C33.8782 164.398 34.1742 165.195 34.5866 165.903C35.0092 166.629 36.8229 168.118 36.9686 168.761C36.3641 168.709 36.04 168.265 35.6129 167.828C33.2305 165.394 32.615 161.778 32.8397 158.231C33.08 154.438 34.8525 151.714 32.9122 147.991L32.9749 147.755Z" fill="#B26352"/>
<path d="M116.918 173.87C118.145 175.363 121.4 177.759 123.011 178.899C122.663 178.87 114.262 175.605 113.926 175.369C115.284 175.112 115.812 174.78 116.918 173.87Z" fill="#B26352"/>
<path d="M123.77 184.474L123.976 184.536L123.98 184.927C122.992 186.877 122.283 188.228 120.607 189.546C113.896 194.826 104.968 193.928 97.4528 192.385L97.0694 192.263C97.3764 192.083 97.2859 192.223 97.4083 191.906C97.1715 191.587 97.1878 191.698 97.0993 191.332C101.991 192.001 113.455 189.876 118.343 187.617C120.009 186.847 121.972 185.418 123.77 184.474Z" fill="#B7695A"/>
<path d="M71.4063 180.751C73.8097 181.762 75.6639 182.297 78.1428 183.012C82.9016 184.244 85.0874 184.232 89.8795 182.986C88.4224 185.044 87.133 185.658 85.4308 187.342C85.3531 187.665 85.2868 187.941 85.2315 188.17C81.9502 189.08 76.3657 185.03 73.8337 182.869C73.0073 182.189 72.1978 181.483 71.4063 180.751Z" fill="#B7695A"/>
<path d="M71.4063 180.751C73.8097 181.762 75.6639 182.297 78.1428 183.012C76.7922 183.531 75.4598 182.983 73.8337 182.869C73.0073 182.189 72.1978 181.483 71.4063 180.751Z" fill="#B26352"/>
<path d="M41.8001 171.809L42.045 171.124C43.3998 170.861 46.2586 173.138 46.5571 174.754C48.2375 175.938 52.2689 178.26 53.4618 179.558C51.3877 178.431 42.5708 173.713 41.8001 171.809Z" fill="#B26352"/>
<path d="M41.8001 171.809L42.045 171.124C43.3998 170.861 46.2586 173.138 46.5571 174.754C45.3791 174.105 42.8798 171.818 41.8001 171.809Z" fill="#C57556"/>
<path d="M40.9578 173.435C41.7119 173.599 46.675 177.133 47.2616 177.893C45.8414 177.498 42.9596 176.09 41.805 175.058C41.0698 174.4 41.0685 174.324 40.9578 173.435Z" fill="#B26352"/>
<path d="M113.656 301.227C118.045 299.994 125.304 295.077 129.225 292.183C129.461 295.622 129.378 299.507 129.335 302.984C134.682 306.118 140.491 310.1 143.516 316.409L143.691 316.689L145.714 315.787C147.697 319.468 148.216 324.679 149.021 328.819C149.109 329.27 149.34 329.572 149.631 329.883C148.698 331.285 147.942 332.01 146.987 333.249C146.229 334.362 145.827 334.939 144.921 335.937C143.287 336.791 141.311 336.429 139.599 335.995C132.827 344.878 127.553 352.479 117.538 356.84C116.957 357.381 115.257 358.215 114.991 358.555C111.191 363.394 106.96 364.428 101.829 366.968C100.919 367.632 100.489 368.026 99.6687 368.835C94.6786 374.415 88.8946 381.768 82.5216 384.7C78.493 386.554 74.805 387.79 70.7399 389.902C70.052 390.501 69.5441 390.792 68.78 391.257C65.7343 393.638 63.5491 395.311 60.7794 398.113C58.2011 397.071 57.7064 397.409 55.1414 395.528L55.1436 395.461C51.2325 392.4 51.1322 387.048 51.5015 382.229C58.4341 375.077 64.5583 360.319 71.7355 352.801C75.3988 348.963 80.8692 346.973 85.4544 345.334C89.4833 343.891 96.6403 342.834 99.3719 339.226C101.856 335.948 103.932 330.572 105.943 326.705C106.158 325.972 108.771 320.332 109.232 319.307C109.7 317.342 112.902 311.08 113.854 308.146C113.671 306.954 113.533 306.057 113.459 304.838C113.357 303.532 113.384 302.497 113.656 301.227Z" fill="#D37F4D"/>
<path d="M118.592 344.464C118.741 349.701 119.353 351.13 116.755 355.317C116.655 356.298 115.695 357.307 114.921 357.721C116.057 357.674 117.043 356.332 117.538 356.84C116.957 357.381 115.257 358.215 114.991 358.555C111.191 363.394 106.96 364.428 101.829 366.968C100.92 367.632 100.489 368.026 99.6687 368.835C94.6787 374.415 88.8946 381.768 82.5217 384.7C78.493 386.554 74.8051 387.79 70.7399 389.902C70.052 390.501 69.5441 390.792 68.78 391.257C65.7344 393.638 63.5491 395.311 60.7795 398.113C58.2011 397.071 57.7064 397.409 55.1415 395.528L55.1436 395.461C56.9734 393.766 58.7591 391.838 60.5829 390.083C65.2624 385.512 70.0464 381.084 74.9296 376.806C77.3073 374.679 79.7295 372.621 82.194 370.631C85.4889 368.012 89.4254 365.716 91.3667 361.545C92.8156 358.432 94.0229 355.489 95.8428 352.613C95.3151 355.44 94.1294 358.032 93.8483 359.908C94.1304 360.409 93.9577 360.259 94.5132 360.42C95.037 359.926 96.5704 359.344 97.4178 358.834C100.379 357.05 102.238 353.206 103.632 349.782C107.08 350.464 106.776 351.544 109.643 354.031C111.223 355.402 113.194 355.071 114.724 353.338C114.813 353.237 115.379 351.392 115.664 350.878C116.272 349.739 116.34 347.765 116.431 346.414C116.545 346.96 116.457 349.111 116.443 349.795C116.871 349.046 116.818 347.961 117.563 347.223L118.592 344.464Z" fill="#B1605A"/>
<path d="M70.7399 389.902C70.9509 389.063 72.2877 388.43 72.9116 387.806C79.9771 380.737 87.1751 373.046 96.2569 369.625C97.2743 369.24 98.5698 368.708 99.6687 368.835C94.6786 374.415 88.8946 381.768 82.5217 384.7C78.493 386.554 74.8051 387.79 70.7399 389.902Z" fill="#B7695A"/>
<path d="M68.78 391.257L68.4745 390.827C69.1481 387.636 87.4781 371.906 90.8565 370.032C92.9328 368.878 99.7344 365.284 101.829 366.968C100.92 367.632 100.489 368.026 99.6687 368.835C98.5698 368.708 97.2743 369.24 96.2569 369.625C87.1751 373.046 79.9771 380.737 72.9116 387.806C72.2877 388.43 70.9509 389.063 70.7399 389.902C70.052 390.501 69.5441 390.792 68.78 391.257Z" fill="#864B4D"/>
<path d="M118.592 344.464C118.741 349.701 119.353 351.13 116.755 355.317C116.53 355.46 115.833 356.361 115.547 356.665C114.54 357.741 113.858 358.17 112.653 358.819C113.238 357.895 114.13 356.84 114.638 355.918C116.001 353.443 116.824 350.032 117.563 347.223L118.592 344.464Z" fill="#864B4D"/>
<path d="M119.155 336.932C118.967 340.083 121.488 343.518 120.173 346.664C119.977 347.134 119.853 347.946 119.779 348.474C120.347 347.062 120.798 347.494 121.62 346.939C122.86 346.107 124.12 344.551 125.153 343.415C129.471 338.663 133.541 332.88 136.319 326.779C136.741 325.853 137.24 324.882 137.553 323.816C137.927 322.539 136.269 320.59 136.148 320.2C135.37 317.673 135.27 318.588 133.691 316.206L133.976 315.859L133.953 315.479L134.326 315.602L134.848 315.374C134.868 316.231 137.437 319.561 137.016 320.2L134.228 317.038C133.384 315.491 132.969 313.71 131.339 312.202C129.934 311.214 125.02 299.897 114.613 305.389C114.902 304.557 126.531 292.992 127.332 294.072C126.898 305.722 138.241 318.804 138.75 319.202C141.339 323.988 141.362 328.868 140.214 334.396C140.188 334.521 140.161 334.644 140.133 334.769C139.843 335.21 139.596 335.465 139.599 335.995C132.827 344.877 127.553 352.479 117.538 356.84C117.043 356.332 116.057 357.674 114.921 357.721C115.696 357.307 116.655 356.298 116.755 355.317C119.353 351.13 118.742 349.701 118.592 344.464L117.563 347.223C116.818 347.961 116.871 349.046 116.443 349.795C116.457 349.111 116.545 346.96 116.431 346.414C116.34 347.765 116.272 349.739 115.664 350.878C115.65 350.551 115.904 347.635 115.941 347.074C115.532 348.456 114.355 352.98 113.545 353.733C113.441 352.982 113.965 352.083 114.277 351.24C115.59 347.689 116.532 343.214 117.084 339.41C117.135 339.056 117.055 339.074 117.19 338.455C117.563 338.099 118.699 337.281 119.155 336.932Z" fill="#B0615B"/>
<path d="M111.073 357.549L111.525 357.692C112.355 361.936 103.604 363.618 103.039 364.591L103.239 365.174C102.838 365.535 101.095 365.215 100.439 365.179C99.0308 365.103 97.6988 365.172 96.2874 365.248C95.5891 365.262 95.4462 365.266 94.7444 365.065C96.5298 363.855 101.221 362.726 103.407 361.847C106.464 360.619 108.3 359.378 111.073 357.549Z" fill="#864B4D"/>
<path d="M113.656 301.227C118.045 299.994 125.304 295.077 129.225 292.183C129.461 295.622 129.378 299.507 129.335 302.984C134.683 306.118 140.491 310.1 143.516 316.409L143.691 316.689L145.714 315.787C147.697 319.468 148.216 324.679 149.021 328.818C149.109 329.27 149.34 329.572 149.631 329.883C148.698 331.285 147.942 332.01 146.987 333.249C146.229 334.362 145.827 334.939 144.921 335.937C143.287 336.791 141.311 336.429 139.599 335.995C139.596 335.465 139.843 335.21 140.133 334.769C140.161 334.644 140.188 334.521 140.213 334.396C141.362 328.868 140.455 324.154 137.866 319.368C135.182 312.737 130.812 310.651 127.32 305.782C125.033 304.521 125.846 302.819 126.15 300.299C126.322 298.867 126.53 297.488 126.682 296.05C125.139 296.443 121.384 298.398 120.128 299.502C118.536 301.285 116.917 303.83 115.629 305.216L114.839 306.601L114.302 307.267L113.854 308.146C113.671 306.954 113.533 306.057 113.459 304.838C113.357 303.532 113.384 302.497 113.656 301.227Z" fill="#98281C"/>
<path d="M143.691 316.689L145.714 315.787C147.697 319.468 148.216 324.679 149.021 328.818C149.109 329.27 149.34 329.572 149.631 329.883C148.698 331.285 147.942 332.01 146.987 333.249C146.229 334.362 145.827 334.939 144.921 335.937C143.287 336.791 141.311 336.429 139.599 335.995C139.596 335.465 139.843 335.21 140.133 334.769C141.01 333.741 142.476 331.536 143.318 330.346C143.635 329.713 144.288 328.745 144.683 328.123C144.137 324.558 143.077 321.056 141.346 318.024C141.994 317.447 142.826 317.152 143.516 316.409L143.691 316.689Z" fill="#98281C"/>
<path d="M143.691 316.689L145.714 315.787C147.697 319.468 148.216 324.679 149.021 328.818C149.109 329.27 149.34 329.572 149.631 329.883C148.698 331.285 147.942 332.01 146.987 333.249C147.259 326.475 146.382 322.856 143.691 316.689Z" fill="#98281C"/>
<path d="M143.318 330.346C144.069 332.678 142.773 334.371 144.921 335.937C143.287 336.791 141.311 336.429 139.599 335.995C139.596 335.465 139.843 335.21 140.133 334.769C141.01 333.741 142.476 331.536 143.318 330.346Z" fill="#69221E"/>
<path d="M127.32 305.782C132.69 307.824 138.267 312.549 141.346 318.024C143.077 321.056 144.137 324.558 144.683 328.123C144.288 328.745 143.635 329.713 143.318 330.346C142.476 331.536 141.01 333.741 140.133 334.769C140.161 334.644 140.188 334.521 140.213 334.396C141.362 328.868 140.455 324.154 137.866 319.368C135.182 312.737 130.812 310.651 127.32 305.782Z" fill="#864B4D"/>
<path d="M113.46 304.838C115.116 301.097 116.683 300.999 120.128 299.502C118.536 301.285 116.917 303.83 115.629 305.216L114.839 306.601L114.302 307.267L113.854 308.146C113.671 306.954 113.533 306.057 113.46 304.838Z" fill="#98281C"/>
<path d="M114.302 307.267C113.832 306.211 114.473 304.288 115.315 303.687C115.739 304.147 115.598 304.349 115.629 305.216L114.839 306.601L114.302 307.267Z" fill="#69221E"/>
<path d="M126.12 326.607C125.427 328.89 120.926 335.362 119.155 336.932C118.699 337.281 117.563 338.099 117.189 338.455C116.784 338.683 116.373 338.893 115.956 339.09C114.072 339.953 110.913 340.691 109.02 339.765C110.268 338.987 112.102 339.036 113.873 337.981C118.275 335.357 122.705 330.684 126.12 326.607Z" fill="#B26352"/>
<path d="M109.232 319.307C109.009 323.445 107.539 328.924 106.773 333.061C106.483 334.628 105.86 335.903 105.705 337.511C105.379 333.839 106.191 328.327 105.943 326.705C106.158 325.972 108.771 320.332 109.232 319.307Z" fill="#B26352"/>
<path d="M80.2201 354.899C80.3708 354.934 80.3217 354.939 80.4673 355.1C75.5719 360.02 69.2147 364.703 64.0327 369.513L63.7595 369.555L63.7628 369.222C67.7801 363.189 74.0565 357.667 80.2201 354.899Z" fill="#B26352"/>
<path d="M102.745 344.522L103.018 344.632C103.636 347.467 98.4606 354.729 96.6388 356.708L96.3575 356.752C97.5821 353.181 100.281 347.228 102.745 344.522Z" fill="#B26352"/>
<path d="M150.077 6.08862C150.446 6.11566 150.992 6.21383 151.249 6.50952C154.418 10.1594 158.105 14.8071 161.019 18.6196C165.697 24.7647 170.103 31.1776 174.219 37.8338C176.007 40.7613 177.625 44.1536 179.452 46.954C185.334 55.9751 190.57 65.0955 195.142 75.0874C196.551 78.1659 198.539 81.7414 199.47 85.129C201.163 94.7787 200.989 106.18 201.428 116.041C201.608 120.065 201.853 124.213 201.709 128.06C201.451 135.04 199.516 142.241 199.025 149.063C198.462 156.861 200.802 164.142 202.189 171.48C203.014 175.846 203.317 180.316 204.277 184.988L204.1 185.192L203.686 185.189C200.919 183.247 195.925 176.779 193.389 173.754C192.16 172.588 188.902 168.008 187.963 166.432L186.605 164.571C183.735 160.734 181.005 158.22 177.717 154.933C175.573 153.322 174.007 152.366 171.654 151.203C172.811 149.383 172.492 146.715 172.518 144.499C172.531 142.354 172.68 140.214 172.967 138.094C173.471 134.572 174.262 132.091 175.782 129.031C176.883 127.105 177.87 124.802 179.032 122.761C179.028 122.355 178.772 120.929 178.694 120.449C176.926 116.089 176.749 107.331 177.653 102.647C178.22 99.713 179.147 96.3793 179.866 93.4275C180.977 88.8621 179.119 86.9706 177.417 83.2006C174.55 77.1404 173.009 70.6631 171.114 64.2005C170.11 60.8789 168.991 57.6054 167.759 54.3871C167.133 52.7134 166.194 50.0857 165.393 48.5934C164.961 47.6756 164.179 45.281 163.665 44.1208C161.596 39.4605 159.687 37.0092 156.235 33.7965L155.249 32.985C152.24 30.9647 147.836 28.2782 144.238 28.5145C143.297 27.936 142.467 27.9517 141.431 27.9488C139.491 28.0044 138.208 28.627 136.266 28.3886C136.988 28.1981 137.888 27.7005 138.586 27.3485C135.339 25.3497 134.183 22.5514 138.918 22.4805C141.61 22.4405 147.295 24.6786 149.573 23.3448C149.822 20.3934 134.84 15.6926 135.712 11.5057C137.468 8.26584 146.91 14.7802 149.172 15.858C150.95 16.7047 152.933 17.5922 154.683 18.4707C153.6 16.4623 152.019 14.8251 150.667 12.9334C149.086 10.9963 148.119 8.15472 150.077 6.08862Z" fill="#D37F4D"/>
<path d="M171.654 151.203C172.811 149.383 172.492 146.715 172.518 144.499C172.531 142.354 172.68 140.214 172.967 138.094C173.471 134.572 174.262 132.091 175.782 129.031C174.221 140.845 174.719 143.428 177.717 154.933C175.573 153.322 174.007 152.366 171.654 151.203Z" fill="#B7695A"/>
<path d="M187.963 166.432C188.004 162.08 185.342 150.626 184.518 145.619C186.017 150.001 187.893 154.239 189.112 158.756C189.619 160.635 190.091 162.522 190.605 164.4C191.183 167.916 192.125 170.48 193.389 173.754C192.16 172.588 188.902 168.008 187.963 166.432Z" fill="#864B4D"/>
<path d="M182.728 139.136C183.209 139.357 183.077 139.212 183.359 139.657C183.61 140.726 183.757 141.801 184.067 142.866C185.262 146.978 190.844 160.952 190.605 164.4C190.091 162.522 189.619 160.635 189.112 158.756C187.893 154.239 186.017 150.001 184.518 145.619C185.342 150.626 188.003 162.08 187.963 166.432L186.605 164.571L186.928 164.55C187.297 163.146 182.941 143.529 182.728 139.136Z" fill="#AC5F55"/>
<path d="M178.694 120.449C180.927 122.394 181.029 128.274 182.211 131.206C182.42 131.725 182.488 132.544 182.463 133.123C182.198 132.827 181.762 130.895 181.503 130.19C180.795 128.263 179.254 125.833 179.021 123.804C178.996 123.588 179.061 123.106 179.032 122.761C179.028 122.355 178.772 120.929 178.694 120.449Z" fill="#B26352"/>
<path d="M150.667 12.9334C149.086 10.9963 148.119 8.15472 150.077 6.08862C150.338 8.55945 150.742 8.71239 151.156 10.8293L150.685 10.2321C150.145 11.144 150.965 10.6908 150.288 11.6158L150.362 11.6948C150.612 11.9674 150.661 12.0034 150.832 12.3648L150.667 12.9334Z" fill="#B26352"/>
<path d="M182.728 139.136C182.458 138.22 182.315 136.453 182.655 135.53C182.888 135.801 183.313 137.672 183.764 138.658L183.692 139.146L183.626 139.13L183.599 138.857C183.327 139.17 183.414 139.096 183.359 139.657C183.077 139.212 183.209 139.357 182.728 139.136Z" fill="#A05754"/>
<path d="M158.791 24.8711L159.267 25.1403C159.277 25.7553 159.316 25.6547 159.466 26.195C160.004 28.1223 159.909 30.6719 160.549 32.6177C161.649 35.9615 163.048 38.1325 165.793 39.7042L165.989 40.0783L165.843 40.471C164.867 40.724 163.19 39.8511 162.473 39.0897C158.895 35.2866 159.18 29.9453 158.791 24.8711Z" fill="#864B4D"/>
<path d="M160.458 31.0981C162.429 31.8064 162.641 34.6582 164.14 35.9405C165.183 36.8332 166.623 37.6783 167.725 38.5471C168.234 38.9483 169.47 39.1438 170.201 39.4797C170.212 40.2183 170.016 40.3 169.619 41.0219C169.351 41.1587 169.487 41.1341 169.201 41.0476L169.47 40.1747C169.116 39.6713 168.478 39.6673 167.898 39.5709C162.789 38.7229 162.284 35.7546 160.458 31.0981Z" fill="#C57556"/>
<path d="M152.34 341.273C157.99 338.45 160.945 338.09 167.216 337.9C167.399 338.73 167.638 339.705 167.736 340.539L168.026 340.597C167.887 341.697 168.157 342.621 168.414 343.699C175.54 344.115 178.264 345.155 184.801 346.935C185.959 346.682 191.574 349.549 192.713 350.493L194.973 351.307C194.065 352.714 193.309 353.009 192.268 354.053C190.945 357.828 190.447 362.084 189.347 365.975C187.68 371.87 179.084 396.492 176.317 400.063C174.899 401.895 172.911 403.013 170.978 403.957C163.052 407.819 153.094 411.258 144.665 413.607C141.082 414.588 137.494 415.55 133.902 416.487C131.99 416.99 127.886 417.929 126.318 418.831C123.526 416.995 123.474 415.568 121.869 412.56C121.636 411.782 121.392 410.404 121.22 409.563C121.077 406.423 121.093 405.542 121.708 402.499L123.008 399.12C130.518 395.213 132.07 393.433 137.053 386.176C141.193 380.144 147.07 378.516 153.603 378.235C155.104 377.749 155.751 376.689 156.089 374.945C157.397 368.189 157.26 361.18 157.327 354.301L157.183 350.933C154.965 349.746 153.609 349.216 152.425 346.646C152.32 346.058 152.281 344.909 152.244 344.269C152.221 343.124 152.25 342.413 152.34 341.273Z" fill="#B7695A"/>
<path d="M153.603 378.235C154.365 378.387 154.923 378.393 155.472 377.693C155.238 378.469 153.87 382.888 153.828 383.454C153.441 388.678 153.453 391.93 148.692 394.506C145.068 396.465 140.587 398.386 136.682 399.8C135.448 400.247 131.545 400.806 130.956 401.251C130.266 400.945 128.123 401.714 127.482 402.031C127.341 402.101 127.203 402.177 127.069 402.26C124.477 400.502 124.532 403.722 121.708 402.499L123.008 399.12C130.518 395.213 132.07 393.433 137.053 386.176C141.193 380.144 147.07 378.516 153.603 378.235Z" fill="#CC7F55"/>
<path d="M152.34 341.273C157.99 338.45 160.945 338.09 167.216 337.9C167.399 338.73 167.638 339.705 167.736 340.539L168.026 340.597C167.887 341.697 168.157 342.621 168.414 343.699C175.54 344.115 178.264 345.155 184.801 346.935L184.914 347.241C184.28 347.248 183.934 347.02 183.355 346.825C176.224 344.419 165.03 342.925 157.817 345.115C157.804 345.926 157.906 347.85 157.578 348.353C157.58 349.688 157.651 353.121 157.327 354.301L157.183 350.933C154.966 349.746 153.609 349.216 152.425 346.646C152.32 346.058 152.281 344.909 152.244 344.269C152.221 343.124 152.25 342.413 152.34 341.273Z" fill="#98281C"/>
<path d="M152.34 341.273C157.99 338.45 160.945 338.09 167.216 337.9C167.399 338.73 167.638 339.705 167.736 340.539C162.126 341.107 157.406 341.147 152.244 344.269C152.221 343.124 152.25 342.413 152.34 341.273Z" fill="#98281C"/>
<path d="M157.567 344.802C157.568 345.703 157.52 347.53 157.578 348.353C157.58 349.688 157.651 353.121 157.327 354.301L157.183 350.934C154.966 349.746 153.609 349.216 152.425 346.646C153.947 346.776 156.024 345.441 157.567 344.802Z" fill="#69221E"/>
<path d="M130.956 401.251C131.857 401.515 135.206 400.623 136.16 400.289C135.669 400.768 134.305 401.153 133.383 401.696C131.786 401.929 130.427 402.839 128.661 403.277C131.52 403.747 135.164 403.317 138.105 403.252L137.975 403.342C137.453 403.704 137.355 403.762 136.755 403.952C136.987 404.214 137.036 404.272 137.303 404.48C132.207 405.831 126.397 407.98 121.22 409.563C121.077 406.424 121.093 405.542 121.708 402.499C124.532 403.722 124.477 400.502 127.069 402.26C127.203 402.177 127.341 402.101 127.482 402.031C128.123 401.714 130.266 400.945 130.956 401.251Z" fill="#C57556"/>
<path d="M153.663 397.134C150.319 399.815 147.487 401.349 143.439 402.206C142.939 402.311 140.124 402.964 139.876 403.167L138.105 403.252C135.164 403.317 131.52 403.747 128.661 403.277C130.427 402.839 131.786 401.928 133.383 401.696C134.751 401.515 136.732 400.321 137.628 400.294C144.124 400.106 147.486 400.025 153.663 397.134Z" fill="#864B4D"/>
<path d="M192.713 350.493L194.973 351.307C194.065 352.714 193.309 353.009 192.268 354.053C192.177 352.55 192.04 351.795 192.713 350.493Z" fill="#69221E"/>
<path d="M138.105 403.252L139.876 403.167C139.423 404.149 138.226 404.277 137.303 404.48C137.036 404.272 136.987 404.214 136.755 403.952C137.355 403.762 137.453 403.704 137.975 403.342L138.105 403.252Z" fill="#B26352"/>
<path d="M136.266 28.3886C138.208 28.627 139.491 28.0044 141.431 27.9487C142.467 27.9516 143.297 27.936 144.238 28.5145C147.836 28.2781 152.24 30.9646 155.249 32.9849L156.235 33.7965C159.687 37.0092 161.596 39.4605 163.665 44.1207C164.179 45.2809 164.961 47.6756 165.393 48.5934C165.783 50.6081 166.406 53.7166 166.48 55.7546C166.714 57.2024 166.64 58.7226 166.622 60.2011C165.851 67.5973 163.71 74.1043 158.756 79.2005C157.702 80.4246 157.177 80.9271 155.977 81.9614C150.69 86.3037 144.961 88.142 138.463 87.4798L137.106 87.2722C131.234 85.8656 127.726 84.1859 123.244 79.4668L122.105 78.091C117.377 71.9867 114.319 62.5467 115.524 54.3513C115.598 53.0553 115.83 51.3436 116.207 50.1347C116.511 48.65 116.922 47.1968 117.434 45.7902C119.846 39.2804 124.501 33.3479 130.269 30.6762C130.893 30.3103 131.736 29.9156 132.393 29.5826C133.669 29.0235 134.911 28.5993 136.266 28.3886Z" fill="black"/>
<path d="M123.244 79.4668C123.702 65.5926 132.736 48.0126 144.629 43.5049C147.471 57.1087 144.001 75.8607 137.106 87.2723C131.234 85.8656 127.726 84.1859 123.244 79.4668Z" fill="#EF7340"/>
<path d="M145.755 43.2779C148.513 42.8217 150.059 42.6969 152.816 43.7124C157.554 53.911 161.556 63.2499 158.759 75.0371C158.273 77.0869 156.133 80.4828 155.977 81.9614C150.69 86.3037 144.961 88.142 138.463 87.4798C144.827 76.6464 148.885 56.0782 145.755 43.2779Z" fill="#EF7340"/>
<path d="M141.685 37.1249C142.837 38.6109 143.657 40.4648 144.323 42.2968C132.389 46.0507 123.156 64.6993 122.105 78.0911C117.377 71.9868 114.319 62.5468 115.524 54.3513C120.155 45.3436 125.118 41.3811 134.064 38.7348C136.571 38.004 139.117 37.4661 141.685 37.1249Z" fill="#EF7340"/>
<path d="M154.649 44.5844C154.79 44.6476 154.929 44.7143 155.067 44.7843C161.262 47.8914 164.26 53.2687 166.622 60.2011C165.851 67.5973 163.71 74.1043 158.756 79.2005C158.95 77.3754 160.225 74.2289 160.525 71.8327C161.864 61.1654 158.604 53.6529 154.649 44.5844Z" fill="#EF7340"/>
<path d="M116.207 50.1347C116.511 48.65 116.922 47.1968 117.434 45.7901C119.846 39.2804 124.501 33.3479 130.269 30.6761L130.456 30.7381C131.522 31.0854 132.248 31.093 133.282 31.3383C136.39 32.0761 138.524 33.4405 140.839 35.8857C133.344 36.7845 123.414 40.3776 118.369 47.3238C117.785 48.128 116.917 49.6369 116.207 50.1347Z" fill="#EF7340"/>
<path d="M156.235 33.7965C159.687 37.0092 161.596 39.4605 163.664 44.1207C164.179 45.2809 164.961 47.6756 165.393 48.5934C165.783 50.6081 166.406 53.7166 166.48 55.7546C166.181 55.3878 164.628 52.5112 164.175 51.7887C161.21 47.0626 158.028 44.3652 153.289 42.4388C152.233 40.5064 151.096 38.1723 150.075 36.1847C152.709 35.6567 153.921 35.2837 156.235 33.7965Z" fill="#EF7340"/>
<path d="M136.266 28.3886C138.208 28.627 139.491 28.0044 141.431 27.9487C144.516 30.2868 145.822 31.4808 147.935 35.0565C146.055 35.2047 143.964 35.5082 142.154 35.6106C138.599 31.7087 137.1 31.1321 132.393 29.5826C133.669 29.0235 134.911 28.5993 136.266 28.3886Z" fill="#EF7340"/>
<path d="M144.238 28.5146C147.836 28.2782 152.24 30.9647 155.249 32.985C152.946 34.2675 151.776 34.4019 149.256 34.9304C147.466 32.0138 146.569 30.8122 144.238 28.5146Z" fill="#EF7340"/>
<path d="M148.587 36.3484C149.245 36.7697 151.197 40.9217 151.699 41.9128C149.6 41.5624 148.414 41.4819 146.298 41.7518C144.973 41.9757 143.729 38.2689 142.995 36.8355C144.917 36.5866 146.665 36.4676 148.587 36.3484Z" fill="#EF7340"/>
<path d="M38.8871 396.141C41.2977 394.482 49.0187 385.152 51.5015 382.229C51.1323 387.048 51.2325 392.4 55.1436 395.461L55.1415 395.528C57.7064 397.409 58.2011 397.071 60.7795 398.113C59.6176 399.323 50.0741 409.286 49.8135 410.398C48.0254 418.008 43.2555 421.532 38.8524 427.101C37.8226 428.384 36.6512 429.778 35.9028 431.262C32.7043 437.611 30.8951 443.826 26.957 449.757C23.6985 454.426 21.435 456.3 16.4578 458H14.4752C5.55702 455.594 3.21664 447.988 4.81047 438.446C5.43732 434.872 6.58078 431.446 8.19317 428.308C10.0796 424.596 12.6506 421.479 15.0775 418.209C18.3165 413.844 21.8916 407.803 25.9931 404.585C27.6047 402.55 36.3393 397.114 38.8871 396.141Z" fill="black"/>
<path d="M14.4752 458C5.55702 455.594 3.21664 447.988 4.81047 438.446C5.43732 434.872 6.58078 431.446 8.19317 428.308C10.0796 424.596 12.6506 421.479 15.0775 418.209C18.3165 413.844 21.8916 407.803 25.9931 404.585C26.0426 405.525 24.7152 407.168 24.2042 408.007C22.5937 410.652 21.0205 413.347 19.3126 415.91C17.2047 419.014 12.9633 423.856 11.5616 427.376C11.9124 428.756 11.9924 430.887 12.1447 432.381C14.3672 433.128 15.9886 433.483 18.1422 434.666C22.1326 436.858 27.7007 443.978 26.3388 449.401C26.3027 449.544 26.264 449.685 26.2228 449.826L26.957 449.757C23.6985 454.426 21.435 456.3 16.4578 458H14.4752Z" fill="#760202"/>
<path d="M14.4752 458C5.55702 455.594 3.21664 447.988 4.81047 438.446C5.43732 434.872 6.58078 431.446 8.19317 428.308C10.0796 424.596 12.6506 421.479 15.0775 418.209C18.3165 413.844 21.8916 407.803 25.9931 404.585C26.0426 405.525 24.7152 407.168 24.2042 408.007C22.5937 410.652 21.0205 413.347 19.3126 415.91C17.2047 419.014 12.9633 423.856 11.5616 427.376C8.84555 432.548 6.58022 440.977 7.65753 447.114C8.13536 449.833 10.3407 452.796 12.43 454.201C14.4328 455.549 16.822 455.911 19.06 455.211C21.4903 454.429 24.4334 451.89 26.2228 449.826L26.957 449.757C23.6985 454.426 21.435 456.3 16.4578 458H14.4752Z" fill="#CFD1D0"/>
<path d="M35.6402 402.429C41.7686 397.836 40.3133 406.164 44.0912 408.304C45.8491 409.022 46.4357 409.982 47.447 411.616C46.2642 417.216 42.677 416.682 39.724 420.023C34.7381 425.665 30.3381 433.195 26.8369 440.091C23.2848 435.693 23.7356 434.999 18.5442 431.267C19.8079 428.99 21.5229 426.749 23.0004 424.616C26.218 419.973 29.4664 415.25 32.6235 410.561C34.1093 408.351 33.9817 405.102 35.6402 402.429Z" fill="#760202"/>
<path d="M38.8871 396.141C41.2976 394.482 49.0187 385.152 51.5014 382.229C51.1322 387.048 51.2324 392.4 55.1436 395.461L55.1414 395.528C50.6869 400.066 48.0745 403.646 44.0912 408.304C40.3133 406.164 41.7686 397.836 35.6402 402.43C36.0454 400.126 37.8814 398.254 38.8871 396.141Z" fill="#CFD1D0"/>
<path d="M76.5139 453.836C75.642 453.735 74.8016 453.409 74.0563 452.877C66.8667 447.856 73.192 427.736 78.4585 422.802C80.5955 420.799 84.7337 416.838 86.1976 414.474C90.5067 407.517 91.1892 395.933 99.3865 392.842C101.835 391.928 104.616 393.82 106.624 395.327C109.117 398.017 108.57 398.357 112.092 401.338L113.254 402.991C116.498 401.631 119.68 400.573 123.008 399.12L121.708 402.499C121.093 405.542 121.077 406.424 121.22 409.563C121.392 410.404 121.636 411.782 121.869 412.56C123.474 415.568 123.526 416.995 126.318 418.831C124.198 419.528 114.271 422.248 113.175 423.254C116.013 425.075 114.18 428.23 111.56 428.655C109.012 429.069 106.32 428.899 104.062 430.453C99.5141 433.586 95.7929 438.296 92.0863 442.607L89.8471 445.018C87.1392 448.115 83.8877 452.364 80.1987 453.755C78.9466 453.997 77.7715 454.084 76.5139 453.836Z" fill="black"/>
<path d="M123.008 399.12L121.708 402.499C121.093 405.542 121.077 406.424 121.22 409.563C121.392 410.404 121.636 411.782 121.869 412.56C123.474 415.568 123.526 416.995 126.318 418.831C124.198 419.528 114.271 422.248 113.175 423.254C110.159 424.341 109.407 419.781 107.515 418.184C106.429 417.27 105.773 417.449 104.515 417.654L104.393 416.695C104.429 412.207 105.202 407.853 108.905 405.473C110.269 404.596 111.795 404.035 113.099 403.103L113.254 402.991C116.498 401.631 119.68 400.573 123.008 399.12Z" fill="#CFD1D0"/>
<path d="M121.869 412.56C123.474 415.568 123.526 416.995 126.318 418.831C124.198 419.528 114.271 422.248 113.175 423.254C110.159 424.341 109.407 419.781 107.515 418.184C106.429 417.27 105.773 417.449 104.515 417.654L104.393 416.695C110.189 416.163 116.384 414.834 121.869 412.56Z" fill="#CFD1D0"/>
<path d="M76.5139 453.836C75.642 453.735 74.8016 453.409 74.0563 452.877C66.8667 447.856 73.192 427.736 78.4585 422.802C80.5955 420.799 84.7337 416.838 86.1976 414.474C90.5067 407.517 91.1892 395.933 99.3865 392.842C101.835 391.928 104.616 393.82 106.624 395.327L106.517 395.794C104.352 396.271 103.743 395.472 101.016 397.091C94.7387 401.323 93.0842 410.064 89.0339 416.57C86.8873 420.02 84.6181 421.785 82.0814 424.739C77.0461 430.603 71.2467 442.712 74.4205 451.029C74.793 452.007 75.9994 453.047 76.5139 453.836Z" fill="#CFD1D0"/>
<path d="M104.515 417.654C105.773 417.449 106.429 417.27 107.515 418.184C109.407 419.781 110.159 424.341 113.175 423.254C116.013 425.075 114.18 428.23 111.56 428.655C109.012 429.069 106.32 428.899 104.062 430.453C99.5141 433.586 95.7929 438.296 92.0863 442.607C90.241 439.758 89.7171 438.618 87.2645 436.352C88.5537 434.852 89.8045 433.049 91.0993 431.535C93.7879 428.391 96.5213 425.148 99.2944 422.111C99.3985 422.154 99.503 422.196 99.6079 422.234C100.877 422.709 102.122 421.456 103.118 420.627C103.974 419.915 104.211 418.77 104.515 417.654Z" fill="#760202"/>
<path d="M80.7863 435.503C85.9649 436.616 88.2311 439.555 89.8471 445.018C87.1392 448.115 83.8876 452.364 80.1987 453.755C77.371 452.859 77.2537 450.356 77.4947 447.337C77.8195 443.267 79.1944 439.125 80.7863 435.503Z" fill="#760202"/>
<path d="M106.624 395.327C109.117 398.017 108.57 398.357 112.092 401.338C112.398 401.106 104.386 404.073 104.188 404.138C102.739 401.365 103.117 399.495 101.016 397.091C103.743 395.472 104.352 396.271 106.517 395.794L106.624 395.327Z" fill="#760202"/>
<path d="M202.922 175.578L204.367 185.563H204.078H203.934L203.645 185.23L203.211 184.897L202.633 184.565L202.199 184.232L201.621 183.566L201.043 183.067L200.465 182.401L200.031 181.902L199.598 181.569L199.309 181.07L198.73 180.57L198.297 179.905L197.719 179.239L196.996 178.24L196.418 177.575L195.406 176.243L194.539 175.245L193.672 174.08L192.516 172.748V172.416V171.75L192.371 171.417L192.227 170.918L191.938 170.252L191.648 169.586L191.359 168.921L191.215 168.255V167.589L191.07 166.924L190.926 166.258L190.637 165.426L190.492 164.76L190.348 163.928L190.203 163.096L190.059 162.264L189.77 161.432L189.625 160.6L189.336 159.767L189.047 158.935L188.902 158.103L188.469 157.105L188.18 156.272L187.746 155.107L187.457 154.275L187.168 153.277L186.59 151.945L186.301 150.947L186.156 150.115L185.723 148.95L185.434 148.118L185 147.286C184.855 147.008 184.566 146.42 184.566 146.287C184.566 146.154 184.47 145.566 184.422 145.288L183.988 144.29C183.796 143.957 183.41 143.258 183.41 143.125C183.41 142.992 183.217 142.626 183.121 142.459L182.832 140.961C182.784 140.684 182.688 140.096 182.688 139.963V137.966V136.634V135.802L183.121 135.469V136.634L183.41 137.3L183.699 138.299L183.988 138.964L184.133 139.963L184.566 141.294L184.855 141.794L185.289 142.959C185.385 143.236 185.607 143.857 185.723 144.123C185.838 144.39 185.867 144.678 185.867 144.789L186.156 145.621C186.301 145.899 186.59 146.487 186.59 146.62C186.59 146.786 187.023 147.618 187.023 147.785C187.023 147.918 187.312 148.395 187.457 148.617L187.891 149.782L188.324 150.614L188.902 151.113H189.336L189.48 150.448C189.529 150.17 189.625 149.549 189.625 149.283V148.617V147.951V147.286V146.453V145.288V144.789V143.957V143.458V142.459V141.627V140.795L189.77 139.796V138.964V137.966L190.059 137.467L190.348 137.966L190.637 138.964V139.796V140.961V141.96V142.959L190.926 143.957L191.215 144.789H191.793L192.371 143.624L192.66 142.459L192.949 141.294L193.383 140.129L193.816 138.964V137.799L193.961 136.634L194.105 135.469L194.25 132.973V132.141C194.298 131.808 194.423 131.076 194.539 130.81C194.655 130.543 194.684 130.255 194.684 130.144V128.979C194.684 128.812 194.973 127.98 194.973 127.647V126.483L195.262 125.484V123.986V122.988L195.551 121.656V120.658L195.695 119.826V118.827V117.995V116.83V115.665V114.666V113.668V113.169V112.336C195.599 112.059 195.406 111.438 195.406 111.171V110.173V109.507L195.117 108.009C195.069 107.455 194.973 106.279 194.973 106.012C194.973 105.746 194.876 104.681 194.828 104.182V101.519V100.021L195.117 95.0283V94.1962V93.364C195.117 92.9646 195.31 92.6429 195.406 92.5319V91.367V90.5348L195.117 89.7027C194.973 89.3699 194.655 88.6709 194.539 88.5377C194.423 88.4046 194.202 88.0385 194.105 87.872L193.672 86.7071L193.383 86.0414L193.238 84.71V83.8779L193.383 83.2122L193.672 83.8779L194.105 84.71L194.684 85.7085L195.406 86.3742C195.503 86.4852 195.724 86.7736 195.84 87.0399C195.984 87.3728 196.129 87.872 196.273 87.872C196.389 87.872 196.611 88.4268 196.707 88.7042L197.285 89.2034L197.719 89.3699L198.008 89.2034L198.297 88.7042L198.586 87.872L198.875 87.3728L199.164 86.7071L199.453 86.2078L199.598 85.8749L199.742 86.7071L199.887 87.872L200.031 88.7042L200.176 89.7027L200.32 90.5348V91.367C200.32 91.6332 200.465 92.2545 200.465 92.5319L200.609 93.8633L200.754 95.3611V96.859L200.898 98.1904V99.3553L201.043 101.02V101.852L201.188 103.183V104.514V106.179V107.344V108.509V109.507L201.332 110.339V111.671V112.836V114.167L201.477 115.498V116.663C201.477 116.83 201.621 117.163 201.621 117.329V118.161V119.16V119.992V120.491L201.766 122.821V124.485V125.983V127.315V128.646L201.621 129.977L201.477 132.307L201.188 134.471L200.898 136.135L200.609 137.966L200.32 139.796L200.031 141.627L199.742 142.959L199.598 143.957L199.453 144.789L199.309 146.453L199.164 147.785L199.02 149.283V150.614V152.445L199.164 154.442V155.274L199.309 156.106L199.453 157.77L200.031 161.099L200.898 165.426L201.621 168.921L202.488 172.582L202.922 175.578Z" fill="#B7695A"/>
<path d="M192.082 349.491V352.32V352.653L191.504 352.154L190.926 351.655L190.348 351.322L189.48 350.823L188.469 350.323L187.891 349.991L187.312 349.658L186.445 349.158L185.434 348.826L184.277 348.493L183.121 348.326L182.109 347.993L180.953 347.827L179.797 347.661L179.363 347.494L178.352 347.161H176.906H175.605H174.883H173.871H173.148L171.848 347.328L170.836 347.494L170.113 347.661L169.246 347.827L168.523 348.16L168.09 348.659L167.801 349.158L167.512 349.491L167.223 349.991L166.789 350.656L166.355 351.655L166.066 352.32L165.557 353.485L165.055 354.484L164.621 355.815L164.477 356.814L164.188 357.646L163.898 358.645L163.609 359.81L163.32 360.975L163.031 361.807L162.887 362.639L162.742 363.637L162.598 364.636L162.453 365.634L162.309 366.467L162.164 366.966L162.02 367.798V368.963L161.73 370.128L161.586 369.462V368.63V367.632L161.73 366.633L161.875 365.634L162.02 364.303L162.164 362.805L162.453 361.307L162.598 359.81L163.031 358.312L163.32 356.98V356.315L163.609 355.483L163.898 354.65L164.188 353.485L164.621 352.487L164.766 351.655L165.055 350.49L165.199 349.491V348.992H164.766L164.188 349.491L163.32 349.991L162.598 350.323L161.586 350.823L160.719 351.322L159.996 351.655L159.273 352.154L158.406 352.82L157.684 353.485L156.961 353.985V353.485V343.833H157.395L158.117 343.5H159.273L160.719 343.167H162.164H163.609H165.199H166.645H168.234H170.402H172.426H174.449L176.184 343.5L178.062 343.833L179.941 344.332L181.676 344.831L183.266 345.497L184.566 345.996L186.156 346.496L187.457 346.995L188.469 347.494L189.914 347.993L192.082 349.491Z" fill="#864B4D"/>
<path d="M172.426 347.328L170.98 347.661L170.836 348.326L170.547 348.992L170.402 349.491L170.113 350.157L169.68 351.322L169.246 352.154C169.15 352.376 168.928 352.853 168.813 352.986C168.697 353.119 168.379 353.707 168.234 353.985L167.801 355.316L167.512 355.815L167.078 356.648L166.789 357.646L166.5 358.811L166.211 359.976L165.777 361.307L165.633 362.306L165.344 363.305L165.055 364.137L164.91 365.135L164.766 365.967L164.477 366.966L164.188 368.297L164.043 369.795L163.898 371.126L163.609 372.125L163.465 373.124L163.32 374.122V375.121L163.465 376.119V377.617L163.609 378.782V379.448V380.113V380.779V381.611V382.61L163.754 383.442L163.898 384.274L164.188 385.106L164.477 385.605L164.766 386.438L165.055 387.103L165.488 387.769L165.922 388.102L166.355 388.268H167.078H167.801L168.668 388.102L169.391 387.769L169.969 387.436L170.547 386.937L171.27 386.271L171.848 385.772L172.426 385.106L172.715 384.607L173.293 383.775L173.727 382.776L174.16 382.277L175.172 381.278L175.461 380.446L176.039 379.448L176.906 377.783L177.629 375.62L178.063 374.621L178.496 374.788L178.063 376.119L177.773 377.451L177.195 378.782L176.906 380.113L176.328 381.112L176.039 382.111L175.461 383.109L175.172 384.108L174.738 384.773L174.449 385.439L173.871 386.438L173.293 387.27L172.715 387.935C172.57 388.102 172.281 388.468 172.281 388.601C172.281 388.734 171.896 389.1 171.703 389.267L170.98 389.766L170.258 390.265L169.246 391.097L168.813 391.43H168.234H167.801H163.176H162.742L162.453 391.763V392.595L162.598 393.261V393.927L162.742 394.426L162.887 395.092V395.591L163.32 396.257L163.898 396.922L164.332 397.255L165.199 397.754L166.066 398.42L166.934 398.919L167.512 399.419L168.523 399.918L169.535 400.251L170.547 400.75L171.559 401.083H172.715L173.582 400.916L174.305 400.75L175.172 400.251L175.895 399.419L176.473 398.587L177.195 397.588L177.773 396.257L178.785 394.259L188.758 366.966L189.047 365.634L189.48 364.47L189.77 363.305L190.203 361.807L190.492 360.309L190.781 359.144L191.215 357.48L191.504 356.315L191.648 354.983L192.082 353.486L192.371 352.487L191.504 351.988L190.637 351.322L189.625 350.656L188.758 350.157L187.602 349.658L186.59 349.325L185.578 348.992L184.566 348.659L183.41 348.326L182.254 347.993L180.953 347.661L179.508 347.161H177.773H176.328H174.738L173.727 347.328H172.426Z" fill="#D37F4D"/>
<path d="M178.158 84.71C175.85 81.2584 171.792 65.6683 165.456 48.4295C159.121 31.1906 145.076 26.4955 138.75 27.2936H138.605H138.461L138.172 27.1271L137.738 26.7943L137.305 26.4614L136.727 25.9622L136.438 25.6293L136.004 24.9636L135.859 24.6308L135.715 24.1315V23.7986L135.859 23.4658L136.148 23.133L136.438 22.9665L136.727 22.8001L137.016 22.6337C137.16 22.6337 137.594 22.4673 137.738 22.4673H138.75H139.906L141.099 22.6461L142.145 22.8057L143.664 23.133L144.984 23.4441L145.881 23.6038L146.628 23.7634H147.226H148.122L148.867 23.6322L149.445 23.2994L149.59 23.133V22.9665L149.445 22.8001L149.156 22.4673L148.578 21.8016L147.711 21.1359L145.254 19.638L142.363 17.9738L140.195 16.6424L138.75 15.6439L137.738 14.9782L137.016 14.3125L136.727 13.9796L136.168 13.3139L135.859 12.6482L135.715 12.3154L135.57 11.8161L135.715 11.4832L135.859 11.1504L136.148 10.984L136.438 10.8175L136.871 10.6511H137.16H137.449H137.594H138.605L139.617 10.984L142.363 11.9825L144.965 13.4803L147.566 14.9782L150.168 16.3096L151.18 16.8088L151.902 17.1417L152.914 17.6409L153.637 17.9738L154.188 18.1767L154.548 18.3363L154.504 18.1767L154.215 17.8074L153.926 17.3081L153.492 16.6424L152.48 15.311L151.035 13.4803L150.602 12.8146L150.215 12.1112L149.766 11.4727L149.467 10.8342L149.318 9.87654V9.07844V8.7592V8.12073V7.80149L149.467 7.48225L149.766 7.32263H150.065H150.364L150.513 7.64187L150.663 8.7592L150.962 9.5573L151.261 10.3554L151.709 10.9939L152.157 11.792L152.755 12.7497L153.801 13.867L154.847 15.144L156.192 16.4209L156.789 17.0594L157.537 18.0171L158.284 18.8152L159.031 19.9325L159.629 21.0499L160.077 22.0076L160.376 23.1249L160.525 24.2422L160.675 25.5192L160.824 26.1577L160.974 27.1154V28.0731L161.123 29.0308L161.272 30.3078L161.422 31.2655L161.721 32.3828L162.169 33.3405C162.318 33.5533 162.617 34.0109 162.617 34.1386C162.617 34.2663 162.916 34.6175 163.066 34.7771L163.962 35.7348L164.709 36.5329L165.456 37.1714L166.502 37.8099L167.399 38.2887L168.146 38.4483L169.043 38.608H169.64H170.388H170.836L171.135 38.9272L170.985 39.406L170.537 39.8849L170.089 40.2041L169.491 41.0022L169.64 41.4811L169.939 42.4388L170.537 43.3965L171.434 45.4716L172.031 46.7485L172.779 48.1851L173.526 49.6217L174.572 51.3775L175.02 52.4948V53.1333L175.169 54.4102L175.319 55.2083L175.618 56.9641L175.917 58.2411L176.215 59.1988L176.813 61.2738L177.56 63.1893L178.158 65.1047L178.756 66.7009L179.353 68.4567L180.549 71.8087L182.492 77.0761L183.986 80.7474L187.273 88.2495L188.02 89.5264L188.469 90.6437V93.1976L186.377 90.963L185.63 90.1649L184.584 89.3668L183.986 88.8879L183.089 88.2495H182.492L181.595 88.4091C181.794 87.5578 180.853 89.2391 180.375 89.3668C179.897 89.4945 178.656 85.9337 178.158 84.71Z" fill="#B7695A"/>
<path d="M159.461 25.8385C160.073 27.0882 159.762 31.693 160.733 33.5905C161.593 35.3934 162.691 36.9987 163.996 38.4009C164.665 39.1187 165.797 39.6219 166.041 40.6439C161.964 40.4223 159.667 35.2689 159.125 31.1592C158.948 29.8158 158.673 26.8502 159.461 25.8385Z" fill="#86494A"/>
</g>
</g>
<defs>
<filter id="filter0_n_503_2785" x="0" y="0" width="222" height="458" filterUnits="userSpaceOnUse" color-interpolation-filters="sRGB">
<feFlood flood-opacity="0" result="BackgroundImageFix"/>
<feBlend mode="normal" in="SourceGraphic" in2="BackgroundImageFix" result="shape"/>
<feTurbulence type="fractalNoise" baseFrequency="2 2" stitchTiles="stitch" numOctaves="3" result="noise" seed="2264" />
<feColorMatrix in="noise" type="luminanceToAlpha" result="alphaNoise" />
<feComponentTransfer in="alphaNoise" result="coloredNoise1">
<feFuncA type="discrete" tableValues="1 1 1 1 1 1 1 1 1 1 1 1 1 1 1 1 1 1 1 1 1 1 1 1 1 1 1 1 1 1 1 1 1 1 1 1 1 1 1 1 1 1 1 1 1 1 1 1 1 1 1 0 0 0 0 0 0 0 0 0 0 0 0 0 0 0 0 0 0 0 0 0 0 0 0 0 0 0 0 0 0 0 0 0 0 0 0 0 0 0 0 0 0 0 0 0 0 0 0 0 "/>
</feComponentTransfer>
<feComposite operator="in" in2="shape" in="coloredNoise1" result="noise1Clipped" />
<feFlood flood-color="rgba(0, 0, 0, 0.15)" result="color1Flood" />
<feComposite operator="in" in2="noise1Clipped" in="color1Flood" result="color1" />
<feMerge result="effect1_noise_503_2785">
<feMergeNode in="shape" />
<feMergeNode in="color1" />
</feMerge>
</filter>
<clipPath id="clip0_503_2785">
<rect width="222" height="458" fill="white"/>
</clipPath>
</defs>
</svg>
