<svg width="1231" height="450" viewBox="0 0 1231 450" fill="none" xmlns="http://www.w3.org/2000/svg">
<path d="M-150 388.5L226.5 449.5L-150 373.5V388.5Z" fill="#F4631E"/>
<path d="M-150 282.5L199 420.5L-141 307.5L-150 282.5Z" fill="#F4631E"/>
<path d="M-156 200L215.5 412L-150 151.5L-156 200Z" fill="#F4631E"/>
<path d="M142 317L-40 114H-24L142 317Z" fill="#F4631E"/>
<path d="M6 80.5L199 338.5L27 91L6 80.5Z" fill="#F4631E"/>
<path d="M174.602 281.285C177.518 286.185 179.248 289.244 179.5 290L174.602 281.285C154.364 247.281 77.0012 124.604 40 67.5L59.5 76.5L174.602 281.285Z" fill="#F4631E"/>
<path d="M207.867 302.554C210.126 306.706 211.407 309.301 211.5 310L207.867 302.554C190.741 271.082 117.372 150.108 78.5 86.5L90 61L207.867 302.554Z" fill="#F4631E"/>
<path d="M292.5 243.5L189 126.5L184 99.5L292.5 243.5Z" fill="#F4631E"/>
<path d="M337 290L226.5 97L237 63.5L337 290Z" fill="#F4631E"/>
<path d="M369 109L466 270L396.5 129L369 109Z" fill="#F4631E"/>
<path d="M482.799 266.378C484.844 272.109 486 275.701 486 276.5L482.799 266.378C471.526 234.797 433.237 138.272 412.5 86.5L418 61.5L482.799 266.378Z" fill="#F4631E"/>
<path d="M1226 104.5L1055.5 259L1190 110.5L1226 104.5Z" fill="#F4631E"/>
<path d="M1165 67.5C1125 125 1033.3 259 1030.5 259L1119 79.5L1165 67.5Z" fill="#F4631E"/>
<path d="M977 270C977.046 269.726 977.286 269.066 977.703 268.053L1039.5 97L1066.5 86C1039.94 138.49 984.603 251.323 977.703 268.053L977 270Z" fill="#F4631E"/>
<path d="M959.5 290L1039.5 64.5L1033 22.5L959.5 290Z" fill="#F4631E"/>
<path d="M913.5 217.5L959.5 59L948 4L913.5 217.5Z" fill="#F4631E"/>
<path d="M940 183.5L961.5 115.5L991 64.5L940 183.5Z" fill="#F4631E"/>
<path d="M-144 384.5L232.5 445.5L-144 369.5V384.5Z" fill="#7F0303"/>
<path d="M-144 278.5L205 416.5L-135 303.5L-144 278.5Z" fill="#7F0303"/>
<path d="M-150 196L221.5 408L-144 147.5L-150 196Z" fill="#7F0303"/>
<path d="M148 313L-34 110H-18L148 313Z" fill="#7F0303"/>
<path d="M12 76.5L205 334.5L34 88L12 76.5Z" fill="#7F0303"/>
<path d="M182.724 281.061C184.358 283.761 185.321 285.463 185.5 286L182.724 281.061C166.107 253.611 80.0419 122.982 41.5 63.5L65.5 72.5L182.724 281.061Z" fill="#7F0303"/>
<path d="M214.004 298.807C216.178 302.812 217.409 305.315 217.5 306L214.004 298.807C197.137 267.735 123.477 146.28 84.5 82.5L96 56L214.004 298.807Z" fill="#7F0303"/>
<path d="M298.5 239.5L195 122.5L187 93L298.5 239.5Z" fill="#7F0303"/>
<path d="M343 286L232.5 93L245 56L343 286Z" fill="#7F0303"/>
<path d="M375 105L472 266L401.5 123.5L375 105Z" fill="#7F0303"/>
<path d="M489.46 264.243C491.091 268.887 492 271.792 492 272.5L489.46 264.243C479.109 234.786 439.664 135.337 418.5 82.5L422 45L489.46 264.243Z" fill="#7F0303"/>
<path d="M1230.5 101L1061.5 255L1199 108L1230.5 101Z" fill="#7F0303"/>
<path d="M1173 60.5C1133 118 1039.3 255 1036.5 255L1125 75.5L1173 60.5Z" fill="#7F0303"/>
<path d="M983 266C983.045 265.729 983.289 265.057 983.715 264.021L1045.5 93L1075 75.5C1048.43 128.019 990.817 246.733 983.715 264.021L983 266Z" fill="#7F0303"/>
<path d="M965.5 286L1045.5 60.5L1041 20.5L965.5 286Z" fill="#7F0303"/>
<path d="M919.5 213.5L965.5 55L954 0L919.5 213.5Z" fill="#7F0303"/>
<path d="M946 179.5L967.5 111.5L997 60.5L946 179.5Z" fill="#7F0303"/>
</svg>
