<svg width="1440" height="496" viewBox="0 0 1440 496" fill="none" xmlns="http://www.w3.org/2000/svg">
<path d="M1179 421L1001 483.5L1604.5 350.5L1560 212L1380 281L1370.5 334.5L1141 414.5L1179 421Z" fill="black"/>
<path d="M1186 431.5L1008 494L1611.5 361L1567 222.5L1387 291.5L1377.5 345L1148 425L1186 431.5Z" fill="#2B918E"/>
<path d="M1001 367.5C1001 367.378 1001.56 366.565 1002.61 365.14L1097 226.5L1038 248.5L1125.5 121L1084 203.5L1143.5 185.5C1100.09 241.226 1015.3 347.91 1002.61 365.14L1001 367.5Z" fill="black"/>
<path d="M1010.5 366C1010.5 365.878 1011.06 365.065 1012.11 363.64L1106.5 225L1047.5 247L1135 119.5L1093.5 202L1153 184C1109.59 239.726 1024.8 346.41 1012.11 363.64L1010.5 366Z" fill="#2B918E"/>
<path d="M574.5 290L363 -12.5L437.5 17.5L591 217L595.5 178.5L630 251L595.5 224.5L603.5 234.5L664.5 361.5L574.5 244.5V290Z" fill="black"/>
<path d="M588.5 286L381 -6L467 19.5L605 213L609.5 174.5L644 247L609.5 220.5L617.5 230.5L678.5 357.5L588.5 240.5V286Z" fill="#2B918E"/>
<path d="M-76.5 318.5L212.5 386L134 326.5L361.5 417.5L230.5 347.5L173.5 238L-38 107L-95 229.5L17 291.5L-76.5 262.5V318.5Z" fill="black"/>
<path d="M-76.5 303L213 380L134 311L361.5 402L230.5 332L173.5 222.5L-38 91.5L-74 214L38 276L-76.5 247V303Z" fill="#2B918E"/>
<path d="M174 224L-8.5 110V105L178 220L235 334.5L230 331.5L174 224Z" fill="black" stroke="black"/>
<path d="M721.5 492.5C732.167 443.167 752.8 345.1 750 347.5L776.5 243.5L711.5 306.5L674 153L635 175.5L615.5 -23L711.5 73.5L730.5 199.5L818.5 18.5L850.5 85L842 262.5L835 248V306.5H824L721.5 492.5Z" fill="black"/>
<path d="M743.5 496C754.167 446.667 774.8 348.6 772 351L798.5 247L733.5 310L696 156.5L657 179L630.5 -16L717.5 1.5L752.5 203L827 37L869 101.5L864 266L857 251.5V310H846L743.5 496Z" fill="#2B918E"/>
<path d="M982 353L990.5 163L1045 175L982 353Z" fill="black"/>
<path d="M990 353.5L998.5 163.5L1053 175.5L990 353.5Z" fill="#2B918E"/>
<path d="M1053 390.5L1231 239L1171.5 332L1184 322L1202.5 367.5L1092 415L1053 390.5Z" fill="black"/>
<path d="M1064 391L1242 239.5L1182.5 332.5L1195 322.5L1213.5 368L1103 415.5L1064 391Z" fill="#2B918E"/>
<path d="M521.5 365.5C518.7 360.7 500.667 300.5 492 271C410.778 197.087 330.993 100.672 340 123L424.5 286L302.5 242.5C429.978 331.441 516.946 389.782 654.5 468.5C611.333 436.167 524.3 370.3 521.5 365.5Z" fill="black"/>
<path d="M531 357.5C528.2 352.7 510.167 292.5 501.5 263L343 121L434 278L325.5 245C452.978 333.942 526.446 381.782 664 460.5C620.833 428.167 533.8 362.3 531 357.5Z" fill="#2B918E"/>
<path d="M914.5 208.5L885 263L951.5 167.5L914.5 208.5Z" fill="#2B918E"/>
</svg>
