<svg width="1440" height="658" viewBox="0 0 1440 658" fill="none" xmlns="http://www.w3.org/2000/svg">
<path d="M173 591L-65 635.5L-77.5 626L173 591Z" fill="black"/>
<path d="M230 565.5L-84.5 608.5L-98 600.5L230 565.5Z" fill="black"/>
<path d="M-91.5 584L128 565.5L-91.5 591V584Z" fill="black"/>
<path d="M223 544.5L-61 569H-84.5V551.5L20 548.5L-65 555V559L223 544.5Z" fill="black"/>
<path d="M117 530.5L-54.5 539H-79.5L-84.5 533L117 530.5Z" fill="black"/>
<path d="M-84.5 514L54.5 516L-87.5 520L-84.5 514Z" fill="black"/>
<path d="M196.5 502L-70 497.5L-79.5 506.5L196.5 502Z" fill="black"/>
<path d="M111.989 488.148C62.2695 487.975 -23.9472 488.549 -75.5 489L-82 478.5C-28.9963 481.381 60.8907 486.062 111.989 488.148C135.728 488.23 151.146 488.483 150.5 489C149.883 489.494 134.801 489.079 111.989 488.148Z" fill="black"/>
<path d="M128 475.5L-75.5 472L-72.5 464L128 475.5Z" fill="black"/>
<path d="M174.5 469.5L-79.5 456.5L-70 448.5L174.5 469.5Z" fill="black"/>
<path d="M103.5 436C103.12 435.97 102.578 435.915 101.882 435.836L-79.5 417.5L-89.5 408.5C-31.6184 416.998 84.2603 433.856 101.882 435.836L103.5 436Z" fill="black"/>
<path d="M204 442.5L-65 408.5L-72.5 398.5L204 442.5Z" fill="black"/>
<path d="M-79.5 382.5L142.5 423.5L-84.5 392L-79.5 382.5Z" fill="black"/>
<path d="M117 398.5L-62 356.5L-63.5 358.5L-72.5 366L117 398.5Z" fill="black"/>
<path d="M-87.5 325L258 411.5L-79.5 339.5L-87.5 325Z" fill="black"/>
<path d="M-79.5 284.5L199 369.5L-75.5 298L-79.5 284.5Z" fill="black"/>
<path d="M-79.5 265L249 373L-89.5 275L-79.5 265Z" fill="black"/>
<path d="M1505.5 646L1236 601L1499.5 658L1505.5 646Z" fill="black"/>
<path d="M1493.5 623.5L1289 595.5L1482 630L1493.5 623.5Z" fill="black"/>
<path d="M1499.5 595.5L1289 573.5L1495.5 601L1499.5 595.5Z" fill="black"/>
<path d="M1490 580L1232 558.5L1505.5 589L1508 571.5L1337 562L1490 580Z" fill="black"/>
<path d="M1482 544.5L1236 537.5L1477.5 552.5L1482 544.5Z" fill="black"/>
<path d="M1490 532H1301.5L1495.5 539.5L1490 532Z" fill="black"/>
<path d="M1499.5 515L1269.5 517.5L1505.5 524L1499.5 515Z" fill="black"/>
<path d="M1493.5 498.5L1228 505H1484.5L1493.5 498.5Z" fill="black"/>
<path d="M1484.5 483L1298 493.5L1495.5 490L1484.5 483Z" fill="black"/>
<path d="M1484.5 464.5L1313 478.5L1490 469.5L1484.5 464.5Z" fill="black"/>
<path d="M1236.5 466.486L1482 435L1484.5 447L1221.76 468.774L1151.24 479.721L1145 481H1143L1151.24 479.721L1245 460.5L1236.5 466.486Z" fill="black"/>
<path d="M1477.5 449.5L1399 460L1482 455.5L1477.5 449.5Z" fill="black"/>
<path d="M1482 415.5L1308.5 442.5L1477.5 425L1482 415.5Z" fill="black"/>
<path d="M1490 396.5L1205 447L1493.5 408L1490 396.5Z" fill="black"/>
<path d="M1477.5 336.5L1260.5 396.5L1477.5 348.5V336.5Z" fill="black"/>
<path d="M1493.5 315L1189.5 399.5L1499.5 324L1493.5 315Z" fill="black"/>
<path d="M1499.5 291L1253 368.5L1505.5 303.5L1499.5 291Z" fill="black"/>
<path d="M1477.5 286.5L1341 332.5L1477.5 295V286.5Z" fill="black"/>
<path d="M1409.5 32.5L1174 215.5L1407 53.5L1409.5 32.5Z" fill="black"/>
<path d="M1459.5 68L1154 265L1475.5 74L1459.5 68Z" fill="black"/>
<path d="M1487 96.5L1184 269.5L1489.5 107.5L1487 96.5Z" fill="black"/>
<path d="M1222.5 273.5L1487 131L1493.5 140L1489.5 143.5L1222.5 273.5Z" fill="black"/>
<path d="M1487 152.5L1260.5 267L1493.5 163.5L1487 152.5Z" fill="black"/>
<path d="M1076 -26.5L921.5 275.5L1025.5 -40L1076 -26.5Z" fill="black"/>
<path d="M836 21L845 170.5L828.22 235.5L856.5 193L882 163L824.993 248L801.5 339L807.5 245.5L812.5 256L836 154.5V21Z" fill="black"/>
<path d="M1085 491.5L924.5 529L1043.5 506L983 526.5L1134.5 513L1150.5 505L1031 518L1085 491.5Z" fill="black"/>
</svg>
