<svg width="223" height="118" viewBox="0 0 223 118" fill="none" xmlns="http://www.w3.org/2000/svg">
<g filter="url(#filter0_dn_407_1455)">
<path d="M2.5 61L0 22L6.5 14H20.5L25.5 5L38 7.5L43.5 5L57 7.5L69 9.5L80.5 14H93.5L101 7.5L116 8.5L124.5 17.5L145 19.5L148 9.5L168 8.5L176.5 17.5L188.5 14L194.5 17.5L201.5 16.5L219 19.5L216.5 65.5L197.5 61L194.5 67.5L180 69L171 61L168 75.5L173 91.5L164 101L137 103.5L127 108L118 106.5L112.5 103.5L109.5 106.5H93.5H86.5L76 111L57 106.5L51 95.5V69L48 61L38 63L34.5 54.5L33 63H25.5L16.5 65.5L2.5 61Z" fill="#7F0303"/>
</g>
<path d="M84.6718 66.538L93.47 66.1095L97.509 84.4936L98.1776 66.0129L106.797 65.4636L109.135 94.6382L102.37 94.6898L101.567 77.5592L100.728 94.5731L95.3178 94.9162L91.5533 77.68L93.432 95.1345L87.2595 95.8253L84.6718 66.538Z" fill="white"/>
<path d="M81.6719 69.2734L82.1172 93.4609L75.5781 100H67.6797L61.1641 93.4609L60.6953 70.1641L67.8203 69.8828L68.2891 91.7969L69.6484 93.2969L73.1406 93.1562L74.6641 91.9375L74.9688 69.5781L81.6719 69.2734Z" fill="white"/>
<path d="M135.258 69.3128L132.857 93.385L125.594 99.11L117.751 98.1816L112.049 90.922L114.322 67.7315L121.431 68.2897L119.32 90.107L120.494 91.7564L123.978 92.0272L125.634 90.996L128.565 68.8274L135.258 69.3128Z" fill="white"/>
<path d="M136.226 64.3385L145.023 63.8804L149.123 82.2508L149.73 63.7679L158.347 63.1896L160.784 92.3562L154.019 92.4306L153.158 75.3028L152.377 92.3194L146.967 92.6807L143.145 75.4573L145.082 92.9053L138.912 93.617L136.226 64.3385Z" fill="white"/>
<path d="M48.119 17.181L46.5024 47.8667L39.6827 47.27L33.4713 31.8931L33.0123 46.5418L24.9192 46.0287L26.3347 16.2931L33.9704 16.6128L39.6573 29.8898L40.3092 17.0146L48.119 17.181Z" fill="white"/>
<path d="M18.4141 22.2734L19.4922 53L11.1719 52.8359L10.3984 22.4375L18.4141 22.2734Z" fill="white"/>
<path d="M52.5293 20.8532L72.3831 22.5581L71.3289 29.1843L59.3106 28.352L58.9132 34.6206L69.0179 35.2612L68.3665 41.0911L58.7266 40.5269L57.8217 51.8361L50.3747 51.5048L52.5293 20.8532Z" fill="white"/>
<path d="M88.5732 25.7435L95.0875 30.8917L96.9537 51.1098L90.8822 56.4123L80.4953 57.3903L73.3245 53.6658L71.9935 33.3839L77.7453 27.5766L88.5732 25.7435ZM81.6297 48.6872L83.9018 49.927L86.5288 49.5904L88.5595 47.8142L87.1201 34.7443L85.3706 33.1353L81.8647 33.6239L80.4547 35.6565L81.6297 48.6872Z" fill="white"/>
<path d="M113.816 19.3971L119.776 25.1676L118.794 36.1342L114.152 39.0584L118.48 50.4517L111.225 50.0099L107.994 40.2694L106.171 40.0707L105.151 49.2774L98.3475 48.6389L101.487 18.5125L113.816 19.3971ZM107.194 24.8612L106.489 33.7495L110.353 33.9193L112.936 32.3132L113.192 27.2328L111.028 25.2177L107.194 24.8612Z" fill="white"/>
<path d="M123.162 25.869L131.928 26.7341L133.23 45.5115L136.599 27.3282L145.206 28.0475L143.245 57.2499L136.545 56.3099L138.26 39.2464L134.938 55.9539L129.536 55.5007L128.337 37.899L127.638 55.4403L121.431 55.2194L123.162 25.869Z" fill="white"/>
<path d="M164.739 21.8323L173.922 51.6236L165.731 51.8321L164.474 46.3988L155.841 46.5228L154.657 52.0192L147.177 52.0158L154.333 22.4158L164.739 21.8323ZM159.263 29.6074L157.516 38.8143L162.661 38.509L160.887 29.4011L159.263 29.6074Z" fill="white"/>
<path d="M178.31 26.8949L187.974 25.0179L193.568 28.6976L194.545 32.6354L188.079 34.0034L187.545 31.4811L181.873 32.753L180.688 34.5129L181.311 36.7768L182.837 37.6517L189.556 36.6853L196.323 41.7219L197.563 49.0537L191.87 55.4328L184.67 56.9561L177.68 53.0207L176.848 48.4056L182.741 47.1588L183.415 49.5554L187.971 48.7832L189.673 47.2014L189.062 44.3122L187.139 43.3775L182.106 44.2745L175.491 41.314L174.103 33.0553L178.31 26.8949Z" fill="white"/>
<path d="M210.982 25.2267L208.88 55.9002L200.621 54.8774L202.992 24.5617L210.982 25.2267Z" fill="white"/>
<defs>
<filter id="filter0_dn_407_1455" x="0" y="5" width="222.5" height="113" filterUnits="userSpaceOnUse" color-interpolation-filters="sRGB">
<feFlood flood-opacity="0" result="BackgroundImageFix"/>
<feColorMatrix in="SourceAlpha" type="matrix" values="0 0 0 0 0 0 0 0 0 0 0 0 0 0 0 0 0 0 127 0" result="hardAlpha"/>
<feOffset dx="3.5" dy="7"/>
<feComposite in2="hardAlpha" operator="out"/>
<feColorMatrix type="matrix" values="0 0 0 0 0 0 0 0 0 0 0 0 0 0 0 0 0 0 1 0"/>
<feBlend mode="normal" in2="BackgroundImageFix" result="effect1_dropShadow_407_1455"/>
<feBlend mode="normal" in="SourceGraphic" in2="BackgroundImageFix" result="shape"/>
<feTurbulence type="fractalNoise" baseFrequency="2 2" stitchTiles="stitch" numOctaves="3" result="noise" seed="9557" />
<feColorMatrix in="noise" type="luminanceToAlpha" result="alphaNoise" />
<feComponentTransfer in="alphaNoise" result="coloredNoise1">
<feFuncA type="discrete" tableValues="0 0 0 0 1 1 1 1 1 1 1 1 1 1 1 1 1 1 1 1 1 1 1 1 1 1 1 1 1 1 1 1 1 1 1 1 1 1 1 1 1 1 1 1 1 0 0 0 0 0 0 0 0 0 0 0 0 0 0 0 0 0 0 0 0 0 0 0 0 0 0 0 0 0 0 0 0 0 0 0 0 0 0 0 0 0 0 0 0 0 0 0 0 0 0 0 0 0 0 0 "/>
</feComponentTransfer>
<feComposite operator="in" in2="shape" in="coloredNoise1" result="noise1Clipped" />
<feFlood flood-color="rgba(0, 0, 0, 0.25)" result="color1Flood" />
<feComposite operator="in" in2="noise1Clipped" in="color1Flood" result="color1" />
<feMerge result="effect2_noise_407_1455">
<feMergeNode in="shape" />
<feMergeNode in="color1" />
</feMerge>
<feBlend mode="normal" in="effect2_noise_407_1455" in2="effect1_dropShadow_407_1455" result="effect2_noise_407_1455"/>
</filter>
</defs>
</svg>
