<svg width="281" height="74" viewBox="0 0 281 74" fill="none" xmlns="http://www.w3.org/2000/svg">
<g filter="url(#filter0_d_674_658)">
<path d="M16.5 2.5L31 5L42.5 7.5L49 11L53 5H71.5L84 7.5L91 11L107.5 7.5L115.5 13L122 7.5H134L141 11H146L152.5 16L157 13H165.5L170 7.5H180.5L188.5 13L199 11L209.5 16L214 11L229.5 13L241.5 17L251 7.5L271 11L277.5 27L271 39L276.5 41V65L241.5 63L235 54L222 63L208.5 60.5L205 67H196.5L180.5 60.5H165.5V67L146 65L141 58.5L134 65L115.5 60.5L109.5 65H95L89 56.5L80 60.5L64 56.5L61 63L38 60.5L33.5 50L22.5 56.5H14.5L0 47L7 31L5 25.5V13L16.5 2.5Z" fill="#7F0303"/>
</g>
<path d="M17.2188 13.2734L27.0625 13.4375L31.7734 18.1953L31.9141 22.25H25.3047V19.6719L19.4922 19.7422L17.9688 21.2188L18.1094 23.5625L19.4219 24.7344L26.1953 25.1797L31.7734 31.5078L31.4688 38.9375L24.5781 44H17.2188L11.1953 38.7031L11.3359 34.0156H17.3594L17.5234 36.5L22.1406 36.6875L24.1328 35.4922V32.5391L22.4453 31.2266L17.3359 31.0625L11.4766 26.7969L11.8281 18.4297L17.2188 13.2734Z" fill="white"/>
<path d="M59.4738 18.1774L62.5246 42.1759L56.7288 49.3819L48.8764 50.2336L41.6936 44.4352L38.7156 21.3247L45.7687 20.2768L48.5977 42.0125L50.1109 43.3572L53.5675 42.8409L54.9507 41.465L52.8426 19.2031L59.4738 18.1774Z" fill="white"/>
<path d="M71.1357 15.6233L84.2384 17.1885L89.372 23.014L88.3727 30.7793L85.6481 31.9639L88.1652 34.1519L87.0294 42.9397L81.3435 47.6643L67.1564 46.0972L71.1357 15.6233ZM76.7383 22.3258L76.1263 28.5069L79.7733 28.7919L81.6618 27.2792L81.95 24.67L80.4657 22.7376L76.7383 22.3258ZM74.0454 40.7274L77.8531 41.2659L79.9615 39.6831L80.4382 36.4345L78.8504 34.585L75.0299 34.1629L74.0454 40.7274Z" fill="white"/>
<path d="M107.192 16.5838L115.228 21.9407L117.792 41.0737L111.538 47.034L97.1468 48.5374L93.5252 18.6943L107.192 16.5838ZM101.112 24.6935L103.415 41.0959L107.728 40.6287L109.548 38.4335L107.904 25.3915L105.474 24.2463L101.112 24.6935Z" fill="white"/>
<path d="M133.331 17.5819L133.432 48.3272L125.121 47.8987L125.314 17.4911L133.331 17.5819Z" fill="white"/>
<path d="M165.351 21.4497L159.453 51.6887L150.791 52.1319L142.031 22.1968L148.967 21.7388L154.731 44.1084L157.303 21.5797L165.351 21.4497Z" fill="white"/>
<path d="M178.368 15.5819L178.469 46.3272L170.158 45.8987L170.351 15.4911L178.368 15.5819Z" fill="white"/>
<path d="M188.81 21.8949L198.474 20.0179L204.068 23.6976L205.045 27.6354L198.579 29.0034L198.045 26.4811L192.373 27.753L191.188 29.5129L191.811 31.7768L193.337 32.6517L200.056 31.6853L206.823 36.7219L208.063 44.0537L202.37 50.4328L195.17 51.9561L188.18 48.0207L187.348 43.4056L193.241 42.1588L193.915 44.5554L198.471 43.7832L200.173 42.2014L199.562 39.3122L197.639 38.3775L192.606 39.2745L185.991 36.314L184.603 28.0553L188.81 21.8949Z" fill="white"/>
<path d="M223.482 20.2267L221.38 50.9002L213.121 49.8774L215.492 19.5617L223.482 20.2267Z" fill="white"/>
<path d="M263.703 18.4611L268.399 24.374L268.41 33.679L256.741 44.1515L268.084 44.3412L268.223 51.9125L247.036 51.7772L247.153 44.4653L261.961 30.6377L262.059 26.2554L260.849 24.9352L255.152 25.0628L253.854 26.4843L253.761 30.0462L246.94 30.0964L246.975 24.7293L252.734 18.4379L263.703 18.4611Z" fill="white"/>
<defs>
<filter id="filter0_d_674_658" x="0" y="2.5" width="281" height="71.5" filterUnits="userSpaceOnUse" color-interpolation-filters="sRGB">
<feFlood flood-opacity="0" result="BackgroundImageFix"/>
<feColorMatrix in="SourceAlpha" type="matrix" values="0 0 0 0 0 0 0 0 0 0 0 0 0 0 0 0 0 0 127 0" result="hardAlpha"/>
<feOffset dx="3.5" dy="7"/>
<feComposite in2="hardAlpha" operator="out"/>
<feColorMatrix type="matrix" values="0 0 0 0 0 0 0 0 0 0 0 0 0 0 0 0 0 0 1 0"/>
<feBlend mode="normal" in2="BackgroundImageFix" result="effect1_dropShadow_674_658"/>
<feBlend mode="normal" in="SourceGraphic" in2="effect1_dropShadow_674_658" result="shape"/>
</filter>
</defs>
</svg>
