<svg width="274" height="125" viewBox="0 0 274 125" fill="none" xmlns="http://www.w3.org/2000/svg">
<g filter="url(#filter0_d_674_708)">
<path d="M68 49.5V19L72 14H100.5L111 2.5H122L132.5 12L153 14L156.5 5L171 8.5L182.5 4.5L194.5 9.5V20.5L191 29L192.5 45L182 57L192.5 64L207 59.5L213 51L242.5 53L265 47L270.5 100.5L263.5 107H244.5L238.5 102L233 105L218.5 103.5L217 108.5H202L199 105L195.5 110L167.5 111.5L163 105L156.5 111.5L138.5 110L127.5 115L116 113L109 105L104.5 110H95.5L85 102L88.5 117.5L72 115L68 108.5L64 113L54.5 111.5V102L49 107H37L30 98L27.5 108.5L2 102L9.5 83.5H0L4.5 59.5L35 61.5L56 57L68 64L77 66L78.5 59.5L68 49.5Z" fill="#7F0303"/>
</g>
<path d="M122.86 14.9017L128.587 21.2534L127.538 41.8768L120.767 46.0739L110.374 45.1567L103.813 40.1143L105.377 19.5235L111.903 14.7472L122.86 14.9017ZM112.723 36.6398L114.8 38.3215L117.446 38.4423L119.719 37.0364L120.168 23.6552L118.647 21.7269L115.11 21.5732L113.448 23.3466L112.723 36.6398Z" fill="white"/>
<path d="M79.6719 18.8047L99.5938 19.25L98.9609 25.9297L86.9141 25.8594V32.1406H97.0391L96.7578 38L87.1016 38.0469L86.9141 49.3906L79.4609 49.5312L79.6719 18.8047Z" fill="white"/>
<path d="M145.761 21.6614L152.499 26.5008L153.128 37.4933L148.962 41.0633L154.905 51.7036L147.663 52.3248L143.045 43.1598L141.213 43.2292L141.547 52.486L134.723 52.8468L133.434 22.5848L145.761 21.6614ZM140.007 28.0331L140.606 36.9291L144.453 36.5335L146.775 34.5677L146.286 29.5044L143.852 27.8264L140.007 28.0331Z" fill="white"/>
<path d="M158.226 16.6813L167.023 16.2232L171.123 34.5936L171.73 16.1107L180.347 15.5324L182.784 44.6989L176.019 44.7734L175.158 27.6455L174.377 44.6622L168.967 45.0235L165.145 27.8001L167.082 45.2481L160.912 45.9597L158.226 16.6813Z" fill="white"/>
<path d="M51.909 65.6768L52.5731 72.2298L43.6679 73.5673L44.2867 78.7099L53.1113 77.2874L53.9446 83.467L45.0214 84.8537L45.4292 90.823L54.5933 89.4791L55.3074 95.6489L38.8651 98.1183L35.9378 68.1388L51.909 65.6768Z" fill="white"/>
<path d="M11.3674 69.3409L32.3366 71.7573L31.5355 78.0891L24.7598 77.2534L21.7986 100.977L14.7085 99.9526L17.4769 76.5895L10.6723 75.822L11.3674 69.3409Z" fill="white"/>
<path d="M77.582 74.6769L83.0244 80.9382L81.1039 91.7798L76.2276 94.2943L79.5602 106.017L72.3697 104.954L69.9875 94.9718L68.1886 94.6172L66.3816 103.702L59.6582 102.482L65.3739 72.7362L77.582 74.6769ZM70.5147 79.5518L69.0488 88.3468L72.8837 88.8479L75.5957 87.4696L76.2867 82.43L74.3042 80.2364L70.5147 79.5518Z" fill="white"/>
<path d="M91.2386 68.4415L101.033 67.4397L106.273 71.6067L106.893 75.6163L100.33 76.3983L100.025 73.8383L94.2614 74.5959L92.9234 76.2423L93.3403 78.553L94.7823 79.5613L101.561 79.202L107.849 84.8257L108.425 92.2393L102.182 98.0815L94.8742 98.9523L88.2663 94.4053L87.8513 89.7341L93.8324 89.0214L94.2893 91.4689L98.8962 91.1088L100.733 89.6861L100.384 86.7538L98.5526 85.6501L93.4597 86.0918L87.1368 82.5494L86.4959 74.1994L91.2386 68.4415Z" fill="white"/>
<path d="M137.801 75.2886L134.806 99.294L127.404 104.838L119.586 103.716L114.065 96.3174L116.911 73.1902L124.003 73.924L121.354 95.6824L122.487 97.3603L125.963 97.7172L127.644 96.7272L131.122 74.6379L137.801 75.2886Z" fill="white"/>
<path d="M143 68.2523L156.184 67.6932L162.186 72.6187L162.447 80.4437L159.948 82.0505L162.784 83.8059L163.074 92.662L158.22 98.2384L143.966 98.9697L143 68.2523ZM149.606 73.9682L149.994 80.1674L153.64 79.863L155.261 78.0666L155.126 75.4451L153.351 73.776L149.606 73.9682ZM149.903 92.5633L153.748 92.4834L155.574 90.5826L155.523 87.2997L153.659 85.7291L149.821 85.926L149.903 92.5633Z" fill="white"/>
<path d="M169.226 73.3385L178.023 72.8804L182.123 91.2508L182.73 72.7679L191.347 72.1896L193.784 101.356L187.019 101.431L186.158 84.3028L185.377 101.319L179.967 101.681L176.145 84.4573L178.082 101.905L171.912 102.617L169.226 73.3385Z" fill="white"/>
<path d="M217.58 63.4686L238.642 64.8631L238.15 71.2263L231.341 70.7208L229.537 94.5608L222.405 93.8817L224.035 70.4117L217.201 69.9758L217.58 63.4686Z" fill="white"/>
<path d="M249.905 89.8316L256.561 89.0385L257.82 95.639L250.698 96.4876L249.905 89.8316ZM245.944 62.7349L253.834 61.7948L256.182 86.6525L249.526 87.4456L245.944 62.7349Z" fill="white"/>
<path d="M208.906 69.6613L211.657 100.283L203.34 100.573L200.911 70.262L208.906 69.6613Z" fill="white"/>
<defs>
<filter id="filter0_d_674_708" x="0" y="2.5" width="274" height="122" filterUnits="userSpaceOnUse" color-interpolation-filters="sRGB">
<feFlood flood-opacity="0" result="BackgroundImageFix"/>
<feColorMatrix in="SourceAlpha" type="matrix" values="0 0 0 0 0 0 0 0 0 0 0 0 0 0 0 0 0 0 127 0" result="hardAlpha"/>
<feOffset dx="3.5" dy="7"/>
<feComposite in2="hardAlpha" operator="out"/>
<feColorMatrix type="matrix" values="0 0 0 0 0 0 0 0 0 0 0 0 0 0 0 0 0 0 1 0"/>
<feBlend mode="normal" in2="BackgroundImageFix" result="effect1_dropShadow_674_708"/>
<feBlend mode="normal" in="SourceGraphic" in2="effect1_dropShadow_674_708" result="shape"/>
</filter>
</defs>
</svg>
