<svg width="226" height="122" viewBox="0 0 226 122" fill="none" xmlns="http://www.w3.org/2000/svg">
<g filter="url(#filter0_d_674_680)">
<path d="M42.5 10.5H55.5L73 12L78 5H88.5L100 10.5H112L125.5 17L133 7.5H145L155 17L163 5H179L191.5 12H208.5L222.5 28V53.5L209.5 62H187L182 57H172.5L168 64.5V74.5L174.5 79.5V93.5L165.5 103L155 104L147 101.5L150 114.5H138.5L133 111H125.5L119.5 114.5H109.5L104.5 111V114.5H92.5L87 108.5L85 114.5H73L67 111L63.5 114.5H53V106.5L37 111L32.5 104L23 111L0 103L2.5 53.5L31 59.5L42.5 53.5L39.5 39.5L42.5 10.5Z" fill="#7F0303"/>
</g>
<path d="M77.0754 16.3892L90.871 17.71L95.6767 24.1442L94.7776 33.8802L89.5586 38.4107L82.1438 37.9406L81.381 47.38L74.0787 46.9875L77.0754 16.3892ZM82.7651 31.4747L86.3992 31.94L88.1315 30.5468L88.4622 25.3307L86.8529 23.3029L83.492 22.9724L82.7651 31.4747Z" fill="white"/>
<path d="M70.1719 19.2734L70.6172 43.4609L64.0781 50H56.1797L49.6641 43.4609L49.1953 20.1641L56.3203 19.8828L56.7891 41.7969L58.1484 43.2969L61.6406 43.1562L63.1641 41.9375L63.4688 19.5781L70.1719 19.2734Z" fill="white"/>
<path d="M99.6809 20.6928L107.085 19.8406L110.3 43.4639L123.065 41.6407L124.287 48.1532L103.417 50.6967L99.6809 20.6928Z" fill="white"/>
<path d="M144.073 18.7435L150.587 23.8917L152.454 44.1098L146.382 49.4123L135.995 50.3903L128.825 46.6658L127.494 26.3839L133.245 20.5766L144.073 18.7435ZM137.13 41.6872L139.402 42.927L142.029 42.5904L144.06 40.8142L142.62 27.7443L140.871 26.1353L137.365 26.6239L135.955 28.6565L137.13 41.6872Z" fill="white"/>
<path d="M173.202 16.8323L182.385 46.6236L174.194 46.8321L172.936 41.3988L164.303 41.5228L163.12 47.0192L155.64 47.0158L162.795 17.4158L173.202 16.8323ZM167.725 24.6074L165.979 33.8143L171.124 33.509L169.35 24.4011L167.725 24.6074Z" fill="white"/>
<path d="M202.106 21.578L209.555 27.7242L210.161 47.0188L203.333 52.3122L188.864 52.3444L188.296 22.2877L202.106 21.578ZM195.233 29.0273L195.856 45.5789L200.195 45.5528L202.228 43.5539L201.919 30.4124L199.618 29.0261L195.233 29.0273Z" fill="white"/>
<path d="M50.409 64.4136L51.0731 70.9666L42.1679 72.3041L42.7867 77.4467L51.6113 76.0242L52.4446 82.2038L43.5214 83.5905L43.9292 89.5598L53.0933 88.216L53.8074 94.3857L37.3651 96.8551L34.4378 66.8756L50.409 64.4136Z" fill="white"/>
<path d="M12.4384 67.7061L25.5844 68.8523L30.9014 74.5108L30.1506 82.3041L27.4651 83.5751L30.0509 85.6816L29.1962 94.5012L23.6641 99.4049L9.43412 98.2915L12.4384 67.7061ZM18.2522 74.2264L17.8378 80.4239L21.4921 80.5922L23.3313 79.02L23.536 76.403L21.9908 74.5189L18.2522 74.2264ZM16.1482 92.7045L19.9711 93.1212L22.0279 91.4719L22.4007 88.2098L20.7546 86.4118L16.9226 86.112L16.1482 92.7045Z" fill="white"/>
<path d="M77.082 72.6769L82.5243 78.9382L80.6038 89.7798L75.7276 92.2943L79.0602 104.017L71.8697 102.954L69.4875 92.9718L67.6886 92.6172L65.8816 101.702L59.1581 100.482L64.8739 70.7362L77.082 72.6769ZM70.0146 77.5518L68.5488 86.3468L72.3837 86.8479L75.0957 85.4696L75.7867 80.43L73.8042 78.2364L70.0146 77.5518Z" fill="white"/>
<path d="M88.9444 70.7845L96.3513 70.3504L97.2118 79.9488L103.646 69.7645L112.074 69.185L103.644 81.6371L114.34 98.7024L106.501 99.4712L99.0667 87.989L98.0041 89.7678L98.8037 99.8456L91.2599 100.32L88.9444 70.7845Z" fill="white"/>
<path d="M148.739 64.2133L158.533 63.2115L163.773 67.3785L164.393 71.388L157.83 72.17L157.525 69.61L151.761 70.3676L150.423 72.014L150.84 74.3247L152.282 75.333L159.061 74.9738L165.349 80.5974L165.925 88.011L159.682 93.8532L152.374 94.724L145.766 90.177L145.351 85.5058L151.332 84.7931L151.789 87.2406L156.396 86.8805L158.233 85.4579L157.884 82.5255L156.053 81.4219L150.96 81.8635L144.637 78.3211L143.996 69.9711L148.739 64.2133Z" fill="white"/>
<path d="M134.963 74.6659L140.796 105.29L132.633 104.592L131.984 99.0526L123.389 98.2217L121.606 103.554L114.172 102.724L124.555 74.0957L134.963 74.6659ZM128.66 81.7882L125.907 90.7457L131.054 91.0108L130.298 81.7627L128.66 81.7882Z" fill="white"/>
<defs>
<filter id="filter0_d_674_680" x="0" y="5" width="226" height="116.5" filterUnits="userSpaceOnUse" color-interpolation-filters="sRGB">
<feFlood flood-opacity="0" result="BackgroundImageFix"/>
<feColorMatrix in="SourceAlpha" type="matrix" values="0 0 0 0 0 0 0 0 0 0 0 0 0 0 0 0 0 0 127 0" result="hardAlpha"/>
<feOffset dx="3.5" dy="7"/>
<feComposite in2="hardAlpha" operator="out"/>
<feColorMatrix type="matrix" values="0 0 0 0 0 0 0 0 0 0 0 0 0 0 0 0 0 0 1 0"/>
<feBlend mode="normal" in2="BackgroundImageFix" result="effect1_dropShadow_674_680"/>
<feBlend mode="normal" in="SourceGraphic" in2="effect1_dropShadow_674_680" result="shape"/>
</filter>
</defs>
</svg>
