<svg width="81" height="37" viewBox="0 0 81 37" fill="none" xmlns="http://www.w3.org/2000/svg">
<mask id="path-1-outside-1_596_2564" maskUnits="userSpaceOnUse" x="-0.187012" y="-0.748779" width="81" height="38" fill="black">
<rect fill="white" x="-0.187012" y="-0.748779" width="81" height="38"/>
<path d="M4.32861 3.18091L10.3638 3.552L10.2271 12.9856L15.9497 13.1418L16.0278 4.19653L21.8872 4.41138L21.9849 29.2161L15.6958 28.9426L15.9497 19.1379L10.2271 18.8645L9.56299 28.4348L3.13721 27.9856L4.32861 3.18091ZM38.0591 5.09497L46.5161 29.6458L39.6997 30.0364L38.5083 25.5637L31.3208 25.8762L30.4614 30.4856L24.2505 30.7004L29.5239 5.71997L38.0591 5.09497ZM33.6841 11.5793L32.5122 19.4114L36.77 19.0403L35.0513 11.4817L33.6841 11.5793ZM59.0747 5.75903L64.6411 10.0559L65.1294 19.2161L61.6528 22.0286L66.5747 31.1106L60.52 31.345L56.6919 23.552L55.1685 23.5325L55.4224 31.5598L49.7192 31.5989L48.2935 6.07153L59.0747 5.75903ZM54.2114 10.8567L54.6802 18.2786L57.8833 18.0833L59.8364 16.5598L59.4653 12.3215L57.4536 10.8176L54.2114 10.8567ZM77.3755 4.74341L75.4419 32.9075L68.1567 31.9895L70.3247 4.11841L77.3755 4.74341Z"/>
</mask>
<path d="M4.32861 3.18091L10.3638 3.552L10.2271 12.9856L15.9497 13.1418L16.0278 4.19653L21.8872 4.41138L21.9849 29.2161L15.6958 28.9426L15.9497 19.1379L10.2271 18.8645L9.56299 28.4348L3.13721 27.9856L4.32861 3.18091ZM38.0591 5.09497L46.5161 29.6458L39.6997 30.0364L38.5083 25.5637L31.3208 25.8762L30.4614 30.4856L24.2505 30.7004L29.5239 5.71997L38.0591 5.09497ZM33.6841 11.5793L32.5122 19.4114L36.77 19.0403L35.0513 11.4817L33.6841 11.5793ZM59.0747 5.75903L64.6411 10.0559L65.1294 19.2161L61.6528 22.0286L66.5747 31.1106L60.52 31.345L56.6919 23.552L55.1685 23.5325L55.4224 31.5598L49.7192 31.5989L48.2935 6.07153L59.0747 5.75903ZM54.2114 10.8567L54.6802 18.2786L57.8833 18.0833L59.8364 16.5598L59.4653 12.3215L57.4536 10.8176L54.2114 10.8567ZM77.3755 4.74341L75.4419 32.9075L68.1567 31.9895L70.3247 4.11841L77.3755 4.74341Z" fill="#8CA5B5"/>
<path d="M4.32861 3.18091L4.51273 0.186563L1.47794 -4.19617e-05L1.33207 3.03698L4.32861 3.18091ZM10.3638 3.552L13.3635 3.59548L13.4049 0.733334L10.5479 0.557657L10.3638 3.552ZM10.2271 12.9856L7.22737 12.9421L7.18445 15.9036L10.1452 15.9845L10.2271 12.9856ZM15.9497 13.1418L15.8678 16.1407L18.9229 16.2241L18.9496 13.168L15.9497 13.1418ZM16.0278 4.19653L16.1378 1.19855L13.0549 1.08551L13.0279 4.17033L16.0278 4.19653ZM21.8872 4.41138L24.8872 4.39957L24.8758 1.51894L21.9971 1.41339L21.8872 4.41138ZM21.9849 29.2161L21.8546 32.2132L24.9972 32.3499L24.9848 29.2043L21.9849 29.2161ZM15.6958 28.9426L12.6968 28.865L12.6205 31.8118L15.5655 31.9398L15.6958 28.9426ZM15.9497 19.1379L18.9487 19.2156L19.0247 16.2814L16.0929 16.1414L15.9497 19.1379ZM10.2271 18.8645L10.3702 15.8679L7.43749 15.7278L7.23425 18.6568L10.2271 18.8645ZM9.56299 28.4348L9.35377 31.4275L12.348 31.6368L12.5558 28.6425L9.56299 28.4348ZM3.13721 27.9856L0.140662 27.8417L-0.000162959 30.7736L2.92799 30.9783L3.13721 27.9856ZM4.32861 3.18091L4.1445 6.17525L10.1797 6.54635L10.3638 3.552L10.5479 0.557657L4.51273 0.186563L4.32861 3.18091ZM10.3638 3.552L7.36408 3.50853L7.22737 12.9421L10.2271 12.9856L13.2267 13.0291L13.3635 3.59548L10.3638 3.552ZM10.2271 12.9856L10.1452 15.9845L15.8678 16.1407L15.9497 13.1418L16.0316 10.143L10.3089 9.98671L10.2271 12.9856ZM15.9497 13.1418L18.9496 13.168L19.0277 4.22273L16.0278 4.19653L13.0279 4.17033L12.9498 13.1156L15.9497 13.1418ZM16.0278 4.19653L15.9179 7.19452L21.7773 7.40936L21.8872 4.41138L21.9971 1.41339L16.1378 1.19855L16.0278 4.19653ZM21.8872 4.41138L18.8872 4.42319L18.9849 29.2279L21.9849 29.2161L24.9848 29.2043L24.8872 4.39957L21.8872 4.41138ZM21.9849 29.2161L22.1152 26.2189L15.8261 25.9455L15.6958 28.9426L15.5655 31.9398L21.8546 32.2132L21.9849 29.2161ZM15.6958 28.9426L18.6948 29.0203L18.9487 19.2156L15.9497 19.1379L12.9507 19.0603L12.6968 28.865L15.6958 28.9426ZM15.9497 19.1379L16.0929 16.1414L10.3702 15.8679L10.2271 18.8645L10.0839 21.8611L15.8065 22.1345L15.9497 19.1379ZM10.2271 18.8645L7.23425 18.6568L6.57018 28.2271L9.56299 28.4348L12.5558 28.6425L13.2199 19.0722L10.2271 18.8645ZM9.56299 28.4348L9.7722 25.4421L3.34642 24.9929L3.13721 27.9856L2.92799 30.9783L9.35377 31.4275L9.56299 28.4348ZM3.13721 27.9856L6.13375 28.1295L7.32516 3.32484L4.32861 3.18091L1.33207 3.03698L0.140662 27.8417L3.13721 27.9856ZM38.0591 5.09497L40.8955 4.1179L40.1433 1.93432L37.84 2.10298L38.0591 5.09497ZM46.5161 29.6458L46.6878 32.6408L50.6428 32.4142L49.3525 28.6687L46.5161 29.6458ZM39.6997 30.0364L36.8008 30.8086L37.4302 33.1714L39.8713 33.0315L39.6997 30.0364ZM38.5083 25.5637L41.4072 24.7915L40.7866 22.4618L38.378 22.5666L38.5083 25.5637ZM31.3208 25.8762L31.1905 22.8791L28.8086 22.9826L28.3716 25.3264L31.3208 25.8762ZM30.4614 30.4856L30.5651 33.4838L32.9696 33.4006L33.4106 31.0354L30.4614 30.4856ZM24.2505 30.7004L21.3152 30.0808L20.5235 33.8312L24.3542 33.6986L24.2505 30.7004ZM29.5239 5.71997L29.3048 2.72798L27.0546 2.89276L26.5886 5.10032L29.5239 5.71997ZM33.6841 11.5793L33.4703 8.58697L31.0728 8.75822L30.7171 11.1354L33.6841 11.5793ZM32.5122 19.4114L29.5452 18.9674L28.9822 22.7304L32.7727 22.4L32.5122 19.4114ZM36.77 19.0403L37.0305 22.029L40.4583 21.7302L39.6953 18.3751L36.77 19.0403ZM35.0513 11.4817L37.9766 10.8165L37.4057 8.30587L34.8375 8.48931L35.0513 11.4817ZM38.0591 5.09497L35.2227 6.07204L43.6797 30.6228L46.5161 29.6458L49.3525 28.6687L40.8955 4.1179L38.0591 5.09497ZM46.5161 29.6458L46.3445 26.6507L39.5281 27.0413L39.6997 30.0364L39.8713 33.0315L46.6878 32.6408L46.5161 29.6458ZM39.6997 30.0364L42.5986 29.2642L41.4072 24.7915L38.5083 25.5637L35.6094 26.3359L36.8008 30.8086L39.6997 30.0364ZM38.5083 25.5637L38.378 22.5666L31.1905 22.8791L31.3208 25.8762L31.4511 28.8734L38.6386 28.5609L38.5083 25.5637ZM31.3208 25.8762L28.3716 25.3264L27.5122 29.9357L30.4614 30.4856L33.4106 31.0354L34.27 26.4261L31.3208 25.8762ZM30.4614 30.4856L30.3577 27.4874L24.1468 27.7022L24.2505 30.7004L24.3542 33.6986L30.5651 33.4838L30.4614 30.4856ZM24.2505 30.7004L27.1858 31.3201L32.4592 6.33962L29.5239 5.71997L26.5886 5.10032L21.3152 30.0808L24.2505 30.7004ZM29.5239 5.71997L29.743 8.71196L38.2782 8.08696L38.0591 5.09497L37.84 2.10298L29.3048 2.72798L29.5239 5.71997ZM33.6841 11.5793L30.7171 11.1354L29.5452 18.9674L32.5122 19.4114L35.4792 19.8553L36.6511 12.0233L33.6841 11.5793ZM32.5122 19.4114L32.7727 22.4L37.0305 22.029L36.77 19.0403L36.5095 16.0516L32.2517 16.4227L32.5122 19.4114ZM36.77 19.0403L39.6953 18.3751L37.9766 10.8165L35.0513 11.4817L32.1259 12.1469L33.8447 19.7055L36.77 19.0403ZM35.0513 11.4817L34.8375 8.48931L33.4703 8.58697L33.6841 11.5793L33.8978 14.5717L35.265 14.4741L35.0513 11.4817ZM59.0747 5.75903L60.9079 3.38426L60.0593 2.72923L58.9878 2.76029L59.0747 5.75903ZM64.6411 10.0559L67.6369 9.89622L67.5636 8.52203L66.4743 7.68114L64.6411 10.0559ZM65.1294 19.2161L67.0162 21.5484L68.2066 20.5854L68.1251 19.0564L65.1294 19.2161ZM61.6528 22.0286L59.766 19.6962L57.8268 21.265L59.0153 23.458L61.6528 22.0286ZM66.5747 31.1106L66.6908 34.1083L71.5104 33.9218L69.2123 29.6812L66.5747 31.1106ZM60.52 31.345L57.8274 32.6677L58.6872 34.4182L60.6361 34.3427L60.52 31.345ZM56.6919 23.552L59.3846 22.2293L58.5723 20.5759L56.7304 20.5522L56.6919 23.552ZM55.1685 23.5325L55.2069 20.5327L52.0708 20.4925L52.17 23.6273L55.1685 23.5325ZM55.4224 31.5598L55.4429 34.5597L58.5181 34.5387L58.4209 31.465L55.4224 31.5598ZM49.7192 31.5989L46.7239 31.7662L46.8832 34.6184L49.7398 34.5988L49.7192 31.5989ZM48.2935 6.07153L48.2065 3.07279L45.1263 3.16208L45.2981 6.23883L48.2935 6.07153ZM54.2114 10.8567L54.1753 7.85691L51.0184 7.89494L51.2174 11.0458L54.2114 10.8567ZM54.6802 18.2786L51.6861 18.4677L51.8748 21.4552L54.8628 21.273L54.6802 18.2786ZM57.8833 18.0833L58.0659 21.0777L58.9947 21.0211L59.7284 20.4488L57.8833 18.0833ZM59.8364 16.5598L61.6815 18.9253L62.9672 17.9225L62.825 16.2981L59.8364 16.5598ZM59.4653 12.3215L62.4539 12.0599L62.3368 10.7225L61.2616 9.91874L59.4653 12.3215ZM57.4536 10.8176L59.2499 8.41483L58.4349 7.80559L57.4175 7.81784L57.4536 10.8176ZM59.0747 5.75903L57.2416 8.1338L62.808 12.4307L64.6411 10.0559L66.4743 7.68114L60.9079 3.38426L59.0747 5.75903ZM64.6411 10.0559L61.6454 10.2156L62.1336 19.3758L65.1294 19.2161L68.1251 19.0564L67.6369 9.89622L64.6411 10.0559ZM65.1294 19.2161L63.2426 16.8837L59.766 19.6962L61.6528 22.0286L63.5397 24.3609L67.0162 21.5484L65.1294 19.2161ZM61.6528 22.0286L59.0153 23.458L63.9371 32.54L66.5747 31.1106L69.2123 29.6812L64.2904 20.5992L61.6528 22.0286ZM66.5747 31.1106L66.4587 28.1128L60.404 28.3472L60.52 31.345L60.6361 34.3427L66.6908 34.1083L66.5747 31.1106ZM60.52 31.345L63.2127 30.0223L59.3846 22.2293L56.6919 23.552L53.9992 24.8747L57.8274 32.6677L60.52 31.345ZM56.6919 23.552L56.7304 20.5522L55.2069 20.5327L55.1685 23.5325L55.13 26.5322L56.6534 26.5518L56.6919 23.552ZM55.1685 23.5325L52.17 23.6273L52.4239 31.6547L55.4224 31.5598L58.4209 31.465L58.167 23.4376L55.1685 23.5325ZM55.4224 31.5598L55.4018 28.5599L49.6987 28.5989L49.7192 31.5989L49.7398 34.5988L55.4429 34.5597L55.4224 31.5598ZM49.7192 31.5989L52.7146 31.4316L51.2888 5.90423L48.2935 6.07153L45.2981 6.23883L46.7239 31.7662L49.7192 31.5989ZM48.2935 6.07153L48.3804 9.07027L59.1616 8.75777L59.0747 5.75903L58.9878 2.76029L48.2065 3.07279L48.2935 6.07153ZM54.2114 10.8567L51.2174 11.0458L51.6861 18.4677L54.6802 18.2786L57.6742 18.0895L57.2055 10.6676L54.2114 10.8567ZM54.6802 18.2786L54.8628 21.273L58.0659 21.0777L57.8833 18.0833L57.7007 15.0888L54.4976 15.2841L54.6802 18.2786ZM57.8833 18.0833L59.7284 20.4488L61.6815 18.9253L59.8364 16.5598L57.9913 14.1943L56.0382 15.7177L57.8833 18.0833ZM59.8364 16.5598L62.825 16.2981L62.4539 12.0599L59.4653 12.3215L56.4768 12.5832L56.8479 16.8215L59.8364 16.5598ZM59.4653 12.3215L61.2616 9.91874L59.2499 8.41483L57.4536 10.8176L55.6573 13.2204L57.6691 14.7243L59.4653 12.3215ZM57.4536 10.8176L57.4175 7.81784L54.1753 7.85691L54.2114 10.8567L54.2476 13.8565L57.4898 13.8174L57.4536 10.8176ZM77.3755 4.74341L80.3684 4.94889L80.5699 2.0148L77.6404 1.75513L77.3755 4.74341ZM75.4419 32.9075L75.0668 35.8839L78.2174 36.2809L78.4348 33.1129L75.4419 32.9075ZM68.1567 31.9895L65.1658 31.7568L64.944 34.6084L67.7817 34.966L68.1567 31.9895ZM70.3247 4.11841L70.5896 1.13013L67.5689 0.862364L67.3337 3.88575L70.3247 4.11841ZM77.3755 4.74341L74.3825 4.53793L72.4489 32.702L75.4419 32.9075L78.4348 33.1129L80.3684 4.94889L77.3755 4.74341ZM75.4419 32.9075L75.8169 29.931L68.5318 29.013L68.1567 31.9895L67.7817 34.966L75.0668 35.8839L75.4419 32.9075ZM68.1567 31.9895L71.1477 32.2222L73.3157 4.35106L70.3247 4.11841L67.3337 3.88575L65.1658 31.7568L68.1567 31.9895ZM70.3247 4.11841L70.0598 7.10669L77.1106 7.73169L77.3755 4.74341L77.6404 1.75513L70.5896 1.13013L70.3247 4.11841Z" fill="#EFE8DF" mask="url(#path-1-outside-1_596_2564)"/>
</svg>
