<svg width="75" height="36" viewBox="0 0 75 36" fill="none" xmlns="http://www.w3.org/2000/svg">
<mask id="path-1-outside-1_596_2565" maskUnits="userSpaceOnUse" x="-0.674316" y="-0.802979" width="75" height="37" fill="black">
<rect fill="white" x="-0.674316" y="-0.802979" width="75" height="37"/>
<path d="M16.3296 6.65796H23.478L22.9507 26.1501L16.9741 32.2634H8.26318L3.02881 27.7517L3.00928 21.3455L9.396 21.4822L9.41553 24.8611L11.2515 26.8142H14.4937L15.939 24.9978L16.3296 6.65796ZM41.3296 3.59155L49.7671 28.1619L42.9507 28.5525L41.7593 24.0603L34.5718 24.3923L33.7319 29.0017L27.5015 29.197L32.6772 4.35327L41.3296 3.59155ZM36.9741 10.2126L35.7632 17.9275L40.0405 17.5369L38.3218 9.9978L36.9741 10.2126ZM52.6187 3.20093L59.9429 3.68921L61.5249 19.2947L63.8491 4.0603L71.0366 4.4314L70.1772 28.8064L64.5718 28.2009L65.5483 13.9431L63.2241 27.947L58.7124 27.7126L57.2476 13.0837L57.1304 27.7126L51.9546 27.6931L52.6187 3.20093Z"/>
</mask>
<path d="M16.3296 6.65796H23.478L22.9507 26.1501L16.9741 32.2634H8.26318L3.02881 27.7517L3.00928 21.3455L9.396 21.4822L9.41553 24.8611L11.2515 26.8142H14.4937L15.939 24.9978L16.3296 6.65796ZM41.3296 3.59155L49.7671 28.1619L42.9507 28.5525L41.7593 24.0603L34.5718 24.3923L33.7319 29.0017L27.5015 29.197L32.6772 4.35327L41.3296 3.59155ZM36.9741 10.2126L35.7632 17.9275L40.0405 17.5369L38.3218 9.9978L36.9741 10.2126ZM52.6187 3.20093L59.9429 3.68921L61.5249 19.2947L63.8491 4.0603L71.0366 4.4314L70.1772 28.8064L64.5718 28.2009L65.5483 13.9431L63.2241 27.947L58.7124 27.7126L57.2476 13.0837L57.1304 27.7126L51.9546 27.6931L52.6187 3.20093Z" fill="#8CA5B5"/>
<path d="M16.3296 6.65796V3.65796H13.3928L13.3303 6.59408L16.3296 6.65796ZM23.478 6.65796L26.4769 6.73909L26.5603 3.65796H23.478V6.65796ZM22.9507 26.1501L25.0959 28.2473L25.9178 27.4066L25.9496 26.2313L22.9507 26.1501ZM16.9741 32.2634V35.2634H18.2367L19.1193 34.3606L16.9741 32.2634ZM8.26318 32.2634L6.30453 34.5358L7.1487 35.2634H8.26318V32.2634ZM3.02881 27.7517L0.0288224 27.7609L0.0329971 29.1301L1.07016 30.0241L3.02881 27.7517ZM3.00928 21.3455L3.07348 18.3461L-8.15392e-05 18.2804L0.00929117 21.3546L3.00928 21.3455ZM9.396 21.4822L12.3959 21.4648L12.3791 18.5453L9.4602 18.4829L9.396 21.4822ZM9.41553 24.8611L6.41558 24.8784L6.42239 26.057L7.22964 26.9158L9.41553 24.8611ZM11.2515 26.8142L9.06558 28.8689L9.95414 29.8142H11.2515V26.8142ZM14.4937 26.8142V29.8142H15.9404L16.8412 28.6821L14.4937 26.8142ZM15.939 24.9978L18.2865 26.8657L18.9167 26.0737L18.9383 25.0617L15.939 24.9978ZM16.3296 6.65796V9.65796H23.478V6.65796V3.65796H16.3296V6.65796ZM23.478 6.65796L20.4791 6.57683L19.9518 26.069L22.9507 26.1501L25.9496 26.2313L26.4769 6.73909L23.478 6.65796ZM22.9507 26.1501L20.8055 24.0529L14.8289 30.1662L16.9741 32.2634L19.1193 34.3606L25.0959 28.2473L22.9507 26.1501ZM16.9741 32.2634V29.2634H8.26318V32.2634V35.2634H16.9741V32.2634ZM8.26318 32.2634L10.2218 29.9911L4.98746 25.4793L3.02881 27.7517L1.07016 30.0241L6.30453 34.5358L8.26318 32.2634ZM3.02881 27.7517L6.02879 27.7426L6.00926 21.3363L3.00928 21.3455L0.00929117 21.3546L0.0288224 27.7609L3.02881 27.7517ZM3.00928 21.3455L2.94507 24.3448L9.33179 24.4815L9.396 21.4822L9.4602 18.4829L3.07348 18.3461L3.00928 21.3455ZM9.396 21.4822L6.39605 21.4995L6.41558 24.8784L9.41553 24.8611L12.4155 24.8437L12.3959 21.4648L9.396 21.4822ZM9.41553 24.8611L7.22964 26.9158L9.06558 28.8689L11.2515 26.8142L13.4373 24.7595L11.6014 22.8064L9.41553 24.8611ZM11.2515 26.8142V29.8142H14.4937V26.8142V23.8142H11.2515V26.8142ZM14.4937 26.8142L16.8412 28.6821L18.2865 26.8657L15.939 24.9978L13.5914 23.1299L12.1461 24.9463L14.4937 26.8142ZM15.939 24.9978L18.9383 25.0617L19.3289 6.72184L16.3296 6.65796L13.3303 6.59408L12.9396 24.9339L15.939 24.9978ZM41.3296 3.59155L44.167 2.6172L43.4046 0.397272L41.0665 0.603111L41.3296 3.59155ZM49.7671 28.1619L49.9387 31.157L53.8898 30.9305L52.6045 27.1875L49.7671 28.1619ZM42.9507 28.5525L40.0509 29.3216L40.6785 31.6876L43.1223 31.5476L42.9507 28.5525ZM41.7593 24.0603L44.659 23.2912L44.0386 20.9518L41.6208 21.0635L41.7593 24.0603ZM34.5718 24.3923L34.4333 21.3955L32.0483 21.5057L31.6204 23.8546L34.5718 24.3923ZM33.7319 29.0017L33.8259 32.0002L36.2488 31.9243L36.6833 29.5395L33.7319 29.0017ZM27.5015 29.197L24.5645 28.5852L23.7875 32.3149L27.5955 32.1955L27.5015 29.197ZM32.6772 4.35327L32.4142 1.36483L30.1947 1.56022L29.7403 3.74141L32.6772 4.35327ZM36.9741 10.2126L36.5018 7.25006L34.3485 7.59334L34.0104 9.74746L36.9741 10.2126ZM35.7632 17.9275L32.7995 17.4623L32.2026 21.2651L36.036 20.9151L35.7632 17.9275ZM40.0405 17.5369L40.3134 20.5244L43.7275 20.2126L42.9655 16.87L40.0405 17.5369ZM38.3218 9.9978L41.2467 9.33097L40.6226 6.59313L37.8495 7.03521L38.3218 9.9978ZM41.3296 3.59155L38.4922 4.56591L46.9297 29.1362L49.7671 28.1619L52.6045 27.1875L44.167 2.6172L41.3296 3.59155ZM49.7671 28.1619L49.5955 25.1668L42.779 25.5574L42.9507 28.5525L43.1223 31.5476L49.9387 31.157L49.7671 28.1619ZM42.9507 28.5525L45.8504 27.7834L44.659 23.2912L41.7593 24.0603L38.8595 24.8294L40.0509 29.3216L42.9507 28.5525ZM41.7593 24.0603L41.6208 21.0635L34.4333 21.3955L34.5718 24.3923L34.7102 27.3891L41.8977 27.0571L41.7593 24.0603ZM34.5718 24.3923L31.6204 23.8546L30.7805 28.464L33.7319 29.0017L36.6833 29.5395L37.5232 24.9301L34.5718 24.3923ZM33.7319 29.0017L33.6379 26.0032L27.4075 26.1985L27.5015 29.197L27.5955 32.1955L33.8259 32.0002L33.7319 29.0017ZM27.5015 29.197L30.4384 29.8089L35.6142 4.96513L32.6772 4.35327L29.7403 3.74141L24.5645 28.5852L27.5015 29.197ZM32.6772 4.35327L32.9403 7.34171L41.5927 6.57999L41.3296 3.59155L41.0665 0.603111L32.4142 1.36483L32.6772 4.35327ZM36.9741 10.2126L34.0104 9.74746L32.7995 17.4623L35.7632 17.9275L38.7269 18.3927L39.9378 10.6778L36.9741 10.2126ZM35.7632 17.9275L36.036 20.9151L40.3134 20.5244L40.0405 17.5369L39.7677 14.5493L35.4903 14.9399L35.7632 17.9275ZM40.0405 17.5369L42.9655 16.87L41.2467 9.33097L38.3218 9.9978L35.3968 10.6646L37.1156 18.2037L40.0405 17.5369ZM38.3218 9.9978L37.8495 7.03521L36.5018 7.25006L36.9741 10.2126L37.4464 13.1752L38.7941 12.9604L38.3218 9.9978ZM52.6187 3.20093L52.8182 0.207573L49.7043 -1.90735e-05L49.6198 3.11962L52.6187 3.20093ZM59.9429 3.68921L62.9276 3.38663L62.6719 0.864485L60.1424 0.695854L59.9429 3.68921ZM61.5249 19.2947L58.5402 19.5973L64.4906 19.7471L61.5249 19.2947ZM63.8491 4.0603L64.0038 1.06429L61.2928 0.924326L60.8834 3.60785L63.8491 4.0603ZM71.0366 4.4314L74.0348 4.5371L74.1387 1.58756L71.1913 1.43539L71.0366 4.4314ZM70.1772 28.8064L69.8551 31.789L73.0617 32.1354L73.1754 28.9121L70.1772 28.8064ZM64.5718 28.2009L61.5788 27.9959L61.3817 30.8738L64.2496 31.1836L64.5718 28.2009ZM65.5483 13.9431L68.5413 14.1481L62.5888 13.4519L65.5483 13.9431ZM63.2241 27.947L63.0685 30.943L65.7448 31.082L66.1836 28.4382L63.2241 27.947ZM58.7124 27.7126L55.7273 28.0116L55.984 30.575L58.5568 30.7086L58.7124 27.7126ZM57.2476 13.0837L60.2326 12.7848L54.2477 13.0597L57.2476 13.0837ZM57.1304 27.7126L57.119 30.7126L60.1063 30.7239L60.1303 27.7367L57.1304 27.7126ZM51.9546 27.6931L48.9557 27.6118L48.8725 30.6815L51.9433 30.6931L51.9546 27.6931ZM52.6187 3.20093L52.4191 6.19428L59.7433 6.68256L59.9429 3.68921L60.1424 0.695854L52.8182 0.207573L52.6187 3.20093ZM59.9429 3.68921L56.9582 3.99179L58.5402 19.5973L61.5249 19.2947L64.5096 18.9921L62.9276 3.38663L59.9429 3.68921ZM61.5249 19.2947L64.4906 19.7471L66.8148 4.51276L63.8491 4.0603L60.8834 3.60785L58.5592 18.8422L61.5249 19.2947ZM63.8491 4.0603L63.6944 7.05631L70.8819 7.42741L71.0366 4.4314L71.1913 1.43539L64.0038 1.06429L63.8491 4.0603ZM71.0366 4.4314L68.0385 4.32569L67.1791 28.7007L70.1772 28.8064L73.1754 28.9121L74.0348 4.5371L71.0366 4.4314ZM70.1772 28.8064L70.4994 25.8237L64.8939 25.2183L64.5718 28.2009L64.2496 31.1836L69.8551 31.789L70.1772 28.8064ZM64.5718 28.2009L67.5648 28.4059L68.5413 14.1481L65.5483 13.9431L62.5554 13.7381L61.5788 27.9959L64.5718 28.2009ZM65.5483 13.9431L62.5888 13.4519L60.2646 27.4558L63.2241 27.947L66.1836 28.4382L68.5079 14.4343L65.5483 13.9431ZM63.2241 27.947L63.3798 24.9511L58.868 24.7167L58.7124 27.7126L58.5568 30.7086L63.0685 30.943L63.2241 27.947ZM58.7124 27.7126L61.6975 27.4137L60.2326 12.7848L57.2476 13.0837L54.2625 13.3826L55.7273 28.0116L58.7124 27.7126ZM57.2476 13.0837L54.2477 13.0597L54.1305 27.6886L57.1304 27.7126L60.1303 27.7367L60.2475 13.1078L57.2476 13.0837ZM57.1304 27.7126L57.1417 24.7127L51.9659 24.6931L51.9546 27.6931L51.9433 30.6931L57.119 30.7126L57.1304 27.7126ZM51.9546 27.6931L54.9535 27.7744L55.6175 3.28224L52.6187 3.20093L49.6198 3.11962L48.9557 27.6118L51.9546 27.6931Z" fill="#EFE8DF" mask="url(#path-1-outside-1_596_2565)"/>
</svg>
