<svg width="97" height="37" viewBox="0 0 97 37" fill="none" xmlns="http://www.w3.org/2000/svg">
<mask id="path-1-outside-1_596_2566" maskUnits="userSpaceOnUse" x="-0.546875" y="-0.704712" width="98" height="38" fill="black">
<rect fill="white" x="-0.546875" y="-0.704712" width="98" height="38"/>
<path d="M3.74609 4.29919L11.0703 4.78748L12.6523 20.3929L14.9766 5.15857L22.1641 5.52966L21.3047 29.9047L15.6992 29.2992L16.6758 15.0414L14.3516 29.0453L9.83984 28.8109L8.375 14.182L8.25781 28.8109L3.08203 28.7914L3.74609 4.29919ZM39.6641 4.68982L39.5859 10.1781L32.0859 10.432L32.1055 14.7484L39.5469 14.4164L39.6445 19.6117L32.125 19.9047L31.8906 24.8851L39.6055 24.6508V29.8265L25.7578 30.2953L26.207 5.19763L39.6641 4.68982ZM60.6992 3.12732L60.9727 28.7328L55.2695 28.5961L49.293 16.1351L49.6836 28.3422H42.9258L42.5352 3.53748L48.9023 3.40076L54.332 14.1429L54.1953 3.40076L60.6992 3.12732ZM72.6328 4.78748L70.6992 32.9515L63.4141 32.0336L65.582 4.16248L72.6328 4.78748ZM76.1484 4.68982L93.7266 5.33435L93.4727 10.6469L87.7695 10.3929L86.8711 30.2953L80.9141 29.9047L81.6758 10.3148L75.9727 10.1195L76.1484 4.68982Z"/>
</mask>
<path d="M3.74609 4.29919L11.0703 4.78748L12.6523 20.3929L14.9766 5.15857L22.1641 5.52966L21.3047 29.9047L15.6992 29.2992L16.6758 15.0414L14.3516 29.0453L9.83984 28.8109L8.375 14.182L8.25781 28.8109L3.08203 28.7914L3.74609 4.29919ZM39.6641 4.68982L39.5859 10.1781L32.0859 10.432L32.1055 14.7484L39.5469 14.4164L39.6445 19.6117L32.125 19.9047L31.8906 24.8851L39.6055 24.6508V29.8265L25.7578 30.2953L26.207 5.19763L39.6641 4.68982ZM60.6992 3.12732L60.9727 28.7328L55.2695 28.5961L49.293 16.1351L49.6836 28.3422H42.9258L42.5352 3.53748L48.9023 3.40076L54.332 14.1429L54.1953 3.40076L60.6992 3.12732ZM72.6328 4.78748L70.6992 32.9515L63.4141 32.0336L65.582 4.16248L72.6328 4.78748ZM76.1484 4.68982L93.7266 5.33435L93.4727 10.6469L87.7695 10.3929L86.8711 30.2953L80.9141 29.9047L81.6758 10.3148L75.9727 10.1195L76.1484 4.68982Z" fill="#8CA5B5"/>
<path d="M3.74609 4.29919L3.94565 1.30584L0.831779 1.09825L0.747196 4.21788L3.74609 4.29919ZM11.0703 4.78748L14.055 4.4849L13.7993 1.96275L11.2699 1.79412L11.0703 4.78748ZM12.6523 20.3929L9.66764 20.6955L15.618 20.8454L12.6523 20.3929ZM14.9766 5.15857L15.1312 2.16256L12.4203 2.02259L12.0109 4.70611L14.9766 5.15857ZM22.1641 5.52966L25.1622 5.63537L25.2662 2.68583L22.3187 2.53365L22.1641 5.52966ZM21.3047 29.9047L20.9825 32.8873L24.1892 33.2337L24.3028 30.0104L21.3047 29.9047ZM15.6992 29.2992L12.7062 29.0942L12.5091 31.9721L15.3771 32.2818L15.6992 29.2992ZM16.6758 15.0414L19.6688 15.2464L13.7163 14.5502L16.6758 15.0414ZM14.3516 29.0453L14.1959 32.0412L16.8723 32.1803L17.3111 29.5365L14.3516 29.0453ZM9.83984 28.8109L6.85477 29.1098L7.11145 31.6732L9.68421 31.8069L9.83984 28.8109ZM8.375 14.182L11.3601 13.8831L5.3751 14.158L8.375 14.182ZM8.25781 28.8109L8.24649 31.8109L11.2338 31.8222L11.2577 28.8349L8.25781 28.8109ZM3.08203 28.7914L0.0831333 28.7101L-9.62019e-05 31.7798L3.07071 31.7914L3.08203 28.7914ZM3.74609 4.29919L3.54654 7.29255L10.8708 7.78083L11.0703 4.78748L11.2699 1.79412L3.94565 1.30584L3.74609 4.29919ZM11.0703 4.78748L8.08561 5.09006L9.66764 20.6955L12.6523 20.3929L15.637 20.0904L14.055 4.4849L11.0703 4.78748ZM12.6523 20.3929L15.618 20.8454L17.9422 5.61103L14.9766 5.15857L12.0109 4.70611L9.68666 19.9405L12.6523 20.3929ZM14.9766 5.15857L14.8219 8.15458L22.0094 8.52567L22.1641 5.52966L22.3187 2.53365L15.1312 2.16256L14.9766 5.15857ZM22.1641 5.52966L19.1659 5.42396L18.3066 29.799L21.3047 29.9047L24.3028 30.0104L25.1622 5.63537L22.1641 5.52966ZM21.3047 29.9047L21.6269 26.922L16.0214 26.3165L15.6992 29.2992L15.3771 32.2818L20.9825 32.8873L21.3047 29.9047ZM15.6992 29.2992L18.6922 29.5042L19.6688 15.2464L16.6758 15.0414L13.6828 14.8364L12.7062 29.0942L15.6992 29.2992ZM16.6758 15.0414L13.7163 14.5502L11.392 28.5541L14.3516 29.0453L17.3111 29.5365L19.6353 15.5326L16.6758 15.0414ZM14.3516 29.0453L14.5072 26.0493L9.99548 25.815L9.83984 28.8109L9.68421 31.8069L14.1959 32.0412L14.3516 29.0453ZM9.83984 28.8109L12.8249 28.512L11.3601 13.8831L8.375 14.182L5.38993 14.4809L6.85477 29.1098L9.83984 28.8109ZM8.375 14.182L5.3751 14.158L5.25791 28.7869L8.25781 28.8109L11.2577 28.8349L11.3749 14.206L8.375 14.182ZM8.25781 28.8109L8.26913 25.8109L3.09335 25.7914L3.08203 28.7914L3.07071 31.7914L8.24649 31.8109L8.25781 28.8109ZM3.08203 28.7914L6.08093 28.8727L6.74499 4.3805L3.74609 4.29919L0.747196 4.21788L0.0831333 28.7101L3.08203 28.7914ZM39.6641 4.68982L42.6638 4.73252L42.7087 1.57279L39.5509 1.69195L39.6641 4.68982ZM39.5859 10.1781L39.6874 13.1764L42.5449 13.0796L42.5856 10.2208L39.5859 10.1781ZM32.0859 10.432L31.9844 7.43373L29.0728 7.5323L29.086 10.4456L32.0859 10.432ZM32.1055 14.7484L29.1055 14.762L29.1196 17.8846L32.2392 17.7454L32.1055 14.7484ZM39.5469 14.4164L42.5463 14.36L42.4885 11.2821L39.4131 11.4194L39.5469 14.4164ZM39.6445 19.6117L39.7613 22.6094L42.6993 22.495L42.644 19.5553L39.6445 19.6117ZM32.125 19.9047L32.0082 16.9069L29.2577 17.0141L29.1283 19.7636L32.125 19.9047ZM31.8906 24.8851L28.8939 24.7441L28.7416 27.9822L31.9817 27.8837L31.8906 24.8851ZM39.6055 24.6508H42.6055V21.5582L39.5144 21.6521L39.6055 24.6508ZM39.6055 29.8265L39.707 32.8248L42.6055 32.7267V29.8265H39.6055ZM25.7578 30.2953L22.7583 30.2416L22.7018 33.4005L25.8593 33.2936L25.7578 30.2953ZM26.207 5.19763L26.0939 2.19977L23.2583 2.30677L23.2075 5.14394L26.207 5.19763ZM39.6641 4.68982L36.6644 4.64712L36.5862 10.1354L39.5859 10.1781L42.5856 10.2208L42.6638 4.73252L39.6641 4.68982ZM39.5859 10.1781L39.4844 7.17982L31.9844 7.43373L32.0859 10.432L32.1874 13.4303L39.6874 13.1764L39.5859 10.1781ZM32.0859 10.432L29.086 10.4456L29.1055 14.762L32.1055 14.7484L35.1054 14.7348L35.0859 10.4184L32.0859 10.432ZM32.1055 14.7484L32.2392 17.7454L39.6806 17.4134L39.5469 14.4164L39.4131 11.4194L31.9717 11.7514L32.1055 14.7484ZM39.5469 14.4164L36.5474 14.4728L36.6451 19.6681L39.6445 19.6117L42.644 19.5553L42.5463 14.36L39.5469 14.4164ZM39.6445 19.6117L39.5277 16.614L32.0082 16.9069L32.125 19.9047L32.2418 22.9024L39.7613 22.6094L39.6445 19.6117ZM32.125 19.9047L29.1283 19.7636L28.8939 24.7441L31.8906 24.8851L34.8873 25.0262L35.1217 20.0457L32.125 19.9047ZM31.8906 24.8851L31.9817 27.8837L39.6966 27.6494L39.6055 24.6508L39.5144 21.6521L31.7995 21.8865L31.8906 24.8851ZM39.6055 24.6508H36.6055V29.8265H39.6055H42.6055V24.6508H39.6055ZM39.6055 29.8265L39.504 26.8283L25.6563 27.297L25.7578 30.2953L25.8593 33.2936L39.707 32.8248L39.6055 29.8265ZM25.7578 30.2953L28.7573 30.349L29.2066 5.25132L26.207 5.19763L23.2075 5.14394L22.7583 30.2416L25.7578 30.2953ZM26.207 5.19763L26.3202 8.1955L39.7772 7.68769L39.6641 4.68982L39.5509 1.69195L26.0939 2.19977L26.207 5.19763ZM60.6992 3.12732L63.699 3.09529L63.666 -5.91278e-05L60.5732 0.129967L60.6992 3.12732ZM60.9727 28.7328L60.9008 31.7319L64.0056 31.8064L63.9725 28.7008L60.9727 28.7328ZM55.2695 28.5961L52.5646 29.8934L53.3596 31.5511L55.1976 31.5952L55.2695 28.5961ZM49.293 16.1351L51.9979 14.8378L46.2945 16.2311L49.293 16.1351ZM49.6836 28.3422V31.3422H52.7811L52.6821 28.2462L49.6836 28.3422ZM42.9258 28.3422L39.9262 28.3894L39.9727 31.3422H42.9258V28.3422ZM42.5352 3.53748L42.4708 0.538166L39.4886 0.602201L39.5355 3.58471L42.5352 3.53748ZM48.9023 3.40076L51.5798 2.04745L50.7273 0.36088L48.8379 0.401447L48.9023 3.40076ZM54.332 14.1429L51.6546 15.4963L57.3318 14.1048L54.332 14.1429ZM54.1953 3.40076L54.0693 0.403404L51.1585 0.525782L51.1956 3.43894L54.1953 3.40076ZM60.6992 3.12732L57.6994 3.15935L57.9728 28.7648L60.9727 28.7328L63.9725 28.7008L63.699 3.09529L60.6992 3.12732ZM60.9727 28.7328L61.0446 25.7337L55.3414 25.5969L55.2695 28.5961L55.1976 31.5952L60.9008 31.7319L60.9727 28.7328ZM55.2695 28.5961L57.9745 27.2987L51.9979 14.8378L49.293 16.1351L46.588 17.4325L52.5646 29.8934L55.2695 28.5961ZM49.293 16.1351L46.2945 16.2311L46.6851 28.4381L49.6836 28.3422L52.6821 28.2462L52.2914 16.0392L49.293 16.1351ZM49.6836 28.3422V25.3422H42.9258V28.3422V31.3422H49.6836V28.3422ZM42.9258 28.3422L45.9254 28.2949L45.5348 3.49024L42.5352 3.53748L39.5355 3.58471L39.9262 28.3894L42.9258 28.3422ZM42.5352 3.53748L42.5996 6.53679L48.9667 6.40007L48.9023 3.40076L48.8379 0.401447L42.4708 0.538166L42.5352 3.53748ZM48.9023 3.40076L46.2249 4.75407L51.6546 15.4963L54.332 14.1429L57.0094 12.7896L51.5798 2.04745L48.9023 3.40076ZM54.332 14.1429L57.3318 14.1048L57.1951 3.36258L54.1953 3.40076L51.1956 3.43894L51.3323 14.1811L54.332 14.1429ZM54.1953 3.40076L54.3213 6.39811L60.8252 6.12467L60.6992 3.12732L60.5732 0.129967L54.0693 0.403404L54.1953 3.40076ZM72.6328 4.78748L75.6258 4.99296L75.8272 2.05887L72.8977 1.79919L72.6328 4.78748ZM70.6992 32.9515L70.3242 35.928L73.4747 36.325L73.6922 33.157L70.6992 32.9515ZM63.4141 32.0336L60.4231 31.8009L60.2013 34.6525L63.039 35.01L63.4141 32.0336ZM65.582 4.16248L65.8469 1.17419L62.8262 0.906431L62.5911 3.92982L65.582 4.16248ZM72.6328 4.78748L69.6399 4.582L67.7063 32.7461L70.6992 32.9515L73.6922 33.157L75.6258 4.99296L72.6328 4.78748ZM70.6992 32.9515L71.0743 29.9751L63.7891 29.0571L63.4141 32.0336L63.039 35.01L70.3242 35.928L70.6992 32.9515ZM63.4141 32.0336L66.405 32.2662L68.573 4.39513L65.582 4.16248L62.5911 3.92982L60.4231 31.8009L63.4141 32.0336ZM65.582 4.16248L65.3171 7.15076L72.3679 7.77576L72.6328 4.78748L72.8977 1.79919L65.8469 1.17419L65.582 4.16248ZM76.1484 4.68982L76.2584 1.69183L73.2475 1.58144L73.15 4.59275L76.1484 4.68982ZM93.7266 5.33435L96.7231 5.47757L96.868 2.44752L93.8365 2.33636L93.7266 5.33435ZM93.4727 10.6469L93.3392 13.6439L96.3265 13.7769L96.4692 10.7901L93.4727 10.6469ZM87.7695 10.3929L87.903 7.39591L84.9078 7.26257L84.7726 10.2577L87.7695 10.3929ZM86.8711 30.2953L86.6748 33.2889L89.73 33.4892L89.868 30.4306L86.8711 30.2953ZM80.9141 29.9047L77.9163 29.7881L77.8028 32.7071L80.7178 32.8982L80.9141 29.9047ZM81.6758 10.3148L84.6735 10.4314L84.7906 7.41973L81.7785 7.31658L81.6758 10.3148ZM75.9727 10.1195L72.9742 10.0224L72.8773 13.0153L75.87 13.1177L75.9727 10.1195ZM76.1484 4.68982L76.0385 7.68781L93.6166 8.33234L93.7266 5.33435L93.8365 2.33636L76.2584 1.69183L76.1484 4.68982ZM93.7266 5.33435L90.73 5.19113L90.4761 10.5036L93.4727 10.6469L96.4692 10.7901L96.7231 5.47757L93.7266 5.33435ZM93.4727 10.6469L93.6061 7.64982L87.903 7.39591L87.7695 10.3929L87.6361 13.39L93.3392 13.6439L93.4727 10.6469ZM87.7695 10.3929L84.7726 10.2577L83.8741 30.16L86.8711 30.2953L89.868 30.4306L90.7665 10.5282L87.7695 10.3929ZM86.8711 30.2953L87.0674 27.3017L81.1104 26.9111L80.9141 29.9047L80.7178 32.8982L86.6748 33.2889L86.8711 30.2953ZM80.9141 29.9047L83.9118 30.0212L84.6735 10.4314L81.6758 10.3148L78.678 10.1983L77.9163 29.7881L80.9141 29.9047ZM81.6758 10.3148L81.7785 7.31658L76.0753 7.12127L75.9727 10.1195L75.87 13.1177L81.5731 13.3131L81.6758 10.3148ZM75.9727 10.1195L78.9711 10.2166L79.1469 4.78689L76.1484 4.68982L73.15 4.59275L72.9742 10.0224L75.9727 10.1195Z" fill="#EFE8DF" mask="url(#path-1-outside-1_596_2566)"/>
</svg>
