<svg width="490" height="130" viewBox="0 0 490 130" fill="none" xmlns="http://www.w3.org/2000/svg">
<g filter="url(#filter0_d_596_2567)">
<path d="M208.215 74.4311L229.219 76.5089L228.502 82.8517L221.691 82.124L219.071 105.89L211.967 104.98L214.399 81.5777L207.583 80.92L208.215 74.4311Z" fill="white"/>
<path d="M296.011 75.6135L315.866 77.2913L314.803 83.9179L302.784 83.1018L302.377 89.3699L312.483 89.9968L311.823 95.8265L302.183 95.2754L301.262 106.584L293.814 106.263L296.011 75.6135Z" fill="white"/>
<path d="M208.215 74.4311L229.219 76.5089L228.502 82.8517L221.691 82.124L219.071 105.89L211.967 104.98L214.399 81.5777L207.583 80.92L208.215 74.4311Z" fill="white"/>
<path d="M180.219 78.2856L190.062 78.4497L194.773 83.2075L194.914 87.2622H188.305V84.6841L182.492 84.7544L180.969 86.231L181.109 88.5747L182.422 89.7466L189.195 90.1919L194.773 96.52L194.492 103.95L187.578 109.012H180.219L174.195 103.715L174.336 99.0278H180.359L180.523 101.512L185.141 101.7L187.133 100.504V97.5513L185.445 96.2388L180.336 96.0747L174.477 91.8091L174.828 83.4419L180.219 78.2856Z" fill="white"/>
<path d="M248.384 75.9842L261.911 104.108L253.837 105.489L251.789 100.318L243.262 101.656L242.884 107.265L235.508 108.355L238.294 77.8753L248.384 75.9842ZM244.076 84.2997L243.777 93.7912L248.802 92.7771L245.693 83.9997L244.076 84.2997Z" fill="white"/>
<path d="M265.926 76.7165L285.14 74.9248L285.342 81.626L273.74 82.9079L274.523 89.1404L284.253 88.0058L284.682 93.8548L275.399 94.9843L276.608 106.264L269.431 107.242L265.926 76.7165Z" fill="white"/>
</g>
<g filter="url(#filter1_d_596_2567)">
<path d="M201.832 13.5925L202.933 20.0759L194.012 21.0273L194.976 26.1193L203.81 25.0808L205.058 31.2032L196.122 32.2024L196.926 38.1001L206.108 37.1531L207.235 43.261L190.764 45.0175L185.836 15.3612L201.832 13.5925Z" fill="white"/>
<path d="M173.641 17.4073L179.084 23.2435L177.091 34.1202L172.17 36.944L175.459 48.3373L168.228 47.7718L165.886 38.0395L164.077 37.8104L162.209 46.9381L155.449 46.1851L161.365 16.3133L173.641 17.4073ZM166.501 22.7195L164.978 31.5366L168.834 31.7727L171.571 30.2223L172.295 25.1801L170.311 23.1406L166.501 22.7195Z" fill="white"/>
<path d="M223.556 19.3803L234.454 19.1013L239.174 24.3949L238.892 29.9948L230.208 30.3044L230.308 27.9158L229.099 26.1801L225.753 26.4629L223.605 29.3463L222.488 40.9588L224.544 43.0784L228.27 42.6053L230.139 40.839L230.631 39.1233L238.039 39.2307L237.866 43.352L230.943 49.4676L220.236 49.6397L214.494 43.7179L216.249 25.7564L223.556 19.3803Z" fill="white"/>
<path d="M262.594 16.6075L268.838 22.7369L268.46 33.6693L264.002 36.3295L268.929 47.9985L261.688 47.1336L257.942 37.1847L256.118 36.8796L255.607 46.0461L248.804 45.0104L250.282 15.0037L262.594 16.6075ZM256.305 21.6977L256.09 30.5637L259.942 30.9586L262.424 29.4994L262.401 24.4233L260.139 22.2781L256.305 21.6977Z" fill="white"/>
<path d="M319.544 15.6556L322.125 46.4143L313.814 45.7175L311.553 15.306L319.544 15.6556Z" fill="white"/>
<path d="M299.308 18.7674L299.648 42.8965L293.138 50.2892L285.307 51.3202L278.874 45.6318L278.508 22.3963L285.573 21.185L285.945 43.0376L287.287 44.3602L290.75 43.7637L292.265 42.3461L292.661 19.9471L299.308 18.7674Z" fill="white"/>
<path d="M357.61 18.3957L366.484 18.3162L371.872 36.5723L371.241 18.4043L379.926 18.1989L384.356 47.0119L377.512 46.7995L375.488 29.9033L375.843 46.6207L370.391 46.748L365.362 29.6327L368.498 46.8895L362.3 47.3294L357.61 18.3957Z" fill="white"/>
<path d="M452.381 20.3288L473.56 19.5163L474.446 25.802L467.588 26.0111L470.946 49.5565L463.73 49.6288L460.278 26.4641L453.41 26.7439L452.381 20.3288Z" fill="white"/>
<path d="M407.372 19.3556L408.473 25.839L399.552 26.7904L400.515 31.8824L409.349 30.8439L410.597 36.9663L401.661 37.9655L402.465 43.8632L411.648 42.9162L412.775 49.024L396.303 50.7806L391.376 21.1243L407.372 19.3556Z" fill="white"/>
<path d="M329.515 17.902L350.547 17.9429L349.843 24.3159L343.046 24.2482L340.448 48.1222L333.333 47.9021L335.744 24.4081L328.919 24.4113L329.515 17.902Z" fill="white"/>
<path d="M445.111 22.5442L439.359 52.697L432.583 51.8412L428.406 36.4553L425.975 50.8619L417.908 50.0385L423.329 20.8134L430.963 21.4284L434.895 34.7259L437.281 22.0733L445.111 22.5442Z" fill="white"/>
</g>
<g filter="url(#filter2_d_596_2567)">
<path d="M44.6332 16.4588L58.4315 17.6587L63.1781 24.0432L62.1803 33.775L56.9098 38.345L49.4912 37.9396L48.6327 47.3739L41.326 47.045L44.6332 16.4588ZM50.1781 31.4764L53.8117 31.9096L55.5599 30.5032L55.9434 25.2907L54.3526 23.2794L50.9912 22.9784L50.1781 31.4764Z" fill="white"/>
<path d="M23.4062 17.7075L29.5234 23.6841L29.7812 44.3325L23.2891 48.9497L12.8594 48.6919L5.99219 44.0747L6.25 23.4263L12.4609 18.2466L23.4062 17.7075ZM14.6641 40.0435L16.8438 41.5903L19.4922 41.5435L21.6719 39.9966L21.2734 26.6138L19.6328 24.7856L16.0938 24.856L14.5469 26.731L14.6641 40.0435Z" fill="white"/>
<path d="M87.7567 19.5269L88.9084 26.0271L80.016 27.2152L81.0282 32.3169L89.8382 31.0428L91.1532 37.1738L82.2437 38.4107L83.1281 44.3254L92.2537 43.1141L93.449 49.2334L77.0372 51.4499L71.7647 21.7017L87.7567 19.5269Z" fill="white"/>
<path d="M121.993 14.8177L126.528 45.2212L119.698 45.7579L110.515 31.6783L112.988 46.1409L104.921 46.9693L100.378 17.532L107.956 16.589L116.203 28.6925L114.275 15.9401L121.993 14.8177Z" fill="white"/>
</g>
<defs>
<filter id="filter0_d_596_2567" x="169" y="58.7631" width="152.625" height="71" filterUnits="userSpaceOnUse" color-interpolation-filters="sRGB">
<feFlood flood-opacity="0" result="BackgroundImageFix"/>
<feColorMatrix in="SourceAlpha" type="matrix" values="0 0 0 0 0 0 0 0 0 0 0 0 0 0 0 0 0 0 127 0" result="hardAlpha"/>
<feOffset dy="4"/>
<feGaussianBlur stdDeviation="2"/>
<feComposite in2="hardAlpha" operator="out"/>
<feColorMatrix type="matrix" values="0 0 0 0 0 0 0 0 0 0 0 0 0 0 0 0 0 0 1 0"/>
<feBlend mode="normal" in2="BackgroundImageFix" result="effect1_dropShadow_596_2567"/>
<feBlend mode="normal" in="SourceGraphic" in2="effect1_dropShadow_596_2567" result="shape"/>
</filter>
<filter id="filter1_d_596_2567" x="150.229" y="0" width="339.771" height="60.697" filterUnits="userSpaceOnUse" color-interpolation-filters="sRGB">
<feFlood flood-opacity="0" result="BackgroundImageFix"/>
<feColorMatrix in="SourceAlpha" type="matrix" values="0 0 0 0 0 0 0 0 0 0 0 0 0 0 0 0 0 0 127 0" result="hardAlpha"/>
<feOffset dy="4"/>
<feGaussianBlur stdDeviation="2"/>
<feComposite in2="hardAlpha" operator="out"/>
<feColorMatrix type="matrix" values="0 0 0 0 0 0 0 0 0 0 0 0 0 0 0 0 0 0 1 0"/>
<feBlend mode="normal" in2="BackgroundImageFix" result="effect1_dropShadow_596_2567"/>
<feBlend mode="normal" in="SourceGraphic" in2="effect1_dropShadow_596_2567" result="shape"/>
</filter>
<filter id="filter2_d_596_2567" x="0" y="2.76306" width="139.659" height="69" filterUnits="userSpaceOnUse" color-interpolation-filters="sRGB">
<feFlood flood-opacity="0" result="BackgroundImageFix"/>
<feColorMatrix in="SourceAlpha" type="matrix" values="0 0 0 0 0 0 0 0 0 0 0 0 0 0 0 0 0 0 127 0" result="hardAlpha"/>
<feOffset dy="4"/>
<feGaussianBlur stdDeviation="2"/>
<feComposite in2="hardAlpha" operator="out"/>
<feColorMatrix type="matrix" values="0 0 0 0 0 0 0 0 0 0 0 0 0 0 0 0 0 0 1 0"/>
<feBlend mode="normal" in2="BackgroundImageFix" result="effect1_dropShadow_596_2567"/>
<feBlend mode="normal" in="SourceGraphic" in2="effect1_dropShadow_596_2567" result="shape"/>
</filter>
</defs>
</svg>
